%TF.GenerationSoftware,KiCad,Pcbnew,(6.0.7)*%
%TF.CreationDate,2022-07-29T13:47:02-04:00*%
%TF.ProjectId,ingameNES,696e6761-6d65-44e4-9553-2e6b69636164,1*%
%TF.SameCoordinates,Original*%
%TF.FileFunction,Paste,Top*%
%TF.FilePolarity,Positive*%
%FSLAX46Y46*%
G04 Gerber Fmt 4.6, Leading zero omitted, Abs format (unit mm)*
G04 Created by KiCad (PCBNEW (6.0.7)) date 2022-07-29 13:47:02*
%MOMM*%
%LPD*%
G01*
G04 APERTURE LIST*
G04 Aperture macros list*
%AMRoundRect*
0 Rectangle with rounded corners*
0 $1 Rounding radius*
0 $2 $3 $4 $5 $6 $7 $8 $9 X,Y pos of 4 corners*
0 Add a 4 corners polygon primitive as box body*
4,1,4,$2,$3,$4,$5,$6,$7,$8,$9,$2,$3,0*
0 Add four circle primitives for the rounded corners*
1,1,$1+$1,$2,$3*
1,1,$1+$1,$4,$5*
1,1,$1+$1,$6,$7*
1,1,$1+$1,$8,$9*
0 Add four rect primitives between the rounded corners*
20,1,$1+$1,$2,$3,$4,$5,0*
20,1,$1+$1,$4,$5,$6,$7,0*
20,1,$1+$1,$6,$7,$8,$9,0*
20,1,$1+$1,$8,$9,$2,$3,0*%
G04 Aperture macros list end*
%ADD10RoundRect,0.237500X-0.237500X0.300000X-0.237500X-0.300000X0.237500X-0.300000X0.237500X0.300000X0*%
%ADD11R,1.870000X0.380000*%
%ADD12RoundRect,0.237500X0.237500X-0.300000X0.237500X0.300000X-0.237500X0.300000X-0.237500X-0.300000X0*%
%ADD13RoundRect,0.250000X0.337500X0.475000X-0.337500X0.475000X-0.337500X-0.475000X0.337500X-0.475000X0*%
%ADD14RoundRect,0.237500X0.237500X-0.250000X0.237500X0.250000X-0.237500X0.250000X-0.237500X-0.250000X0*%
%ADD15RoundRect,0.237500X0.300000X0.237500X-0.300000X0.237500X-0.300000X-0.237500X0.300000X-0.237500X0*%
%ADD16R,0.380000X1.870000*%
%ADD17RoundRect,0.237500X-0.300000X-0.237500X0.300000X-0.237500X0.300000X0.237500X-0.300000X0.237500X0*%
%ADD18R,0.700000X1.150000*%
%ADD19R,0.800000X1.150000*%
%ADD20R,0.900000X1.150000*%
%ADD21RoundRect,0.237500X0.237500X-0.287500X0.237500X0.287500X-0.237500X0.287500X-0.237500X-0.287500X0*%
%ADD22RoundRect,0.100000X-0.637500X-0.100000X0.637500X-0.100000X0.637500X0.100000X-0.637500X0.100000X0*%
%ADD23RoundRect,0.125000X-0.825000X-0.125000X0.825000X-0.125000X0.825000X0.125000X-0.825000X0.125000X0*%
%ADD24RoundRect,0.250000X-0.250000X-1.500000X0.250000X-1.500000X0.250000X1.500000X-0.250000X1.500000X0*%
%ADD25RoundRect,0.250001X-0.499999X-1.449999X0.499999X-1.449999X0.499999X1.449999X-0.499999X1.449999X0*%
%ADD26R,1.600000X2.000000*%
%ADD27R,0.800000X1.900000*%
%ADD28RoundRect,0.237500X-0.237500X0.250000X-0.237500X-0.250000X0.237500X-0.250000X0.237500X0.250000X0*%
%ADD29RoundRect,0.150000X-0.150000X0.512500X-0.150000X-0.512500X0.150000X-0.512500X0.150000X0.512500X0*%
%ADD30RoundRect,0.150000X0.150000X-0.512500X0.150000X0.512500X-0.150000X0.512500X-0.150000X-0.512500X0*%
%ADD31RoundRect,0.237500X0.250000X0.237500X-0.250000X0.237500X-0.250000X-0.237500X0.250000X-0.237500X0*%
%ADD32RoundRect,0.237500X-0.250000X-0.237500X0.250000X-0.237500X0.250000X0.237500X-0.250000X0.237500X0*%
%ADD33RoundRect,0.190000X-0.190000X-0.765000X0.190000X-0.765000X0.190000X0.765000X-0.190000X0.765000X0*%
%ADD34RoundRect,0.190000X0.765000X-0.190000X0.765000X0.190000X-0.765000X0.190000X-0.765000X-0.190000X0*%
%ADD35RoundRect,0.190000X0.190000X0.765000X-0.190000X0.765000X-0.190000X-0.765000X0.190000X-0.765000X0*%
%ADD36RoundRect,0.190000X-0.765000X0.190000X-0.765000X-0.190000X0.765000X-0.190000X0.765000X0.190000X0*%
%ADD37RoundRect,0.250000X0.425000X-0.537500X0.425000X0.537500X-0.425000X0.537500X-0.425000X-0.537500X0*%
%ADD38RoundRect,0.250000X-0.650000X0.412500X-0.650000X-0.412500X0.650000X-0.412500X0.650000X0.412500X0*%
%ADD39RoundRect,0.150000X0.150000X-0.587500X0.150000X0.587500X-0.150000X0.587500X-0.150000X-0.587500X0*%
%ADD40R,3.000000X0.550000*%
%ADD41R,0.550000X3.000000*%
%ADD42RoundRect,0.150000X-0.150000X0.587500X-0.150000X-0.587500X0.150000X-0.587500X0.150000X0.587500X0*%
%ADD43RoundRect,0.250000X0.650000X-0.412500X0.650000X0.412500X-0.650000X0.412500X-0.650000X-0.412500X0*%
%ADD44RoundRect,0.250000X-1.025000X0.787500X-1.025000X-0.787500X1.025000X-0.787500X1.025000X0.787500X0*%
%ADD45RoundRect,0.150000X-0.512500X-0.150000X0.512500X-0.150000X0.512500X0.150000X-0.512500X0.150000X0*%
%ADD46RoundRect,0.150000X0.512500X0.150000X-0.512500X0.150000X-0.512500X-0.150000X0.512500X-0.150000X0*%
%ADD47R,0.800000X1.800000*%
%ADD48R,7.700000X3.100000*%
%ADD49RoundRect,0.250000X0.475000X-0.337500X0.475000X0.337500X-0.475000X0.337500X-0.475000X-0.337500X0*%
%ADD50RoundRect,0.250000X0.350000X-0.275000X0.350000X0.275000X-0.350000X0.275000X-0.350000X-0.275000X0*%
G04 APERTURE END LIST*
D10*
X95504000Y-171857500D03*
X95504000Y-173582500D03*
X99314000Y-171857500D03*
X99314000Y-173582500D03*
X103124000Y-171857500D03*
X103124000Y-173582500D03*
D11*
X134286000Y-99293000D03*
X134286000Y-98743000D03*
X134286000Y-98193000D03*
X134286000Y-97643000D03*
X134286000Y-97093000D03*
X134286000Y-96543000D03*
X134286000Y-95993000D03*
X121746000Y-95993000D03*
X121746000Y-96543000D03*
X121746000Y-97093000D03*
X121746000Y-97643000D03*
X121746000Y-98193000D03*
X121746000Y-98743000D03*
X121746000Y-99293000D03*
X121746000Y-99843000D03*
X121746000Y-100393000D03*
X121746000Y-100943000D03*
X121746000Y-101493000D03*
X121746000Y-102043000D03*
X121746000Y-102593000D03*
X121746000Y-103143000D03*
X134286000Y-103143000D03*
X134286000Y-102593000D03*
X134286000Y-102043000D03*
X134286000Y-101493000D03*
X134286000Y-100943000D03*
X134286000Y-100393000D03*
X134286000Y-99843000D03*
D12*
X74422000Y-118972500D03*
X74422000Y-117247500D03*
D13*
X146579500Y-113538000D03*
X144504500Y-113538000D03*
D14*
X93726000Y-173632500D03*
X93726000Y-171807500D03*
X97536000Y-173632500D03*
X97536000Y-171807500D03*
X101346000Y-173632500D03*
X101346000Y-171807500D03*
D15*
X62584500Y-115570000D03*
X60859500Y-115570000D03*
X81126500Y-154178000D03*
X79401500Y-154178000D03*
D16*
X79523000Y-152137000D03*
X80073000Y-152137000D03*
X80623000Y-152137000D03*
X81173000Y-152137000D03*
X81723000Y-152137000D03*
X82273000Y-152137000D03*
X82823000Y-152137000D03*
X82823000Y-139597000D03*
X82273000Y-139597000D03*
X81723000Y-139597000D03*
X81173000Y-139597000D03*
X80623000Y-139597000D03*
X80073000Y-139597000D03*
X79523000Y-139597000D03*
X78973000Y-139597000D03*
X78423000Y-139597000D03*
X77873000Y-139597000D03*
X77323000Y-139597000D03*
X76773000Y-139597000D03*
X76223000Y-139597000D03*
X75673000Y-139597000D03*
X75673000Y-152137000D03*
X76223000Y-152137000D03*
X76773000Y-152137000D03*
X77323000Y-152137000D03*
X77873000Y-152137000D03*
X78423000Y-152137000D03*
X78973000Y-152137000D03*
D17*
X120549500Y-155448000D03*
X122274500Y-155448000D03*
D10*
X91694000Y-171857500D03*
X91694000Y-173582500D03*
D14*
X89916000Y-173632500D03*
X89916000Y-171807500D03*
D18*
X139000000Y-191000000D03*
D19*
X141020000Y-191000000D03*
D20*
X142250000Y-191000000D03*
D18*
X140000000Y-191000000D03*
D19*
X137980000Y-191000000D03*
D20*
X136750000Y-191000000D03*
D21*
X146500000Y-194375000D03*
X146500000Y-192625000D03*
D22*
X108204000Y-108316000D03*
X108204000Y-108966000D03*
X108204000Y-109616000D03*
X108204000Y-110266000D03*
X108204000Y-110916000D03*
X108204000Y-111566000D03*
X108204000Y-112216000D03*
X108204000Y-112866000D03*
X113929000Y-112866000D03*
X113929000Y-112216000D03*
X113929000Y-111566000D03*
X113929000Y-110916000D03*
X113929000Y-110266000D03*
X113929000Y-109616000D03*
X113929000Y-108966000D03*
X113929000Y-108316000D03*
D23*
X76256000Y-127956000D03*
X76256000Y-128606000D03*
X76256000Y-129256000D03*
X76256000Y-129906000D03*
X76256000Y-130556000D03*
X76256000Y-131206000D03*
X76256000Y-131856000D03*
X76256000Y-132506000D03*
X76256000Y-133156000D03*
X76256000Y-133806000D03*
X83256000Y-133806000D03*
X83256000Y-133156000D03*
X83256000Y-132506000D03*
X83256000Y-131856000D03*
X83256000Y-131206000D03*
X83256000Y-130556000D03*
X83256000Y-129906000D03*
X83256000Y-129256000D03*
X83256000Y-128606000D03*
X83256000Y-127956000D03*
D15*
X84682500Y-126055000D03*
X82957500Y-126055000D03*
D24*
X89000000Y-188920000D03*
X91000000Y-188920000D03*
X93000000Y-188920000D03*
X95000000Y-188920000D03*
X97000000Y-188920000D03*
X99000000Y-188920000D03*
X101000000Y-188920000D03*
D25*
X86650000Y-194670000D03*
X103350000Y-194670000D03*
D24*
X114000000Y-188920000D03*
X116000000Y-188920000D03*
X118000000Y-188920000D03*
X120000000Y-188920000D03*
X122000000Y-188920000D03*
X124000000Y-188920000D03*
X126000000Y-188920000D03*
D25*
X111650000Y-194670000D03*
X128350000Y-194670000D03*
D17*
X65177500Y-157480000D03*
X66902500Y-157480000D03*
D12*
X85090000Y-149452500D03*
X85090000Y-147727500D03*
D17*
X61367500Y-145034000D03*
X63092500Y-145034000D03*
D12*
X74168000Y-172312500D03*
X74168000Y-170587500D03*
D26*
X70750000Y-191750000D03*
X70750000Y-186700000D03*
X79250000Y-194500000D03*
X70750000Y-194500000D03*
X79250000Y-187950000D03*
X79250000Y-185550000D03*
D27*
X95438000Y-175816000D03*
X93538000Y-175816000D03*
X94488000Y-178816000D03*
X99248000Y-175816000D03*
X97348000Y-175816000D03*
X98298000Y-178816000D03*
D17*
X104801500Y-135890000D03*
X106526500Y-135890000D03*
X104801500Y-134366000D03*
X106526500Y-134366000D03*
D10*
X102616000Y-138035500D03*
X102616000Y-139760500D03*
D28*
X148000000Y-171587500D03*
X148000000Y-173412500D03*
D14*
X99314000Y-136040500D03*
X99314000Y-134215500D03*
D29*
X106106000Y-137800500D03*
X105156000Y-137800500D03*
X104206000Y-137800500D03*
X104206000Y-140075500D03*
X106106000Y-140075500D03*
D17*
X104293500Y-143256000D03*
X106018500Y-143256000D03*
D14*
X147066000Y-163121500D03*
X147066000Y-161296500D03*
D30*
X95610000Y-143357500D03*
X96560000Y-143357500D03*
X97510000Y-143357500D03*
X97510000Y-141082500D03*
X95610000Y-141082500D03*
D15*
X117702500Y-108458000D03*
X115977500Y-108458000D03*
D10*
X59690000Y-186081500D03*
X59690000Y-187806500D03*
X115316000Y-171857500D03*
X115316000Y-173582500D03*
D14*
X113538000Y-173632500D03*
X113538000Y-171807500D03*
X120650000Y-151788500D03*
X120650000Y-149963500D03*
D10*
X128016000Y-162967500D03*
X128016000Y-164692500D03*
D31*
X63396500Y-189738000D03*
X61571500Y-189738000D03*
D14*
X118110000Y-151788500D03*
X118110000Y-149963500D03*
D31*
X85240500Y-173736000D03*
X83415500Y-173736000D03*
D12*
X81788000Y-175360500D03*
X81788000Y-173635500D03*
D32*
X83415500Y-172212000D03*
X85240500Y-172212000D03*
D15*
X79602500Y-178054000D03*
X77877500Y-178054000D03*
D32*
X83415500Y-176784000D03*
X85240500Y-176784000D03*
D31*
X85240500Y-175260000D03*
X83415500Y-175260000D03*
D12*
X74168000Y-176376500D03*
X74168000Y-174651500D03*
D14*
X124968000Y-173632500D03*
X124968000Y-171807500D03*
X121158000Y-173632500D03*
X121158000Y-171807500D03*
X117348000Y-173632500D03*
X117348000Y-171807500D03*
D10*
X111506000Y-171857500D03*
X111506000Y-173582500D03*
D30*
X63312000Y-149219500D03*
X64262000Y-149219500D03*
X65212000Y-149219500D03*
X65212000Y-146944500D03*
X63312000Y-146944500D03*
D10*
X126746000Y-171857500D03*
X126746000Y-173582500D03*
X122936000Y-171857500D03*
X122936000Y-173582500D03*
D14*
X109728000Y-173632500D03*
X109728000Y-171807500D03*
D10*
X119126000Y-171857500D03*
X119126000Y-173582500D03*
D33*
X143510000Y-120220000D03*
X142240000Y-120220000D03*
X140970000Y-120220000D03*
X139700000Y-120220000D03*
D34*
X138000000Y-121920000D03*
X138000000Y-123190000D03*
X138000000Y-124460000D03*
X138000000Y-125730000D03*
X138000000Y-127000000D03*
X138000000Y-128270000D03*
X138000000Y-129540000D03*
X138000000Y-130810000D03*
X138000000Y-132080000D03*
D35*
X139700000Y-133780000D03*
X140970000Y-133780000D03*
X142240000Y-133780000D03*
X143510000Y-133780000D03*
X144780000Y-133780000D03*
X146050000Y-133780000D03*
X147320000Y-133780000D03*
D36*
X149020000Y-132080000D03*
X149020000Y-130810000D03*
X149020000Y-129540000D03*
X149020000Y-128270000D03*
X149020000Y-127000000D03*
X149020000Y-125730000D03*
X149020000Y-124460000D03*
X149020000Y-123190000D03*
X149020000Y-121920000D03*
D33*
X147320000Y-120220000D03*
X146050000Y-120220000D03*
X144780000Y-120220000D03*
D37*
X132334000Y-165267500D03*
X132334000Y-162392500D03*
D15*
X146658500Y-115316000D03*
X144933500Y-115316000D03*
D33*
X59000000Y-120220000D03*
X57730000Y-120220000D03*
X56460000Y-120220000D03*
X55190000Y-120220000D03*
D34*
X53490000Y-121920000D03*
X53490000Y-123190000D03*
X53490000Y-124460000D03*
X53490000Y-125730000D03*
X53490000Y-127000000D03*
X53490000Y-128270000D03*
X53490000Y-129540000D03*
X53490000Y-130810000D03*
X53490000Y-132080000D03*
D35*
X55190000Y-133780000D03*
X56460000Y-133780000D03*
X57730000Y-133780000D03*
X59000000Y-133780000D03*
X60270000Y-133780000D03*
X61540000Y-133780000D03*
X62810000Y-133780000D03*
D36*
X64510000Y-132080000D03*
X64510000Y-130810000D03*
X64510000Y-129540000D03*
X64510000Y-128270000D03*
X64510000Y-127000000D03*
X64510000Y-125730000D03*
X64510000Y-124460000D03*
X64510000Y-123190000D03*
X64510000Y-121920000D03*
D33*
X62810000Y-120220000D03*
X61540000Y-120220000D03*
X60270000Y-120220000D03*
D12*
X145288000Y-163071500D03*
X145288000Y-161346500D03*
X99314000Y-143356500D03*
X99314000Y-141631500D03*
D14*
X137922000Y-163121500D03*
X137922000Y-161296500D03*
D12*
X139700000Y-163071500D03*
X139700000Y-161346500D03*
D38*
X143764000Y-169437500D03*
X143764000Y-172562500D03*
D14*
X75692000Y-176426500D03*
X75692000Y-174601500D03*
D28*
X61214000Y-162409500D03*
X61214000Y-164234500D03*
D27*
X72451000Y-169569000D03*
X70551000Y-169569000D03*
X71501000Y-172569000D03*
X91628000Y-175816000D03*
X89728000Y-175816000D03*
X90678000Y-178816000D03*
D13*
X62759500Y-113792000D03*
X60684500Y-113792000D03*
D31*
X107084500Y-119380000D03*
X105259500Y-119380000D03*
D10*
X103378000Y-101245500D03*
X103378000Y-102970500D03*
D27*
X119060000Y-175816000D03*
X117160000Y-175816000D03*
X118110000Y-178816000D03*
D32*
X66651500Y-176276000D03*
X68476500Y-176276000D03*
D39*
X61534000Y-187881500D03*
X63434000Y-187881500D03*
X62484000Y-186006500D03*
D12*
X79248000Y-107034500D03*
X79248000Y-105309500D03*
D28*
X68834000Y-170537500D03*
X68834000Y-172362500D03*
D15*
X119226500Y-143002000D03*
X117501500Y-143002000D03*
D27*
X141544000Y-163376500D03*
X143444000Y-163376500D03*
X142494000Y-160376500D03*
D12*
X70358000Y-176376500D03*
X70358000Y-174651500D03*
D40*
X88034000Y-97600000D03*
X88034000Y-98400000D03*
X88034000Y-99200000D03*
X88034000Y-100000000D03*
X88034000Y-100800000D03*
X88034000Y-101600000D03*
X88034000Y-102400000D03*
X88034000Y-103200000D03*
X88034000Y-104000000D03*
X88034000Y-104800000D03*
X88034000Y-105600000D03*
D41*
X90234000Y-107800000D03*
X91034000Y-107800000D03*
X91834000Y-107800000D03*
X92634000Y-107800000D03*
X93434000Y-107800000D03*
X94234000Y-107800000D03*
X95034000Y-107800000D03*
X95834000Y-107800000D03*
X96634000Y-107800000D03*
X97434000Y-107800000D03*
X98234000Y-107800000D03*
D40*
X100434000Y-105600000D03*
X100434000Y-104800000D03*
X100434000Y-104000000D03*
X100434000Y-103200000D03*
X100434000Y-102400000D03*
X100434000Y-101600000D03*
X100434000Y-100800000D03*
X100434000Y-100000000D03*
X100434000Y-99200000D03*
X100434000Y-98400000D03*
X100434000Y-97600000D03*
D41*
X98234000Y-95400000D03*
X97434000Y-95400000D03*
X96634000Y-95400000D03*
X95834000Y-95400000D03*
X95034000Y-95400000D03*
X94234000Y-95400000D03*
X93434000Y-95400000D03*
X92634000Y-95400000D03*
X91834000Y-95400000D03*
X91034000Y-95400000D03*
X90234000Y-95400000D03*
D27*
X111440000Y-175816000D03*
X109540000Y-175816000D03*
X110490000Y-178816000D03*
D16*
X118893000Y-140890000D03*
X119443000Y-140890000D03*
X119993000Y-140890000D03*
X120543000Y-140890000D03*
X121093000Y-140890000D03*
X121643000Y-140890000D03*
X122193000Y-140890000D03*
X122193000Y-128350000D03*
X121643000Y-128350000D03*
X121093000Y-128350000D03*
X120543000Y-128350000D03*
X119993000Y-128350000D03*
X119443000Y-128350000D03*
X118893000Y-128350000D03*
X118343000Y-128350000D03*
X117793000Y-128350000D03*
X117243000Y-128350000D03*
X116693000Y-128350000D03*
X116143000Y-128350000D03*
X115593000Y-128350000D03*
X115043000Y-128350000D03*
X115043000Y-140890000D03*
X115593000Y-140890000D03*
X116143000Y-140890000D03*
X116693000Y-140890000D03*
X117243000Y-140890000D03*
X117793000Y-140890000D03*
X118343000Y-140890000D03*
D31*
X107084500Y-116840000D03*
X105259500Y-116840000D03*
D15*
X138022500Y-99822000D03*
X136297500Y-99822000D03*
D10*
X105156000Y-101245500D03*
X105156000Y-102970500D03*
D22*
X116263500Y-156841000D03*
X116263500Y-157491000D03*
X116263500Y-158141000D03*
X116263500Y-158791000D03*
X116263500Y-159441000D03*
X116263500Y-160091000D03*
X116263500Y-160741000D03*
X116263500Y-161391000D03*
X116263500Y-162041000D03*
X116263500Y-162691000D03*
X121988500Y-162691000D03*
X121988500Y-162041000D03*
X121988500Y-161391000D03*
X121988500Y-160741000D03*
X121988500Y-160091000D03*
X121988500Y-159441000D03*
X121988500Y-158791000D03*
X121988500Y-158141000D03*
X121988500Y-157491000D03*
X121988500Y-156841000D03*
D42*
X64196000Y-166448500D03*
X62296000Y-166448500D03*
X63246000Y-168323500D03*
D27*
X115250000Y-175816000D03*
X113350000Y-175816000D03*
X114300000Y-178816000D03*
D31*
X100734500Y-145542000D03*
X98909500Y-145542000D03*
D27*
X103058000Y-175816000D03*
X101158000Y-175816000D03*
X102108000Y-178816000D03*
D11*
X77136000Y-104627000D03*
X77136000Y-104077000D03*
X77136000Y-103527000D03*
X77136000Y-102977000D03*
X77136000Y-102427000D03*
X77136000Y-101877000D03*
X77136000Y-101327000D03*
X64596000Y-101327000D03*
X64596000Y-101877000D03*
X64596000Y-102427000D03*
X64596000Y-102977000D03*
X64596000Y-103527000D03*
X64596000Y-104077000D03*
X64596000Y-104627000D03*
X64596000Y-105177000D03*
X64596000Y-105727000D03*
X64596000Y-106277000D03*
X64596000Y-106827000D03*
X64596000Y-107377000D03*
X64596000Y-107927000D03*
X64596000Y-108477000D03*
X77136000Y-108477000D03*
X77136000Y-107927000D03*
X77136000Y-107377000D03*
X77136000Y-106827000D03*
X77136000Y-106277000D03*
X77136000Y-105727000D03*
X77136000Y-105177000D03*
D10*
X65024000Y-186081500D03*
X65024000Y-187806500D03*
D28*
X92710000Y-140857500D03*
X92710000Y-142682500D03*
D43*
X130048000Y-165392500D03*
X130048000Y-162267500D03*
D27*
X122870000Y-175816000D03*
X120970000Y-175816000D03*
X121920000Y-178816000D03*
D44*
X58420000Y-167067500D03*
X58420000Y-173292500D03*
D10*
X72644000Y-174651500D03*
X72644000Y-176376500D03*
D38*
X66802000Y-170649500D03*
X66802000Y-173774500D03*
D15*
X61314500Y-178308000D03*
X59589500Y-178308000D03*
D45*
X95172500Y-137020000D03*
X95172500Y-137970000D03*
X95172500Y-138920000D03*
X97447500Y-138920000D03*
X97447500Y-137970000D03*
X97447500Y-137020000D03*
D46*
X79877500Y-176464000D03*
X79877500Y-175514000D03*
X79877500Y-174564000D03*
X77602500Y-174564000D03*
X77602500Y-176464000D03*
D17*
X102769500Y-113030000D03*
X104494500Y-113030000D03*
D12*
X75692000Y-172312500D03*
X75692000Y-170587500D03*
D27*
X126680000Y-175816000D03*
X124780000Y-175816000D03*
X125730000Y-178816000D03*
D47*
X63650000Y-195150000D03*
X61350000Y-195150000D03*
X62500000Y-195150000D03*
D48*
X137414000Y-177186000D03*
X137414000Y-170286000D03*
D17*
X104293500Y-141732000D03*
X106018500Y-141732000D03*
D49*
X76454000Y-119147500D03*
X76454000Y-117072500D03*
D12*
X99314000Y-139800500D03*
X99314000Y-138075500D03*
D31*
X104544500Y-111506000D03*
X102719500Y-111506000D03*
D32*
X62333500Y-151384000D03*
X64158500Y-151384000D03*
D50*
X77724000Y-172854000D03*
X77724000Y-170554000D03*
D43*
X74422000Y-114338500D03*
X74422000Y-111213500D03*
D32*
X59539500Y-176530000D03*
X61364500Y-176530000D03*
D43*
X143764000Y-178092500D03*
X143764000Y-174967500D03*
M02*
