M48
; DRILL file {KiCad (6.0.7)} date Fri Jul 29 13:47:05 2022
; FORMAT={-:-/ absolute / metric / decimal}
; #@! TF.CreationDate,2022-07-29T13:47:05-04:00
; #@! TF.GenerationSoftware,Kicad,Pcbnew,(6.0.7)
; #@! TF.FileFunction,Plated,1,4,PTH
FMAT,2
METRIC
; #@! TA.AperFunction,Plated,PTH,ViaDrill
T1C0.305
; #@! TA.AperFunction,Plated,PTH,ComponentDrill
T2C0.400
; #@! TA.AperFunction,Plated,PTH,ComponentDrill
T3C0.500
; #@! TA.AperFunction,Plated,PTH,ComponentDrill
T4C0.750
; #@! TA.AperFunction,Plated,PTH,ComponentDrill
T5C0.800
%
G90
G05
T1
X47.625Y-91.44
X47.625Y-93.98
X47.625Y-96.52
X47.625Y-99.06
X47.625Y-101.6
X47.625Y-104.14
X47.625Y-106.68
X47.625Y-109.22
X47.625Y-111.76
X47.625Y-114.3
X47.625Y-116.84
X47.625Y-119.38
X47.625Y-121.92
X47.625Y-124.46
X47.625Y-127.0
X47.625Y-129.54
X47.625Y-132.08
X47.625Y-134.62
X47.625Y-137.16
X47.625Y-139.7
X47.625Y-142.24
X47.625Y-144.78
X47.625Y-147.32
X47.625Y-149.86
X47.625Y-151.765
X48.26Y-89.916
X50.8Y-89.916
X50.8Y-151.765
X52.705Y-162.56
X52.705Y-164.465
X52.705Y-166.37
X52.705Y-168.275
X52.705Y-170.18
X52.705Y-172.085
X52.705Y-173.99
X52.705Y-175.895
X52.705Y-177.8
X52.705Y-179.705
X52.832Y-102.108
X52.832Y-103.378
X52.832Y-104.394
X52.832Y-105.918
X52.832Y-107.696
X53.34Y-89.916
X53.848Y-99.822
X54.61Y-99.06
X54.61Y-156.845
X54.61Y-159.385
X54.61Y-162.56
X55.118Y-115.57
X55.118Y-117.094
X55.372Y-98.298
X55.626Y-130.81
X55.649Y-131.849
X55.88Y-89.916
X55.88Y-125.73
X55.88Y-127.635
X55.88Y-129.54
X55.88Y-151.765
X55.88Y-182.88
X55.88Y-185.42
X55.88Y-187.96
X55.88Y-190.5
X55.88Y-193.04
X55.88Y-195.58
X56.642Y-175.514
X57.15Y-123.952
X57.15Y-124.968
X57.15Y-164.846
X57.404Y-135.636
X57.658Y-131.572
X57.785Y-127.635
X57.785Y-153.035
X57.785Y-155.575
X57.912Y-116.586
X57.912Y-123.19
X58.166Y-178.308
X58.42Y-89.916
X58.42Y-103.124
X58.42Y-108.712
X58.42Y-196.215
X58.928Y-118.11
X58.928Y-122.174
X58.928Y-131.572
X59.0Y-126.365
X59.182Y-109.728
X59.436Y-102.108
X59.436Y-112.522
X59.436Y-113.792
X59.436Y-116.332
X59.436Y-164.846
X59.436Y-179.832
X59.69Y-99.314
X59.69Y-110.744
X59.69Y-184.658
X59.944Y-161.798
X60.198Y-131.572
X60.706Y-193.04
X60.96Y-89.916
X60.96Y-151.384
X61.214Y-93.218
X61.214Y-110.998
X61.468Y-131.572
X61.468Y-143.764
X61.468Y-168.656
X61.468Y-171.958
X61.468Y-175.006
X61.595Y-180.594
X62.23Y-110.998
X62.484Y-184.404
X62.738Y-131.572
X62.992Y-104.606
X62.992Y-111.76
X62.992Y-116.84
X62.992Y-118.364
X62.992Y-143.764
X63.246Y-170.18
X63.5Y-89.916
X63.5Y-112.776
X63.5Y-163.83
X63.5Y-191.77
X64.008Y-100.584
X64.008Y-157.48
X64.516Y-193.294
X64.77Y-168.656
X64.77Y-173.99
X65.024Y-114.046
X65.024Y-184.658
X65.278Y-113.03
X65.532Y-143.51
X65.532Y-189.484
X65.786Y-177.8
X66.04Y-89.916
X66.04Y-112.268
X66.04Y-163.83
X66.04Y-180.975
X66.294Y-109.474
X66.294Y-124.46
X66.294Y-125.73
X66.294Y-127.0
X66.294Y-128.27
X66.294Y-129.54
X66.294Y-130.81
X66.294Y-132.842
X66.294Y-149.606
X66.548Y-101.092
X66.548Y-102.108
X66.675Y-184.785
X66.675Y-196.215
X67.31Y-193.04
X67.818Y-168.91
X68.326Y-101.346
X68.58Y-89.916
X68.58Y-196.215
X68.834Y-102.362
X68.834Y-173.482
X68.834Y-174.752
X68.834Y-194.818
X69.342Y-188.976
X69.596Y-103.124
X69.596Y-163.83
X69.85Y-180.975
X70.104Y-103.886
X70.104Y-146.05
X70.104Y-167.64
X70.358Y-172.466
X71.12Y-89.916
X71.12Y-104.14
X71.374Y-177.8
X71.501Y-174.625
X71.882Y-110.998
X72.39Y-114.3
X72.39Y-172.466
X72.644Y-93.98
X72.898Y-167.64
X72.898Y-173.482
X73.152Y-106.426
X73.152Y-108.458
X73.152Y-112.268
X73.66Y-89.916
X73.66Y-107.442
X74.168Y-173.482
X74.168Y-179.07
X74.295Y-181.61
X74.422Y-115.824
X74.422Y-120.142
X74.422Y-142.24
X74.676Y-104.394
X74.93Y-97.536
X74.93Y-165.1
X75.184Y-106.172
X75.438Y-121.412
X75.565Y-112.395
X75.692Y-173.482
X76.2Y-89.916
X76.2Y-127.0
X76.2Y-134.747
X76.454Y-114.3
X76.454Y-115.57
X76.454Y-120.396
X76.454Y-124.46
X76.708Y-178.054
X77.216Y-110.236
X77.47Y-153.924
X77.47Y-165.1
X77.724Y-122.682
X77.724Y-145.542
X77.978Y-119.126
X77.978Y-120.904
X78.105Y-116.84
X78.74Y-89.916
X78.74Y-167.64
X78.994Y-109.474
X79.248Y-104.14
X79.248Y-108.204
X79.375Y-181.61
X79.502Y-141.295
X79.502Y-155.448
X80.01Y-165.1
X80.01Y-170.18
X80.264Y-173.482
X80.645Y-183.515
X80.899Y-142.621
X81.026Y-155.448
X81.026Y-178.054
X81.026Y-194.818
X81.28Y-89.916
X81.28Y-189.865
X81.28Y-196.215
X81.788Y-172.212
X82.042Y-176.784
X82.117Y-135.886
X82.55Y-165.1
X82.804Y-124.714
X82.879Y-135.124
X83.058Y-181.61
X83.185Y-188.595
X83.185Y-196.215
X83.312Y-170.688
X83.312Y-178.308
X83.641Y-135.886
X83.82Y-89.916
X83.82Y-110.49
X83.82Y-122.936
X83.82Y-168.91
X85.09Y-124.841
X85.09Y-150.876
X85.09Y-152.4
X85.09Y-154.94
X85.09Y-165.1
X85.418Y-128.012
X85.725Y-113.665
X85.725Y-115.57
X85.725Y-117.475
X85.725Y-119.38
X85.725Y-121.285
X85.725Y-123.19
X85.799Y-129.155
X85.926Y-130.298
X86.106Y-178.308
X86.36Y-89.916
X86.868Y-106.934
X86.868Y-169.926
X87.63Y-110.236
X88.265Y-172.72
X88.265Y-175.895
X88.9Y-89.916
X88.9Y-110.744
X88.9Y-195.58
X89.408Y-177.8
X89.916Y-110.998
X89.916Y-137.414
X90.17Y-101.6
X90.17Y-103.378
X90.17Y-170.18
X90.678Y-104.394
X90.932Y-110.998
X91.44Y-89.916
X91.44Y-103.124
X91.44Y-112.522
X91.44Y-113.538
X91.44Y-154.94
X91.44Y-157.48
X91.44Y-195.58
X91.694Y-177.292
X92.075Y-167.894
X92.202Y-101.854
X92.71Y-170.18
X92.71Y-180.34
X92.71Y-182.88
X92.71Y-185.42
X92.964Y-100.838
X92.964Y-105.664
X92.964Y-151.638
X93.195Y-99.291
X93.218Y-177.8
X93.281Y-112.776
X93.472Y-93.218
X93.726Y-137.922
X93.726Y-150.876
X93.98Y-89.916
X93.98Y-124.46
X93.98Y-127.0
X93.98Y-134.62
X93.98Y-195.58
X94.234Y-112.776
X94.488Y-143.764
X94.488Y-150.114
X94.551Y-101.603
X95.25Y-112.014
X95.25Y-149.352
X95.504Y-177.292
X95.758Y-102.362
X96.52Y-89.916
X96.52Y-103.886
X96.52Y-122.428
X96.52Y-147.32
X96.52Y-152.4
X96.52Y-157.48
X96.52Y-161.29
X96.52Y-163.83
X96.52Y-166.37
X96.52Y-170.18
X96.52Y-180.34
X96.52Y-182.88
X96.52Y-185.42
X96.52Y-195.58
X97.028Y-177.8
X97.536Y-104.394
X98.298Y-101.6
X98.298Y-139.954
X99.06Y-89.916
X99.06Y-132.08
X99.06Y-195.58
X99.314Y-177.292
X100.33Y-107.188
X100.33Y-170.18
X100.33Y-180.34
X100.33Y-182.88
X100.584Y-143.002
X100.838Y-177.8
X101.092Y-135.89
X101.346Y-137.668
X101.6Y-89.916
X101.6Y-111.506
X101.6Y-113.03
X101.6Y-116.84
X101.6Y-147.32
X101.6Y-152.4
X101.6Y-157.48
X101.6Y-161.29
X101.6Y-163.83
X101.6Y-166.37
X101.6Y-195.58
X103.124Y-141.732
X103.124Y-143.256
X103.124Y-177.292
X103.378Y-105.41
X103.378Y-134.366
X103.378Y-135.89
X103.909Y-110.005
X104.14Y-89.916
X104.14Y-92.964
X104.14Y-98.044
X104.14Y-119.38
X104.14Y-182.88
X104.14Y-185.42
X104.14Y-187.96
X104.14Y-190.5
X104.394Y-94.488
X104.394Y-117.856
X104.394Y-133.096
X104.75Y-109.25
X106.045Y-123.19
X106.25Y-108.5
X106.426Y-96.012
X106.426Y-101.854
X106.426Y-103.124
X106.68Y-89.916
X106.68Y-128.27
X106.68Y-133.096
X106.68Y-147.32
X106.68Y-152.4
X106.68Y-157.48
X106.68Y-161.29
X106.68Y-163.83
X106.68Y-166.37
X106.68Y-170.18
X106.68Y-172.72
X106.68Y-175.26
X106.68Y-177.8
X106.68Y-180.34
X106.68Y-182.88
X106.68Y-190.5
X106.68Y-195.58
X107.696Y-114.046
X107.95Y-93.726
X107.95Y-94.996
X107.95Y-96.774
X107.95Y-133.096
X107.95Y-134.366
X108.204Y-123.19
X108.458Y-152.4
X108.966Y-177.8
X109.22Y-89.916
X109.22Y-190.5
X109.22Y-195.58
X109.855Y-96.266
X110.49Y-103.25
X110.998Y-108.712
X111.506Y-94.742
X111.506Y-106.858
X111.506Y-177.292
X111.76Y-89.916
X111.76Y-112.268
X111.76Y-115.57
X111.76Y-182.88
X111.76Y-185.42
X111.76Y-187.96
X111.76Y-190.5
X112.268Y-108.458
X112.522Y-105.664
X112.522Y-95.25
X113.03Y-118.11
X113.03Y-177.8
X113.538Y-93.726
X113.538Y-107.188
X114.3Y-89.916
X114.3Y-114.3
X114.3Y-115.57
X114.3Y-116.84
X114.3Y-195.58
X114.554Y-95.25
X114.554Y-105.664
X114.554Y-149.606
X114.808Y-139.192
X114.808Y-161.798
X114.808Y-163.068
X115.189Y-142.875
X115.316Y-132.842
X115.316Y-177.292
X115.57Y-94.742
X115.57Y-104.14
X115.57Y-165.1
X115.57Y-167.64
X116.078Y-107.188
X116.078Y-123.952
X116.332Y-137.922
X116.586Y-95.25
X116.586Y-105.41
X116.84Y-152.4
X116.84Y-177.8
X116.84Y-195.58
X117.348Y-90.678
X117.348Y-104.14
X117.348Y-107.188
X117.348Y-138.43
X117.475Y-144.145
X117.856Y-131.064
X118.11Y-110.49
X118.11Y-113.03
X118.11Y-163.83
X118.364Y-155.956
X118.364Y-165.1
X118.364Y-166.37
X118.618Y-130.302
X118.618Y-138.43
X118.872Y-144.145
X118.872Y-158.75
X119.126Y-126.492
X119.126Y-156.972
X119.126Y-177.292
X119.38Y-89.916
X119.38Y-107.95
X119.38Y-195.58
X119.634Y-116.332
X119.634Y-131.572
X119.634Y-163.83
X119.888Y-160.02
X120.523Y-154.051
X120.65Y-105.41
X120.65Y-177.8
X120.904Y-133.35
X121.158Y-117.094
X121.158Y-118.11
X121.158Y-119.126
X121.158Y-120.142
X121.158Y-132.334
X121.158Y-166.37
X121.92Y-89.916
X121.92Y-106.68
X121.92Y-109.22
X121.92Y-111.76
X121.92Y-130.556
X121.92Y-152.4
X121.92Y-182.88
X121.92Y-185.42
X121.92Y-195.58
X122.174Y-154.305
X122.936Y-177.292
X123.19Y-163.068
X123.444Y-99.314
X124.206Y-151.13
X124.46Y-89.916
X124.46Y-177.8
X124.46Y-195.58
X124.968Y-113.284
X127.0Y-89.916
X127.0Y-177.546
X127.953Y-119.378
X128.016Y-166.116
X128.27Y-135.255
X128.524Y-161.798
X128.778Y-121.92
X129.54Y-89.916
X129.54Y-126.746
X129.54Y-137.16
X129.54Y-140.335
X129.54Y-142.494
X129.54Y-154.94
X129.54Y-157.48
X129.54Y-170.18
X129.54Y-172.72
X129.54Y-175.26
X129.54Y-177.8
X129.54Y-180.34
X129.54Y-182.88
X130.048Y-161.036
X130.048Y-166.878
X130.302Y-128.27
X130.556Y-142.494
X131.064Y-130.048
X131.826Y-132.08
X132.08Y-89.916
X132.08Y-152.4
X132.08Y-168.91
X132.08Y-170.815
X132.08Y-172.085
X132.08Y-185.42
X132.08Y-187.96
X132.08Y-190.5
X132.08Y-193.04
X132.08Y-195.58
X132.334Y-100.838
X132.334Y-161.036
X132.334Y-166.878
X133.604Y-162.052
X133.858Y-165.227
X134.112Y-105.156
X134.112Y-132.842
X134.62Y-89.916
X134.62Y-149.86
X134.62Y-167.64
X134.874Y-127.0
X134.874Y-128.27
X134.874Y-129.54
X134.874Y-130.81
X135.128Y-125.73
X135.636Y-106.68
X136.144Y-103.632
X136.398Y-123.19
X136.398Y-124.46
X136.398Y-189.738
X136.652Y-98.552
X136.906Y-101.854
X137.16Y-89.916
X137.16Y-105.156
X137.16Y-107.95
X137.16Y-167.64
X137.414Y-120.65
X137.922Y-98.552
X137.922Y-118.11
X137.922Y-160.02
X138.176Y-110.744
X138.43Y-112.776
X139.7Y-122.428
X139.7Y-160.02
X139.7Y-167.64
X139.954Y-118.11
X139.954Y-131.318
X139.954Y-141.224
X140.208Y-111.252
X140.208Y-107.188
X140.335Y-89.916
X140.462Y-129.286
X140.97Y-106.172
X140.97Y-110.49
X140.97Y-112.776
X140.97Y-114.046
X140.97Y-122.428
X141.478Y-131.572
X141.732Y-107.188
X142.113Y-175.006
X142.24Y-122.428
X142.24Y-124.46
X142.24Y-126.746
X142.24Y-135.636
X142.24Y-144.78
X142.24Y-172.593
X142.24Y-189.738
X142.494Y-106.172
X142.494Y-158.75
X142.875Y-89.916
X142.875Y-167.64
X143.256Y-105.156
X143.51Y-112.268
X143.51Y-131.572
X143.51Y-141.224
X143.764Y-173.736
X144.018Y-106.934
X144.25Y-110.49
X144.526Y-116.84
X144.526Y-122.428
X144.526Y-124.46
X144.526Y-126.746
X144.78Y-117.856
X144.78Y-131.572
X144.78Y-141.224
X144.78Y-144.78
X144.78Y-167.64
X145.25Y-110.5
X145.288Y-160.02
X145.288Y-172.593
X145.415Y-89.916
X145.415Y-154.305
X145.415Y-158.115
X145.415Y-169.545
X145.415Y-175.006
X146.05Y-195.834
X146.304Y-117.856
X146.558Y-122.428
X146.558Y-131.064
X147.066Y-116.586
X147.066Y-124.46
X147.066Y-125.73
X147.066Y-127.0
X147.066Y-160.02
X147.32Y-128.27
X147.32Y-142.24
X147.32Y-182.88
X147.32Y-185.42
X147.32Y-187.96
X147.32Y-196.215
X147.828Y-113.538
X147.955Y-89.916
X147.955Y-154.305
X148.59Y-159.385
X148.59Y-163.195
X150.495Y-89.916
X150.495Y-154.305
X150.495Y-165.1
X150.495Y-167.64
X150.495Y-170.18
X150.495Y-172.72
X152.146Y-132.08
X152.4Y-142.24
X152.908Y-131.572
X153.035Y-89.916
X153.035Y-154.305
X154.178Y-133.858
X155.575Y-89.916
X155.575Y-92.71
X155.575Y-95.25
X155.575Y-97.79
X155.575Y-100.33
X155.575Y-102.87
X155.575Y-105.41
X155.575Y-107.95
X155.575Y-110.49
X155.575Y-113.03
X155.575Y-115.57
X155.575Y-118.11
X155.575Y-120.65
X155.575Y-123.19
X155.575Y-125.73
X155.575Y-128.27
X155.575Y-130.81
X155.575Y-133.35
X155.575Y-135.89
X155.575Y-138.43
X155.575Y-140.97
X155.575Y-143.51
X155.575Y-146.05
X155.575Y-148.59
X155.575Y-151.13
X155.575Y-154.305
T4
X89.0Y-189.32
X91.0Y-189.32
X93.0Y-189.32
X95.0Y-189.32
X97.0Y-189.32
X99.0Y-189.32
X101.0Y-189.32
X114.0Y-189.32
X116.0Y-189.32
X118.0Y-189.32
X120.0Y-189.32
X122.0Y-189.32
X124.0Y-189.32
X126.0Y-189.32
T5
X72.39Y-116.84
X72.39Y-119.38
X72.39Y-121.92
X72.39Y-124.46
X72.39Y-127.0
X72.39Y-129.54
X72.39Y-132.08
X72.39Y-134.62
X72.39Y-137.16
X72.39Y-139.7
X72.39Y-142.24
X72.39Y-144.78
X72.39Y-147.32
X72.39Y-149.86
X72.39Y-152.4
X72.39Y-154.94
X72.39Y-157.48
X72.39Y-160.02
X72.39Y-162.56
X72.39Y-165.1
X87.63Y-116.84
X87.63Y-119.38
X87.63Y-121.92
X87.63Y-124.46
X87.63Y-127.0
X87.63Y-129.54
X87.63Y-132.08
X87.63Y-134.62
X87.63Y-137.16
X87.63Y-139.7
X87.63Y-142.24
X87.63Y-144.78
X87.63Y-147.32
X87.63Y-149.86
X87.63Y-152.4
X87.63Y-154.94
X87.63Y-157.48
X87.63Y-160.02
X87.63Y-162.56
X87.63Y-165.1
X110.49Y-116.84
X110.49Y-119.38
X110.49Y-121.92
X110.49Y-124.46
X110.49Y-127.0
X110.49Y-129.54
X110.49Y-132.08
X110.49Y-134.62
X110.49Y-137.16
X110.49Y-139.7
X110.49Y-142.24
X110.49Y-144.78
X110.49Y-147.32
X110.49Y-149.86
X110.49Y-152.4
X110.49Y-154.94
X110.49Y-157.48
X110.49Y-160.02
X110.49Y-162.56
X110.49Y-165.1
X125.73Y-116.84
X125.73Y-119.38
X125.73Y-121.92
X125.73Y-124.46
X125.73Y-127.0
X125.73Y-129.54
X125.73Y-132.08
X125.73Y-134.62
X125.73Y-137.16
X125.73Y-139.7
X125.73Y-142.24
X125.73Y-144.78
X125.73Y-147.32
X125.73Y-149.86
X125.73Y-152.4
X125.73Y-154.94
X125.73Y-157.48
X125.73Y-160.02
X125.73Y-162.56
X125.73Y-165.1
T2
G00X60.15Y-195.55
M15
G01X60.15Y-196.25
M16
G05
G00X64.85Y-195.55
M15
G01X64.85Y-196.25
M16
G05
T3
G00X135.18Y-190.65
M15
G01X135.18Y-191.35
M16
G05
G00X135.18Y-194.45
M15
G01X135.18Y-195.15
M16
G05
G00X143.82Y-190.65
M15
G01X143.82Y-191.35
M16
G05
G00X143.82Y-194.45
M15
G01X143.82Y-195.15
M16
G05
T0
M30
