G04 #@! TF.GenerationSoftware,KiCad,Pcbnew,(6.0.5)*
G04 #@! TF.CreationDate,2022-06-14T22:04:29-04:00*
G04 #@! TF.ProjectId,ingameNES,696e6761-6d65-44e4-9553-2e6b69636164,1*
G04 #@! TF.SameCoordinates,Original*
G04 #@! TF.FileFunction,Legend,Top*
G04 #@! TF.FilePolarity,Positive*
%FSLAX46Y46*%
G04 Gerber Fmt 4.6, Leading zero omitted, Abs format (unit mm)*
G04 Created by KiCad (PCBNEW (6.0.5)) date 2022-06-14 22:04:29*
%MOMM*%
%LPD*%
G01*
G04 APERTURE LIST*
%ADD10C,0.120000*%
%ADD11C,0.250000*%
%ADD12C,0.200000*%
%ADD13C,0.300000*%
%ADD14C,0.150000*%
G04 APERTURE END LIST*
D10*
X54864000Y-182372000D02*
X54864000Y-202438000D01*
X54864000Y-182500000D02*
X155448000Y-182500000D01*
X151108000Y-181000000D02*
X49000000Y-181000000D01*
D11*
X59428571Y-106471071D02*
X59428571Y-104971071D01*
X59785714Y-104971071D01*
X59999999Y-105042500D01*
X60142857Y-105185357D01*
X60214285Y-105328214D01*
X60285714Y-105613928D01*
X60285714Y-105828214D01*
X60214285Y-106113928D01*
X60142857Y-106256785D01*
X59999999Y-106399642D01*
X59785714Y-106471071D01*
X59428571Y-106471071D01*
X61499999Y-106399642D02*
X61357142Y-106471071D01*
X61071428Y-106471071D01*
X60928571Y-106399642D01*
X60857142Y-106256785D01*
X60857142Y-105685357D01*
X60928571Y-105542500D01*
X61071428Y-105471071D01*
X61357142Y-105471071D01*
X61499999Y-105542500D01*
X61571428Y-105685357D01*
X61571428Y-105828214D01*
X60857142Y-105971071D01*
X62142857Y-106399642D02*
X62285714Y-106471071D01*
X62571428Y-106471071D01*
X62714285Y-106399642D01*
X62785714Y-106256785D01*
X62785714Y-106185357D01*
X62714285Y-106042500D01*
X62571428Y-105971071D01*
X62357142Y-105971071D01*
X62214285Y-105899642D01*
X62142857Y-105756785D01*
X62142857Y-105685357D01*
X62214285Y-105542500D01*
X62357142Y-105471071D01*
X62571428Y-105471071D01*
X62714285Y-105542500D01*
X63428571Y-106471071D02*
X63428571Y-105471071D01*
X63428571Y-104971071D02*
X63357142Y-105042500D01*
X63428571Y-105113928D01*
X63499999Y-105042500D01*
X63428571Y-104971071D01*
X63428571Y-105113928D01*
X64785714Y-105471071D02*
X64785714Y-106685357D01*
X64714285Y-106828214D01*
X64642857Y-106899642D01*
X64500000Y-106971071D01*
X64285714Y-106971071D01*
X64142857Y-106899642D01*
X64785714Y-106399642D02*
X64642857Y-106471071D01*
X64357142Y-106471071D01*
X64214285Y-106399642D01*
X64142857Y-106328214D01*
X64071428Y-106185357D01*
X64071428Y-105756785D01*
X64142857Y-105613928D01*
X64214285Y-105542500D01*
X64357142Y-105471071D01*
X64642857Y-105471071D01*
X64785714Y-105542500D01*
X65500000Y-105471071D02*
X65500000Y-106471071D01*
X65500000Y-105613928D02*
X65571428Y-105542500D01*
X65714285Y-105471071D01*
X65928571Y-105471071D01*
X66071428Y-105542500D01*
X66142857Y-105685357D01*
X66142857Y-106471071D01*
X67428571Y-106399642D02*
X67285714Y-106471071D01*
X67000000Y-106471071D01*
X66857142Y-106399642D01*
X66785714Y-106256785D01*
X66785714Y-105685357D01*
X66857142Y-105542500D01*
X67000000Y-105471071D01*
X67285714Y-105471071D01*
X67428571Y-105542500D01*
X67500000Y-105685357D01*
X67500000Y-105828214D01*
X66785714Y-105971071D01*
X68785714Y-106471071D02*
X68785714Y-104971071D01*
X68785714Y-106399642D02*
X68642857Y-106471071D01*
X68357142Y-106471071D01*
X68214285Y-106399642D01*
X68142857Y-106328214D01*
X68071428Y-106185357D01*
X68071428Y-105756785D01*
X68142857Y-105613928D01*
X68214285Y-105542500D01*
X68357142Y-105471071D01*
X68642857Y-105471071D01*
X68785714Y-105542500D01*
X70642857Y-106471071D02*
X70642857Y-104971071D01*
X70642857Y-105542500D02*
X70785714Y-105471071D01*
X71071428Y-105471071D01*
X71214285Y-105542500D01*
X71285714Y-105613928D01*
X71357142Y-105756785D01*
X71357142Y-106185357D01*
X71285714Y-106328214D01*
X71214285Y-106399642D01*
X71071428Y-106471071D01*
X70785714Y-106471071D01*
X70642857Y-106399642D01*
X71857142Y-105471071D02*
X72214285Y-106471071D01*
X72571428Y-105471071D02*
X72214285Y-106471071D01*
X72071428Y-106828214D01*
X72000000Y-106899642D01*
X71857142Y-106971071D01*
X57571428Y-108886071D02*
X56857142Y-108886071D01*
X56857142Y-107386071D01*
X58714285Y-108886071D02*
X58714285Y-108100357D01*
X58642857Y-107957500D01*
X58500000Y-107886071D01*
X58214285Y-107886071D01*
X58071428Y-107957500D01*
X58714285Y-108814642D02*
X58571428Y-108886071D01*
X58214285Y-108886071D01*
X58071428Y-108814642D01*
X58000000Y-108671785D01*
X58000000Y-108528928D01*
X58071428Y-108386071D01*
X58214285Y-108314642D01*
X58571428Y-108314642D01*
X58714285Y-108243214D01*
X59214285Y-107886071D02*
X59785714Y-107886071D01*
X59428571Y-107386071D02*
X59428571Y-108671785D01*
X59500000Y-108814642D01*
X59642857Y-108886071D01*
X59785714Y-108886071D01*
X60857142Y-108814642D02*
X60714285Y-108886071D01*
X60428571Y-108886071D01*
X60285714Y-108814642D01*
X60214285Y-108671785D01*
X60214285Y-108100357D01*
X60285714Y-107957500D01*
X60428571Y-107886071D01*
X60714285Y-107886071D01*
X60857142Y-107957500D01*
X60928571Y-108100357D01*
X60928571Y-108243214D01*
X60214285Y-108386071D01*
X62500000Y-107886071D02*
X63071428Y-107886071D01*
X62714285Y-107386071D02*
X62714285Y-108671785D01*
X62785714Y-108814642D01*
X62928571Y-108886071D01*
X63071428Y-108886071D01*
X63785714Y-108886071D02*
X63642857Y-108814642D01*
X63571428Y-108743214D01*
X63500000Y-108600357D01*
X63500000Y-108171785D01*
X63571428Y-108028928D01*
X63642857Y-107957500D01*
X63785714Y-107886071D01*
X64000000Y-107886071D01*
X64142857Y-107957500D01*
X64214285Y-108028928D01*
X64285714Y-108171785D01*
X64285714Y-108600357D01*
X64214285Y-108743214D01*
X64142857Y-108814642D01*
X64000000Y-108886071D01*
X63785714Y-108886071D01*
X65857142Y-107886071D02*
X66428571Y-107886071D01*
X66071428Y-107386071D02*
X66071428Y-108671785D01*
X66142857Y-108814642D01*
X66285714Y-108886071D01*
X66428571Y-108886071D01*
X66928571Y-108886071D02*
X66928571Y-107386071D01*
X67571428Y-108886071D02*
X67571428Y-108100357D01*
X67500000Y-107957500D01*
X67357142Y-107886071D01*
X67142857Y-107886071D01*
X67000000Y-107957500D01*
X66928571Y-108028928D01*
X68857142Y-108814642D02*
X68714285Y-108886071D01*
X68428571Y-108886071D01*
X68285714Y-108814642D01*
X68214285Y-108671785D01*
X68214285Y-108100357D01*
X68285714Y-107957500D01*
X68428571Y-107886071D01*
X68714285Y-107886071D01*
X68857142Y-107957500D01*
X68928571Y-108100357D01*
X68928571Y-108243214D01*
X68214285Y-108386071D01*
X71500000Y-107457500D02*
X71357142Y-107386071D01*
X71142857Y-107386071D01*
X70928571Y-107457500D01*
X70785714Y-107600357D01*
X70714285Y-107743214D01*
X70642857Y-108028928D01*
X70642857Y-108243214D01*
X70714285Y-108528928D01*
X70785714Y-108671785D01*
X70928571Y-108814642D01*
X71142857Y-108886071D01*
X71285714Y-108886071D01*
X71500000Y-108814642D01*
X71571428Y-108743214D01*
X71571428Y-108243214D01*
X71285714Y-108243214D01*
X72857142Y-108886071D02*
X72857142Y-108100357D01*
X72785714Y-107957500D01*
X72642857Y-107886071D01*
X72357142Y-107886071D01*
X72214285Y-107957500D01*
X72857142Y-108814642D02*
X72714285Y-108886071D01*
X72357142Y-108886071D01*
X72214285Y-108814642D01*
X72142857Y-108671785D01*
X72142857Y-108528928D01*
X72214285Y-108386071D01*
X72357142Y-108314642D01*
X72714285Y-108314642D01*
X72857142Y-108243214D01*
X73571428Y-108886071D02*
X73571428Y-107886071D01*
X73571428Y-108028928D02*
X73642857Y-107957500D01*
X73785714Y-107886071D01*
X74000000Y-107886071D01*
X74142857Y-107957500D01*
X74214285Y-108100357D01*
X74214285Y-108886071D01*
X74214285Y-108100357D02*
X74285714Y-107957500D01*
X74428571Y-107886071D01*
X74642857Y-107886071D01*
X74785714Y-107957500D01*
X74857142Y-108100357D01*
X74857142Y-108886071D01*
X76142857Y-108814642D02*
X76000000Y-108886071D01*
X75714285Y-108886071D01*
X75571428Y-108814642D01*
X75500000Y-108671785D01*
X75500000Y-108100357D01*
X75571428Y-107957500D01*
X75714285Y-107886071D01*
X76000000Y-107886071D01*
X76142857Y-107957500D01*
X76214285Y-108100357D01*
X76214285Y-108243214D01*
X75500000Y-108386071D01*
X88618571Y-110406571D02*
X88618571Y-108906571D01*
X89118571Y-109978000D01*
X89618571Y-108906571D01*
X89618571Y-110406571D01*
X90332857Y-110406571D02*
X90332857Y-108906571D01*
X90832857Y-109978000D01*
X91332857Y-108906571D01*
X91332857Y-110406571D01*
X92904285Y-110263714D02*
X92832857Y-110335142D01*
X92618571Y-110406571D01*
X92475714Y-110406571D01*
X92261428Y-110335142D01*
X92118571Y-110192285D01*
X92047142Y-110049428D01*
X91975714Y-109763714D01*
X91975714Y-109549428D01*
X92047142Y-109263714D01*
X92118571Y-109120857D01*
X92261428Y-108978000D01*
X92475714Y-108906571D01*
X92618571Y-108906571D01*
X92832857Y-108978000D01*
X92904285Y-109049428D01*
X93404285Y-108906571D02*
X94332857Y-108906571D01*
X93832857Y-109478000D01*
X94047142Y-109478000D01*
X94190000Y-109549428D01*
X94261428Y-109620857D01*
X94332857Y-109763714D01*
X94332857Y-110120857D01*
X94261428Y-110263714D01*
X94190000Y-110335142D01*
X94047142Y-110406571D01*
X93618571Y-110406571D01*
X93475714Y-110335142D01*
X93404285Y-110263714D01*
X138652857Y-139362571D02*
X138652857Y-137862571D01*
X139224285Y-137862571D01*
X139367142Y-137934000D01*
X139438571Y-138005428D01*
X139510000Y-138148285D01*
X139510000Y-138362571D01*
X139438571Y-138505428D01*
X139367142Y-138576857D01*
X139224285Y-138648285D01*
X138652857Y-138648285D01*
X141010000Y-139362571D02*
X140510000Y-138648285D01*
X140152857Y-139362571D02*
X140152857Y-137862571D01*
X140724285Y-137862571D01*
X140867142Y-137934000D01*
X140938571Y-138005428D01*
X141010000Y-138148285D01*
X141010000Y-138362571D01*
X140938571Y-138505428D01*
X140867142Y-138576857D01*
X140724285Y-138648285D01*
X140152857Y-138648285D01*
X142438571Y-137934000D02*
X142295714Y-137862571D01*
X142081428Y-137862571D01*
X141867142Y-137934000D01*
X141724285Y-138076857D01*
X141652857Y-138219714D01*
X141581428Y-138505428D01*
X141581428Y-138719714D01*
X141652857Y-139005428D01*
X141724285Y-139148285D01*
X141867142Y-139291142D01*
X142081428Y-139362571D01*
X142224285Y-139362571D01*
X142438571Y-139291142D01*
X142510000Y-139219714D01*
X142510000Y-138719714D01*
X142224285Y-138719714D01*
X145152857Y-139362571D02*
X144652857Y-138648285D01*
X144295714Y-139362571D02*
X144295714Y-137862571D01*
X144867142Y-137862571D01*
X145010000Y-137934000D01*
X145081428Y-138005428D01*
X145152857Y-138148285D01*
X145152857Y-138362571D01*
X145081428Y-138505428D01*
X145010000Y-138576857D01*
X144867142Y-138648285D01*
X144295714Y-138648285D01*
X146081428Y-137862571D02*
X146367142Y-137862571D01*
X146510000Y-137934000D01*
X146652857Y-138076857D01*
X146724285Y-138362571D01*
X146724285Y-138862571D01*
X146652857Y-139148285D01*
X146510000Y-139291142D01*
X146367142Y-139362571D01*
X146081428Y-139362571D01*
X145938571Y-139291142D01*
X145795714Y-139148285D01*
X145724285Y-138862571D01*
X145724285Y-138362571D01*
X145795714Y-138076857D01*
X145938571Y-137934000D01*
X146081428Y-137862571D01*
X147367142Y-139362571D02*
X147367142Y-137862571D01*
X147867142Y-138934000D01*
X148367142Y-137862571D01*
X148367142Y-139362571D01*
X55400285Y-139219714D02*
X55328857Y-139291142D01*
X55114571Y-139362571D01*
X54971714Y-139362571D01*
X54757428Y-139291142D01*
X54614571Y-139148285D01*
X54543142Y-139005428D01*
X54471714Y-138719714D01*
X54471714Y-138505428D01*
X54543142Y-138219714D01*
X54614571Y-138076857D01*
X54757428Y-137934000D01*
X54971714Y-137862571D01*
X55114571Y-137862571D01*
X55328857Y-137934000D01*
X55400285Y-138005428D01*
X56043142Y-139362571D02*
X56043142Y-137862571D01*
X56043142Y-138576857D02*
X56900285Y-138576857D01*
X56900285Y-139362571D02*
X56900285Y-137862571D01*
X58471714Y-139362571D02*
X57971714Y-138648285D01*
X57614571Y-139362571D02*
X57614571Y-137862571D01*
X58186000Y-137862571D01*
X58328857Y-137934000D01*
X58400285Y-138005428D01*
X58471714Y-138148285D01*
X58471714Y-138362571D01*
X58400285Y-138505428D01*
X58328857Y-138576857D01*
X58186000Y-138648285D01*
X57614571Y-138648285D01*
X61114571Y-139362571D02*
X60614571Y-138648285D01*
X60257428Y-139362571D02*
X60257428Y-137862571D01*
X60828857Y-137862571D01*
X60971714Y-137934000D01*
X61043142Y-138005428D01*
X61114571Y-138148285D01*
X61114571Y-138362571D01*
X61043142Y-138505428D01*
X60971714Y-138576857D01*
X60828857Y-138648285D01*
X60257428Y-138648285D01*
X62043142Y-137862571D02*
X62328857Y-137862571D01*
X62471714Y-137934000D01*
X62614571Y-138076857D01*
X62686000Y-138362571D01*
X62686000Y-138862571D01*
X62614571Y-139148285D01*
X62471714Y-139291142D01*
X62328857Y-139362571D01*
X62043142Y-139362571D01*
X61900285Y-139291142D01*
X61757428Y-139148285D01*
X61686000Y-138862571D01*
X61686000Y-138362571D01*
X61757428Y-138076857D01*
X61900285Y-137934000D01*
X62043142Y-137862571D01*
X63328857Y-139362571D02*
X63328857Y-137862571D01*
X63828857Y-138934000D01*
X64328857Y-137862571D01*
X64328857Y-139362571D01*
X75990000Y-136592571D02*
X76490000Y-138092571D01*
X76990000Y-136592571D01*
X78347142Y-138092571D02*
X77847142Y-137378285D01*
X77490000Y-138092571D02*
X77490000Y-136592571D01*
X78061428Y-136592571D01*
X78204285Y-136664000D01*
X78275714Y-136735428D01*
X78347142Y-136878285D01*
X78347142Y-137092571D01*
X78275714Y-137235428D01*
X78204285Y-137306857D01*
X78061428Y-137378285D01*
X77490000Y-137378285D01*
X78918571Y-137664000D02*
X79632857Y-137664000D01*
X78775714Y-138092571D02*
X79275714Y-136592571D01*
X79775714Y-138092571D01*
X80275714Y-138092571D02*
X80275714Y-136592571D01*
X80775714Y-137664000D01*
X81275714Y-136592571D01*
X81275714Y-138092571D01*
X115725142Y-124654571D02*
X116082285Y-126154571D01*
X116368000Y-125083142D01*
X116653714Y-126154571D01*
X117010857Y-124654571D01*
X118439428Y-126154571D02*
X117939428Y-125440285D01*
X117582285Y-126154571D02*
X117582285Y-124654571D01*
X118153714Y-124654571D01*
X118296571Y-124726000D01*
X118368000Y-124797428D01*
X118439428Y-124940285D01*
X118439428Y-125154571D01*
X118368000Y-125297428D01*
X118296571Y-125368857D01*
X118153714Y-125440285D01*
X117582285Y-125440285D01*
X119010857Y-125726000D02*
X119725142Y-125726000D01*
X118868000Y-126154571D02*
X119368000Y-124654571D01*
X119868000Y-126154571D01*
X120368000Y-126154571D02*
X120368000Y-124654571D01*
X120868000Y-125726000D01*
X121368000Y-124654571D01*
X121368000Y-126154571D01*
D12*
X104662380Y-106370380D02*
X104662380Y-105370380D01*
X104995714Y-106084666D01*
X105329047Y-105370380D01*
X105329047Y-106370380D01*
X105805238Y-106370380D02*
X105805238Y-105370380D01*
X106138571Y-106084666D01*
X106471904Y-105370380D01*
X106471904Y-106370380D01*
X107519523Y-106275142D02*
X107471904Y-106322761D01*
X107329047Y-106370380D01*
X107233809Y-106370380D01*
X107090952Y-106322761D01*
X106995714Y-106227523D01*
X106948095Y-106132285D01*
X106900476Y-105941809D01*
X106900476Y-105798952D01*
X106948095Y-105608476D01*
X106995714Y-105513238D01*
X107090952Y-105418000D01*
X107233809Y-105370380D01*
X107329047Y-105370380D01*
X107471904Y-105418000D01*
X107519523Y-105465619D01*
X107852857Y-105370380D02*
X108471904Y-105370380D01*
X108138571Y-105751333D01*
X108281428Y-105751333D01*
X108376666Y-105798952D01*
X108424285Y-105846571D01*
X108471904Y-105941809D01*
X108471904Y-106179904D01*
X108424285Y-106275142D01*
X108376666Y-106322761D01*
X108281428Y-106370380D01*
X107995714Y-106370380D01*
X107900476Y-106322761D01*
X107852857Y-106275142D01*
X109567142Y-105370380D02*
X109805238Y-106370380D01*
X109995714Y-105656095D01*
X110186190Y-106370380D01*
X110424285Y-105370380D01*
X111376666Y-106370380D02*
X111043333Y-105894190D01*
X110805238Y-106370380D02*
X110805238Y-105370380D01*
X111186190Y-105370380D01*
X111281428Y-105418000D01*
X111329047Y-105465619D01*
X111376666Y-105560857D01*
X111376666Y-105703714D01*
X111329047Y-105798952D01*
X111281428Y-105846571D01*
X111186190Y-105894190D01*
X110805238Y-105894190D01*
X111757619Y-106084666D02*
X112233809Y-106084666D01*
X111662380Y-106370380D02*
X111995714Y-105370380D01*
X112329047Y-106370380D01*
X112662380Y-106370380D02*
X112662380Y-105370380D01*
X112995714Y-106084666D01*
X113329047Y-105370380D01*
X113329047Y-106370380D01*
X113805238Y-105989428D02*
X114567142Y-105989428D01*
X114805238Y-105088000D02*
X115805238Y-105088000D01*
X115614761Y-106275142D02*
X115567142Y-106322761D01*
X115424285Y-106370380D01*
X115329047Y-106370380D01*
X115186190Y-106322761D01*
X115090952Y-106227523D01*
X115043333Y-106132285D01*
X114995714Y-105941809D01*
X114995714Y-105798952D01*
X115043333Y-105608476D01*
X115090952Y-105513238D01*
X115186190Y-105418000D01*
X115329047Y-105370380D01*
X115424285Y-105370380D01*
X115567142Y-105418000D01*
X115614761Y-105465619D01*
X115805238Y-105088000D02*
X116710000Y-105088000D01*
X116043333Y-105846571D02*
X116376666Y-105846571D01*
X116519523Y-106370380D02*
X116043333Y-106370380D01*
X116043333Y-105370380D01*
X116519523Y-105370380D01*
D11*
X122944571Y-94912571D02*
X122944571Y-93412571D01*
X123516000Y-93412571D01*
X123658857Y-93484000D01*
X123730285Y-93555428D01*
X123801714Y-93698285D01*
X123801714Y-93912571D01*
X123730285Y-94055428D01*
X123658857Y-94126857D01*
X123516000Y-94198285D01*
X122944571Y-94198285D01*
X125301714Y-94912571D02*
X124801714Y-94198285D01*
X124444571Y-94912571D02*
X124444571Y-93412571D01*
X125016000Y-93412571D01*
X125158857Y-93484000D01*
X125230285Y-93555428D01*
X125301714Y-93698285D01*
X125301714Y-93912571D01*
X125230285Y-94055428D01*
X125158857Y-94126857D01*
X125016000Y-94198285D01*
X124444571Y-94198285D01*
X126730285Y-93484000D02*
X126587428Y-93412571D01*
X126373142Y-93412571D01*
X126158857Y-93484000D01*
X126016000Y-93626857D01*
X125944571Y-93769714D01*
X125873142Y-94055428D01*
X125873142Y-94269714D01*
X125944571Y-94555428D01*
X126016000Y-94698285D01*
X126158857Y-94841142D01*
X126373142Y-94912571D01*
X126516000Y-94912571D01*
X126730285Y-94841142D01*
X126801714Y-94769714D01*
X126801714Y-94269714D01*
X126516000Y-94269714D01*
X127444571Y-94341142D02*
X128587428Y-94341142D01*
X130158857Y-94912571D02*
X129658857Y-94198285D01*
X129301714Y-94912571D02*
X129301714Y-93412571D01*
X129873142Y-93412571D01*
X130016000Y-93484000D01*
X130087428Y-93555428D01*
X130158857Y-93698285D01*
X130158857Y-93912571D01*
X130087428Y-94055428D01*
X130016000Y-94126857D01*
X129873142Y-94198285D01*
X129301714Y-94198285D01*
X130730285Y-94484000D02*
X131444571Y-94484000D01*
X130587428Y-94912571D02*
X131087428Y-93412571D01*
X131587428Y-94912571D01*
X132087428Y-94912571D02*
X132087428Y-93412571D01*
X132587428Y-94484000D01*
X133087428Y-93412571D01*
X133087428Y-94912571D01*
D12*
X99123809Y-117730380D02*
X99790476Y-117730380D01*
X99361904Y-118730380D01*
X100600000Y-118063714D02*
X100600000Y-118730380D01*
X100361904Y-117682761D02*
X100123809Y-118397047D01*
X100742857Y-118397047D01*
X101171428Y-117730380D02*
X101076190Y-117920857D01*
X102123809Y-118730380D02*
X101552380Y-118730380D01*
X101838095Y-118730380D02*
X101838095Y-117730380D01*
X101742857Y-117873238D01*
X101647619Y-117968476D01*
X101552380Y-118016095D01*
X102457142Y-117730380D02*
X103076190Y-117730380D01*
X102742857Y-118111333D01*
X102885714Y-118111333D01*
X102980952Y-118158952D01*
X103028571Y-118206571D01*
X103076190Y-118301809D01*
X103076190Y-118539904D01*
X103028571Y-118635142D01*
X102980952Y-118682761D01*
X102885714Y-118730380D01*
X102600000Y-118730380D01*
X102504761Y-118682761D01*
X102457142Y-118635142D01*
X103552380Y-118730380D02*
X103742857Y-118730380D01*
X103838095Y-118682761D01*
X103885714Y-118635142D01*
X103980952Y-118492285D01*
X104028571Y-118301809D01*
X104028571Y-117920857D01*
X103980952Y-117825619D01*
X103933333Y-117778000D01*
X103838095Y-117730380D01*
X103647619Y-117730380D01*
X103552380Y-117778000D01*
X103504761Y-117825619D01*
X103457142Y-117920857D01*
X103457142Y-118158952D01*
X103504761Y-118254190D01*
X103552380Y-118301809D01*
X103647619Y-118349428D01*
X103838095Y-118349428D01*
X103933333Y-118301809D01*
X103980952Y-118254190D01*
X104028571Y-118158952D01*
X99409523Y-120292761D02*
X99552380Y-120340380D01*
X99790476Y-120340380D01*
X99885714Y-120292761D01*
X99933333Y-120245142D01*
X99980952Y-120149904D01*
X99980952Y-120054666D01*
X99933333Y-119959428D01*
X99885714Y-119911809D01*
X99790476Y-119864190D01*
X99600000Y-119816571D01*
X99504761Y-119768952D01*
X99457142Y-119721333D01*
X99409523Y-119626095D01*
X99409523Y-119530857D01*
X99457142Y-119435619D01*
X99504761Y-119388000D01*
X99600000Y-119340380D01*
X99838095Y-119340380D01*
X99980952Y-119388000D01*
X99695238Y-119197523D02*
X99695238Y-120483238D01*
X100838095Y-119340380D02*
X100647619Y-119340380D01*
X100552380Y-119388000D01*
X100504761Y-119435619D01*
X100409523Y-119578476D01*
X100361904Y-119768952D01*
X100361904Y-120149904D01*
X100409523Y-120245142D01*
X100457142Y-120292761D01*
X100552380Y-120340380D01*
X100742857Y-120340380D01*
X100838095Y-120292761D01*
X100885714Y-120245142D01*
X100933333Y-120149904D01*
X100933333Y-119911809D01*
X100885714Y-119816571D01*
X100838095Y-119768952D01*
X100742857Y-119721333D01*
X100552380Y-119721333D01*
X100457142Y-119768952D01*
X100409523Y-119816571D01*
X100361904Y-119911809D01*
X101552380Y-119340380D02*
X101647619Y-119340380D01*
X101742857Y-119388000D01*
X101790476Y-119435619D01*
X101838095Y-119530857D01*
X101885714Y-119721333D01*
X101885714Y-119959428D01*
X101838095Y-120149904D01*
X101790476Y-120245142D01*
X101742857Y-120292761D01*
X101647619Y-120340380D01*
X101552380Y-120340380D01*
X101457142Y-120292761D01*
X101409523Y-120245142D01*
X101361904Y-120149904D01*
X101314285Y-119959428D01*
X101314285Y-119721333D01*
X101361904Y-119530857D01*
X101409523Y-119435619D01*
X101457142Y-119388000D01*
X101552380Y-119340380D01*
X102504761Y-119340380D02*
X102600000Y-119340380D01*
X102695238Y-119388000D01*
X102742857Y-119435619D01*
X102790476Y-119530857D01*
X102838095Y-119721333D01*
X102838095Y-119959428D01*
X102790476Y-120149904D01*
X102742857Y-120245142D01*
X102695238Y-120292761D01*
X102600000Y-120340380D01*
X102504761Y-120340380D01*
X102409523Y-120292761D01*
X102361904Y-120245142D01*
X102314285Y-120149904D01*
X102266666Y-119959428D01*
X102266666Y-119721333D01*
X102314285Y-119530857D01*
X102361904Y-119435619D01*
X102409523Y-119388000D01*
X102504761Y-119340380D01*
X103457142Y-119340380D02*
X103552380Y-119340380D01*
X103647619Y-119388000D01*
X103695238Y-119435619D01*
X103742857Y-119530857D01*
X103790476Y-119721333D01*
X103790476Y-119959428D01*
X103742857Y-120149904D01*
X103695238Y-120245142D01*
X103647619Y-120292761D01*
X103552380Y-120340380D01*
X103457142Y-120340380D01*
X103361904Y-120292761D01*
X103314285Y-120245142D01*
X103266666Y-120149904D01*
X103219047Y-119959428D01*
X103219047Y-119721333D01*
X103266666Y-119530857D01*
X103314285Y-119435619D01*
X103361904Y-119388000D01*
X103457142Y-119340380D01*
X99552380Y-121902761D02*
X99695238Y-121950380D01*
X99933333Y-121950380D01*
X100028571Y-121902761D01*
X100076190Y-121855142D01*
X100123809Y-121759904D01*
X100123809Y-121664666D01*
X100076190Y-121569428D01*
X100028571Y-121521809D01*
X99933333Y-121474190D01*
X99742857Y-121426571D01*
X99647619Y-121378952D01*
X99600000Y-121331333D01*
X99552380Y-121236095D01*
X99552380Y-121140857D01*
X99600000Y-121045619D01*
X99647619Y-120998000D01*
X99742857Y-120950380D01*
X99980952Y-120950380D01*
X100123809Y-120998000D01*
X99838095Y-120807523D02*
X99838095Y-122093238D01*
X100457142Y-120950380D02*
X101123809Y-120950380D01*
X100695238Y-121950380D01*
X101838095Y-121426571D02*
X101504761Y-121426571D01*
X101504761Y-121950380D02*
X101504761Y-120950380D01*
X101980952Y-120950380D01*
X102695238Y-121426571D02*
X102361904Y-121426571D01*
X102361904Y-121950380D02*
X102361904Y-120950380D01*
X102838095Y-120950380D01*
X103552380Y-121426571D02*
X103219047Y-121426571D01*
X103219047Y-121950380D02*
X103219047Y-120950380D01*
X103695238Y-120950380D01*
X138798095Y-97480380D02*
X138798095Y-96480380D01*
X139131428Y-97194666D01*
X139464761Y-96480380D01*
X139464761Y-97480380D01*
X139940952Y-97480380D02*
X139940952Y-96480380D01*
X140274285Y-97194666D01*
X140607619Y-96480380D01*
X140607619Y-97480380D01*
X141655238Y-97385142D02*
X141607619Y-97432761D01*
X141464761Y-97480380D01*
X141369523Y-97480380D01*
X141226666Y-97432761D01*
X141131428Y-97337523D01*
X141083809Y-97242285D01*
X141036190Y-97051809D01*
X141036190Y-96908952D01*
X141083809Y-96718476D01*
X141131428Y-96623238D01*
X141226666Y-96528000D01*
X141369523Y-96480380D01*
X141464761Y-96480380D01*
X141607619Y-96528000D01*
X141655238Y-96575619D01*
X141988571Y-96480380D02*
X142607619Y-96480380D01*
X142274285Y-96861333D01*
X142417142Y-96861333D01*
X142512380Y-96908952D01*
X142560000Y-96956571D01*
X142607619Y-97051809D01*
X142607619Y-97289904D01*
X142560000Y-97385142D01*
X142512380Y-97432761D01*
X142417142Y-97480380D01*
X142131428Y-97480380D01*
X142036190Y-97432761D01*
X141988571Y-97385142D01*
X143702857Y-96480380D02*
X143940952Y-97480380D01*
X144131428Y-96766095D01*
X144321904Y-97480380D01*
X144560000Y-96480380D01*
X145512380Y-97480380D02*
X145179047Y-97004190D01*
X144940952Y-97480380D02*
X144940952Y-96480380D01*
X145321904Y-96480380D01*
X145417142Y-96528000D01*
X145464761Y-96575619D01*
X145512380Y-96670857D01*
X145512380Y-96813714D01*
X145464761Y-96908952D01*
X145417142Y-96956571D01*
X145321904Y-97004190D01*
X144940952Y-97004190D01*
X145893333Y-97194666D02*
X146369523Y-97194666D01*
X145798095Y-97480380D02*
X146131428Y-96480380D01*
X146464761Y-97480380D01*
X146798095Y-97480380D02*
X146798095Y-96480380D01*
X147131428Y-97194666D01*
X147464761Y-96480380D01*
X147464761Y-97480380D01*
X147940952Y-97099428D02*
X148702857Y-97099428D01*
X149750476Y-97385142D02*
X149702857Y-97432761D01*
X149560000Y-97480380D01*
X149464761Y-97480380D01*
X149321904Y-97432761D01*
X149226666Y-97337523D01*
X149179047Y-97242285D01*
X149131428Y-97051809D01*
X149131428Y-96908952D01*
X149179047Y-96718476D01*
X149226666Y-96623238D01*
X149321904Y-96528000D01*
X149464761Y-96480380D01*
X149560000Y-96480380D01*
X149702857Y-96528000D01*
X149750476Y-96575619D01*
X150179047Y-96956571D02*
X150512380Y-96956571D01*
X150655238Y-97480380D02*
X150179047Y-97480380D01*
X150179047Y-96480380D01*
X150655238Y-96480380D01*
X151083809Y-97099428D02*
X151845714Y-97099428D01*
X151464761Y-97480380D02*
X151464761Y-96718476D01*
D13*
X58107142Y-96544761D02*
X58107142Y-94544761D01*
X59059523Y-95211428D02*
X59059523Y-96544761D01*
X59059523Y-95401904D02*
X59154761Y-95306666D01*
X59345238Y-95211428D01*
X59630952Y-95211428D01*
X59821428Y-95306666D01*
X59916666Y-95497142D01*
X59916666Y-96544761D01*
X61916666Y-94640000D02*
X61726190Y-94544761D01*
X61440476Y-94544761D01*
X61154761Y-94640000D01*
X60964285Y-94830476D01*
X60869047Y-95020952D01*
X60773809Y-95401904D01*
X60773809Y-95687619D01*
X60869047Y-96068571D01*
X60964285Y-96259047D01*
X61154761Y-96449523D01*
X61440476Y-96544761D01*
X61630952Y-96544761D01*
X61916666Y-96449523D01*
X62011904Y-96354285D01*
X62011904Y-95687619D01*
X61630952Y-95687619D01*
X63726190Y-96544761D02*
X63726190Y-95497142D01*
X63630952Y-95306666D01*
X63440476Y-95211428D01*
X63059523Y-95211428D01*
X62869047Y-95306666D01*
X63726190Y-96449523D02*
X63535714Y-96544761D01*
X63059523Y-96544761D01*
X62869047Y-96449523D01*
X62773809Y-96259047D01*
X62773809Y-96068571D01*
X62869047Y-95878095D01*
X63059523Y-95782857D01*
X63535714Y-95782857D01*
X63726190Y-95687619D01*
X64678571Y-96544761D02*
X64678571Y-95211428D01*
X64678571Y-95401904D02*
X64773809Y-95306666D01*
X64964285Y-95211428D01*
X65250000Y-95211428D01*
X65440476Y-95306666D01*
X65535714Y-95497142D01*
X65535714Y-96544761D01*
X65535714Y-95497142D02*
X65630952Y-95306666D01*
X65821428Y-95211428D01*
X66107142Y-95211428D01*
X66297619Y-95306666D01*
X66392857Y-95497142D01*
X66392857Y-96544761D01*
X68107142Y-96449523D02*
X67916666Y-96544761D01*
X67535714Y-96544761D01*
X67345238Y-96449523D01*
X67250000Y-96259047D01*
X67250000Y-95497142D01*
X67345238Y-95306666D01*
X67535714Y-95211428D01*
X67916666Y-95211428D01*
X68107142Y-95306666D01*
X68202380Y-95497142D01*
X68202380Y-95687619D01*
X67250000Y-95878095D01*
X69059523Y-95782857D02*
X70583333Y-95782857D01*
X71535714Y-96544761D02*
X71535714Y-94544761D01*
X72678571Y-96544761D01*
X72678571Y-94544761D01*
X73630952Y-95497142D02*
X74297619Y-95497142D01*
X74583333Y-96544761D02*
X73630952Y-96544761D01*
X73630952Y-94544761D01*
X74583333Y-94544761D01*
X75345238Y-96449523D02*
X75630952Y-96544761D01*
X76107142Y-96544761D01*
X76297619Y-96449523D01*
X76392857Y-96354285D01*
X76488095Y-96163809D01*
X76488095Y-95973333D01*
X76392857Y-95782857D01*
X76297619Y-95687619D01*
X76107142Y-95592380D01*
X75726190Y-95497142D01*
X75535714Y-95401904D01*
X75440476Y-95306666D01*
X75345238Y-95116190D01*
X75345238Y-94925714D01*
X75440476Y-94735238D01*
X75535714Y-94640000D01*
X75726190Y-94544761D01*
X76202380Y-94544761D01*
X76488095Y-94640000D01*
X63488095Y-99764761D02*
X63488095Y-97764761D01*
X64154761Y-99193333D01*
X64821428Y-97764761D01*
X64821428Y-99764761D01*
X65773809Y-99764761D02*
X65773809Y-97764761D01*
X66440476Y-99193333D01*
X67107142Y-97764761D01*
X67107142Y-99764761D01*
X69202380Y-99574285D02*
X69107142Y-99669523D01*
X68821428Y-99764761D01*
X68630952Y-99764761D01*
X68345238Y-99669523D01*
X68154761Y-99479047D01*
X68059523Y-99288571D01*
X67964285Y-98907619D01*
X67964285Y-98621904D01*
X68059523Y-98240952D01*
X68154761Y-98050476D01*
X68345238Y-97860000D01*
X68630952Y-97764761D01*
X68821428Y-97764761D01*
X69107142Y-97860000D01*
X69202380Y-97955238D01*
X69869047Y-97764761D02*
X71107142Y-97764761D01*
X70440476Y-98526666D01*
X70726190Y-98526666D01*
X70916666Y-98621904D01*
X71011904Y-98717142D01*
X71107142Y-98907619D01*
X71107142Y-99383809D01*
X71011904Y-99574285D01*
X70916666Y-99669523D01*
X70726190Y-99764761D01*
X70154761Y-99764761D01*
X69964285Y-99669523D01*
X69869047Y-99574285D01*
D12*
X149642857Y-153452380D02*
X149309523Y-152976190D01*
X149071428Y-153452380D02*
X149071428Y-152452380D01*
X149452380Y-152452380D01*
X149547619Y-152500000D01*
X149595238Y-152547619D01*
X149642857Y-152642857D01*
X149642857Y-152785714D01*
X149595238Y-152880952D01*
X149547619Y-152928571D01*
X149452380Y-152976190D01*
X149071428Y-152976190D01*
X150452380Y-153404761D02*
X150357142Y-153452380D01*
X150166666Y-153452380D01*
X150071428Y-153404761D01*
X150023809Y-153309523D01*
X150023809Y-152928571D01*
X150071428Y-152833333D01*
X150166666Y-152785714D01*
X150357142Y-152785714D01*
X150452380Y-152833333D01*
X150500000Y-152928571D01*
X150500000Y-153023809D01*
X150023809Y-153119047D01*
X150833333Y-152785714D02*
X151071428Y-153452380D01*
X151309523Y-152785714D01*
X152976190Y-153452380D02*
X152404761Y-153452380D01*
X152690476Y-153452380D02*
X152690476Y-152452380D01*
X152595238Y-152595238D01*
X152500000Y-152690476D01*
X152404761Y-152738095D01*
D14*
X95535714Y-172472285D02*
X95573809Y-172510380D01*
X95611904Y-172624666D01*
X95611904Y-172700857D01*
X95573809Y-172815142D01*
X95497619Y-172891333D01*
X95421428Y-172929428D01*
X95269047Y-172967523D01*
X95154761Y-172967523D01*
X95002380Y-172929428D01*
X94926190Y-172891333D01*
X94850000Y-172815142D01*
X94811904Y-172700857D01*
X94811904Y-172624666D01*
X94850000Y-172510380D01*
X94888095Y-172472285D01*
X94888095Y-172167523D02*
X94850000Y-172129428D01*
X94811904Y-172053238D01*
X94811904Y-171862761D01*
X94850000Y-171786571D01*
X94888095Y-171748476D01*
X94964285Y-171710380D01*
X95040476Y-171710380D01*
X95154761Y-171748476D01*
X95611904Y-172205619D01*
X95611904Y-171710380D01*
X94811904Y-171443714D02*
X94811904Y-170948476D01*
X95116666Y-171215142D01*
X95116666Y-171100857D01*
X95154761Y-171024666D01*
X95192857Y-170986571D01*
X95269047Y-170948476D01*
X95459523Y-170948476D01*
X95535714Y-170986571D01*
X95573809Y-171024666D01*
X95611904Y-171100857D01*
X95611904Y-171329428D01*
X95573809Y-171405619D01*
X95535714Y-171443714D01*
X99599714Y-172472285D02*
X99637809Y-172510380D01*
X99675904Y-172624666D01*
X99675904Y-172700857D01*
X99637809Y-172815142D01*
X99561619Y-172891333D01*
X99485428Y-172929428D01*
X99333047Y-172967523D01*
X99218761Y-172967523D01*
X99066380Y-172929428D01*
X98990190Y-172891333D01*
X98914000Y-172815142D01*
X98875904Y-172700857D01*
X98875904Y-172624666D01*
X98914000Y-172510380D01*
X98952095Y-172472285D01*
X98952095Y-172167523D02*
X98914000Y-172129428D01*
X98875904Y-172053238D01*
X98875904Y-171862761D01*
X98914000Y-171786571D01*
X98952095Y-171748476D01*
X99028285Y-171710380D01*
X99104476Y-171710380D01*
X99218761Y-171748476D01*
X99675904Y-172205619D01*
X99675904Y-171710380D01*
X99675904Y-171329428D02*
X99675904Y-171177047D01*
X99637809Y-171100857D01*
X99599714Y-171062761D01*
X99485428Y-170986571D01*
X99333047Y-170948476D01*
X99028285Y-170948476D01*
X98952095Y-170986571D01*
X98914000Y-171024666D01*
X98875904Y-171100857D01*
X98875904Y-171253238D01*
X98914000Y-171329428D01*
X98952095Y-171367523D01*
X99028285Y-171405619D01*
X99218761Y-171405619D01*
X99294952Y-171367523D01*
X99333047Y-171329428D01*
X99371142Y-171253238D01*
X99371142Y-171100857D01*
X99333047Y-171024666D01*
X99294952Y-170986571D01*
X99218761Y-170948476D01*
X104679714Y-174758285D02*
X104717809Y-174796380D01*
X104755904Y-174910666D01*
X104755904Y-174986857D01*
X104717809Y-175101142D01*
X104641619Y-175177333D01*
X104565428Y-175215428D01*
X104413047Y-175253523D01*
X104298761Y-175253523D01*
X104146380Y-175215428D01*
X104070190Y-175177333D01*
X103994000Y-175101142D01*
X103955904Y-174986857D01*
X103955904Y-174910666D01*
X103994000Y-174796380D01*
X104032095Y-174758285D01*
X103955904Y-174491619D02*
X103955904Y-173996380D01*
X104260666Y-174263047D01*
X104260666Y-174148761D01*
X104298761Y-174072571D01*
X104336857Y-174034476D01*
X104413047Y-173996380D01*
X104603523Y-173996380D01*
X104679714Y-174034476D01*
X104717809Y-174072571D01*
X104755904Y-174148761D01*
X104755904Y-174377333D01*
X104717809Y-174453523D01*
X104679714Y-174491619D01*
X104755904Y-173234476D02*
X104755904Y-173691619D01*
X104755904Y-173463047D02*
X103955904Y-173463047D01*
X104070190Y-173539238D01*
X104146380Y-173615428D01*
X104184476Y-173691619D01*
X126754095Y-104120380D02*
X126754095Y-104929904D01*
X126801714Y-105025142D01*
X126849333Y-105072761D01*
X126944571Y-105120380D01*
X127135047Y-105120380D01*
X127230285Y-105072761D01*
X127277904Y-105025142D01*
X127325523Y-104929904D01*
X127325523Y-104120380D01*
X127849333Y-105120380D02*
X128039809Y-105120380D01*
X128135047Y-105072761D01*
X128182666Y-105025142D01*
X128277904Y-104882285D01*
X128325523Y-104691809D01*
X128325523Y-104310857D01*
X128277904Y-104215619D01*
X128230285Y-104168000D01*
X128135047Y-104120380D01*
X127944571Y-104120380D01*
X127849333Y-104168000D01*
X127801714Y-104215619D01*
X127754095Y-104310857D01*
X127754095Y-104548952D01*
X127801714Y-104644190D01*
X127849333Y-104691809D01*
X127944571Y-104739428D01*
X128135047Y-104739428D01*
X128230285Y-104691809D01*
X128277904Y-104644190D01*
X128325523Y-104548952D01*
X76723714Y-117137714D02*
X76685619Y-117175809D01*
X76571333Y-117213904D01*
X76495142Y-117213904D01*
X76380857Y-117175809D01*
X76304666Y-117099619D01*
X76266571Y-117023428D01*
X76228476Y-116871047D01*
X76228476Y-116756761D01*
X76266571Y-116604380D01*
X76304666Y-116528190D01*
X76380857Y-116452000D01*
X76495142Y-116413904D01*
X76571333Y-116413904D01*
X76685619Y-116452000D01*
X76723714Y-116490095D01*
X77485619Y-117213904D02*
X77028476Y-117213904D01*
X77257047Y-117213904D02*
X77257047Y-116413904D01*
X77180857Y-116528190D01*
X77104666Y-116604380D01*
X77028476Y-116642476D01*
X77790380Y-116490095D02*
X77828476Y-116452000D01*
X77904666Y-116413904D01*
X78095142Y-116413904D01*
X78171333Y-116452000D01*
X78209428Y-116490095D01*
X78247523Y-116566285D01*
X78247523Y-116642476D01*
X78209428Y-116756761D01*
X77752285Y-117213904D01*
X78247523Y-117213904D01*
X76723714Y-115887714D02*
X76685619Y-115925809D01*
X76571333Y-115963904D01*
X76495142Y-115963904D01*
X76380857Y-115925809D01*
X76304666Y-115849619D01*
X76266571Y-115773428D01*
X76228476Y-115621047D01*
X76228476Y-115506761D01*
X76266571Y-115354380D01*
X76304666Y-115278190D01*
X76380857Y-115202000D01*
X76495142Y-115163904D01*
X76571333Y-115163904D01*
X76685619Y-115202000D01*
X76723714Y-115240095D01*
X77485619Y-115963904D02*
X77028476Y-115963904D01*
X77257047Y-115963904D02*
X77257047Y-115163904D01*
X77180857Y-115278190D01*
X77104666Y-115354380D01*
X77028476Y-115392476D01*
X77752285Y-115163904D02*
X78247523Y-115163904D01*
X77980857Y-115468666D01*
X78095142Y-115468666D01*
X78171333Y-115506761D01*
X78209428Y-115544857D01*
X78247523Y-115621047D01*
X78247523Y-115811523D01*
X78209428Y-115887714D01*
X78171333Y-115925809D01*
X78095142Y-115963904D01*
X77866571Y-115963904D01*
X77790380Y-115925809D01*
X77752285Y-115887714D01*
X94087904Y-172599333D02*
X93706952Y-172866000D01*
X94087904Y-173056476D02*
X93287904Y-173056476D01*
X93287904Y-172751714D01*
X93326000Y-172675523D01*
X93364095Y-172637428D01*
X93440285Y-172599333D01*
X93554571Y-172599333D01*
X93630761Y-172637428D01*
X93668857Y-172675523D01*
X93706952Y-172751714D01*
X93706952Y-173056476D01*
X93630761Y-172142190D02*
X93592666Y-172218380D01*
X93554571Y-172256476D01*
X93478380Y-172294571D01*
X93440285Y-172294571D01*
X93364095Y-172256476D01*
X93326000Y-172218380D01*
X93287904Y-172142190D01*
X93287904Y-171989809D01*
X93326000Y-171913619D01*
X93364095Y-171875523D01*
X93440285Y-171837428D01*
X93478380Y-171837428D01*
X93554571Y-171875523D01*
X93592666Y-171913619D01*
X93630761Y-171989809D01*
X93630761Y-172142190D01*
X93668857Y-172218380D01*
X93706952Y-172256476D01*
X93783142Y-172294571D01*
X93935523Y-172294571D01*
X94011714Y-172256476D01*
X94049809Y-172218380D01*
X94087904Y-172142190D01*
X94087904Y-171989809D01*
X94049809Y-171913619D01*
X94011714Y-171875523D01*
X93935523Y-171837428D01*
X93783142Y-171837428D01*
X93706952Y-171875523D01*
X93668857Y-171913619D01*
X93630761Y-171989809D01*
X98151904Y-172472285D02*
X97770952Y-172738952D01*
X98151904Y-172929428D02*
X97351904Y-172929428D01*
X97351904Y-172624666D01*
X97390000Y-172548476D01*
X97428095Y-172510380D01*
X97504285Y-172472285D01*
X97618571Y-172472285D01*
X97694761Y-172510380D01*
X97732857Y-172548476D01*
X97770952Y-172624666D01*
X97770952Y-172929428D01*
X98151904Y-171710380D02*
X98151904Y-172167523D01*
X98151904Y-171938952D02*
X97351904Y-171938952D01*
X97466190Y-172015142D01*
X97542380Y-172091333D01*
X97580476Y-172167523D01*
X98151904Y-170948476D02*
X98151904Y-171405619D01*
X98151904Y-171177047D02*
X97351904Y-171177047D01*
X97466190Y-171253238D01*
X97542380Y-171329428D01*
X97580476Y-171405619D01*
X100945904Y-174758285D02*
X100564952Y-175024952D01*
X100945904Y-175215428D02*
X100145904Y-175215428D01*
X100145904Y-174910666D01*
X100184000Y-174834476D01*
X100222095Y-174796380D01*
X100298285Y-174758285D01*
X100412571Y-174758285D01*
X100488761Y-174796380D01*
X100526857Y-174834476D01*
X100564952Y-174910666D01*
X100564952Y-175215428D01*
X100945904Y-173996380D02*
X100945904Y-174453523D01*
X100945904Y-174224952D02*
X100145904Y-174224952D01*
X100260190Y-174301142D01*
X100336380Y-174377333D01*
X100374476Y-174453523D01*
X100222095Y-173691619D02*
X100184000Y-173653523D01*
X100145904Y-173577333D01*
X100145904Y-173386857D01*
X100184000Y-173310666D01*
X100222095Y-173272571D01*
X100298285Y-173234476D01*
X100374476Y-173234476D01*
X100488761Y-173272571D01*
X100945904Y-173729714D01*
X100945904Y-173234476D01*
X61207714Y-114585714D02*
X61169619Y-114623809D01*
X61055333Y-114661904D01*
X60979142Y-114661904D01*
X60864857Y-114623809D01*
X60788666Y-114547619D01*
X60750571Y-114471428D01*
X60712476Y-114319047D01*
X60712476Y-114204761D01*
X60750571Y-114052380D01*
X60788666Y-113976190D01*
X60864857Y-113900000D01*
X60979142Y-113861904D01*
X61055333Y-113861904D01*
X61169619Y-113900000D01*
X61207714Y-113938095D01*
X61969619Y-114661904D02*
X61512476Y-114661904D01*
X61741047Y-114661904D02*
X61741047Y-113861904D01*
X61664857Y-113976190D01*
X61588666Y-114052380D01*
X61512476Y-114090476D01*
X62655333Y-113861904D02*
X62502952Y-113861904D01*
X62426761Y-113900000D01*
X62388666Y-113938095D01*
X62312476Y-114052380D01*
X62274380Y-114204761D01*
X62274380Y-114509523D01*
X62312476Y-114585714D01*
X62350571Y-114623809D01*
X62426761Y-114661904D01*
X62579142Y-114661904D01*
X62655333Y-114623809D01*
X62693428Y-114585714D01*
X62731523Y-114509523D01*
X62731523Y-114319047D01*
X62693428Y-114242857D01*
X62655333Y-114204761D01*
X62579142Y-114166666D01*
X62426761Y-114166666D01*
X62350571Y-114204761D01*
X62312476Y-114242857D01*
X62274380Y-114319047D01*
X77611714Y-155454285D02*
X77649809Y-155492380D01*
X77687904Y-155606666D01*
X77687904Y-155682857D01*
X77649809Y-155797142D01*
X77573619Y-155873333D01*
X77497428Y-155911428D01*
X77345047Y-155949523D01*
X77230761Y-155949523D01*
X77078380Y-155911428D01*
X77002190Y-155873333D01*
X76926000Y-155797142D01*
X76887904Y-155682857D01*
X76887904Y-155606666D01*
X76926000Y-155492380D01*
X76964095Y-155454285D01*
X77687904Y-154692380D02*
X77687904Y-155149523D01*
X77687904Y-154920952D02*
X76887904Y-154920952D01*
X77002190Y-154997142D01*
X77078380Y-155073333D01*
X77116476Y-155149523D01*
X76887904Y-154425714D02*
X76887904Y-153892380D01*
X77687904Y-154235238D01*
D12*
X80111714Y-153774857D02*
X80111714Y-154746285D01*
X80168857Y-154860571D01*
X80226000Y-154917714D01*
X80340285Y-154974857D01*
X80568857Y-154974857D01*
X80683142Y-154917714D01*
X80740285Y-154860571D01*
X80797428Y-154746285D01*
X80797428Y-153774857D01*
X81254571Y-153774857D02*
X82054571Y-153774857D01*
X81540285Y-154974857D01*
D14*
X140455714Y-151923714D02*
X140417619Y-151961809D01*
X140303333Y-151999904D01*
X140227142Y-151999904D01*
X140112857Y-151961809D01*
X140036666Y-151885619D01*
X139998571Y-151809428D01*
X139960476Y-151657047D01*
X139960476Y-151542761D01*
X139998571Y-151390380D01*
X140036666Y-151314190D01*
X140112857Y-151238000D01*
X140227142Y-151199904D01*
X140303333Y-151199904D01*
X140417619Y-151238000D01*
X140455714Y-151276095D01*
X141179523Y-151199904D02*
X140798571Y-151199904D01*
X140760476Y-151580857D01*
X140798571Y-151542761D01*
X140874761Y-151504666D01*
X141065238Y-151504666D01*
X141141428Y-151542761D01*
X141179523Y-151580857D01*
X141217619Y-151657047D01*
X141217619Y-151847523D01*
X141179523Y-151923714D01*
X141141428Y-151961809D01*
X141065238Y-151999904D01*
X140874761Y-151999904D01*
X140798571Y-151961809D01*
X140760476Y-151923714D01*
X141712857Y-151199904D02*
X141789047Y-151199904D01*
X141865238Y-151238000D01*
X141903333Y-151276095D01*
X141941428Y-151352285D01*
X141979523Y-151504666D01*
X141979523Y-151695142D01*
X141941428Y-151847523D01*
X141903333Y-151923714D01*
X141865238Y-151961809D01*
X141789047Y-151999904D01*
X141712857Y-151999904D01*
X141636666Y-151961809D01*
X141598571Y-151923714D01*
X141560476Y-151847523D01*
X141522380Y-151695142D01*
X141522380Y-151504666D01*
X141560476Y-151352285D01*
X141598571Y-151276095D01*
X141636666Y-151238000D01*
X141712857Y-151199904D01*
X91725714Y-172599333D02*
X91763809Y-172637428D01*
X91801904Y-172751714D01*
X91801904Y-172827904D01*
X91763809Y-172942190D01*
X91687619Y-173018380D01*
X91611428Y-173056476D01*
X91459047Y-173094571D01*
X91344761Y-173094571D01*
X91192380Y-173056476D01*
X91116190Y-173018380D01*
X91040000Y-172942190D01*
X91001904Y-172827904D01*
X91001904Y-172751714D01*
X91040000Y-172637428D01*
X91078095Y-172599333D01*
X91001904Y-172332666D02*
X91001904Y-171799333D01*
X91801904Y-172142190D01*
X90277904Y-172599333D02*
X89896952Y-172866000D01*
X90277904Y-173056476D02*
X89477904Y-173056476D01*
X89477904Y-172751714D01*
X89516000Y-172675523D01*
X89554095Y-172637428D01*
X89630285Y-172599333D01*
X89744571Y-172599333D01*
X89820761Y-172637428D01*
X89858857Y-172675523D01*
X89896952Y-172751714D01*
X89896952Y-173056476D01*
X89477904Y-171875523D02*
X89477904Y-172256476D01*
X89858857Y-172294571D01*
X89820761Y-172256476D01*
X89782666Y-172180285D01*
X89782666Y-171989809D01*
X89820761Y-171913619D01*
X89858857Y-171875523D01*
X89935047Y-171837428D01*
X90125523Y-171837428D01*
X90201714Y-171875523D01*
X90239809Y-171913619D01*
X90277904Y-171989809D01*
X90277904Y-172180285D01*
X90239809Y-172256476D01*
X90201714Y-172294571D01*
X148494857Y-175964857D02*
X148228190Y-175964857D01*
X148228190Y-176383904D02*
X148228190Y-175583904D01*
X148609142Y-175583904D01*
X148913904Y-176383904D02*
X148913904Y-175583904D01*
X149294857Y-176383904D02*
X149294857Y-175583904D01*
X149485333Y-175583904D01*
X149599619Y-175622000D01*
X149675809Y-175698190D01*
X149713904Y-175774380D01*
X149752000Y-175926761D01*
X149752000Y-176041047D01*
X149713904Y-176193428D01*
X149675809Y-176269619D01*
X149599619Y-176345809D01*
X149485333Y-176383904D01*
X149294857Y-176383904D01*
X150513904Y-176383904D02*
X150056761Y-176383904D01*
X150285333Y-176383904D02*
X150285333Y-175583904D01*
X150209142Y-175698190D01*
X150132952Y-175774380D01*
X150056761Y-175812476D01*
X49942857Y-95129357D02*
X49676190Y-95129357D01*
X49676190Y-95548404D02*
X49676190Y-94748404D01*
X50057142Y-94748404D01*
X50361904Y-95548404D02*
X50361904Y-94748404D01*
X50742857Y-95548404D02*
X50742857Y-94748404D01*
X50933333Y-94748404D01*
X51047619Y-94786500D01*
X51123809Y-94862690D01*
X51161904Y-94938880D01*
X51200000Y-95091261D01*
X51200000Y-95205547D01*
X51161904Y-95357928D01*
X51123809Y-95434119D01*
X51047619Y-95510309D01*
X50933333Y-95548404D01*
X50742857Y-95548404D01*
X51504761Y-94824595D02*
X51542857Y-94786500D01*
X51619047Y-94748404D01*
X51809523Y-94748404D01*
X51885714Y-94786500D01*
X51923809Y-94824595D01*
X51961904Y-94900785D01*
X51961904Y-94976976D01*
X51923809Y-95091261D01*
X51466666Y-95548404D01*
X51961904Y-95548404D01*
X136893333Y-192855904D02*
X136893333Y-193427333D01*
X136855238Y-193541619D01*
X136779047Y-193617809D01*
X136664761Y-193655904D01*
X136588571Y-193655904D01*
X137236190Y-192932095D02*
X137274285Y-192894000D01*
X137350476Y-192855904D01*
X137540952Y-192855904D01*
X137617142Y-192894000D01*
X137655238Y-192932095D01*
X137693333Y-193008285D01*
X137693333Y-193084476D01*
X137655238Y-193198761D01*
X137198095Y-193655904D01*
X137693333Y-193655904D01*
X130663904Y-191649238D02*
X130663904Y-192030190D01*
X129863904Y-192030190D01*
X130244857Y-191382571D02*
X130244857Y-191115904D01*
X130663904Y-191001619D02*
X130663904Y-191382571D01*
X129863904Y-191382571D01*
X129863904Y-191001619D01*
X130663904Y-190658761D02*
X129863904Y-190658761D01*
X129863904Y-190468285D01*
X129902000Y-190354000D01*
X129978190Y-190277809D01*
X130054380Y-190239714D01*
X130206761Y-190201619D01*
X130321047Y-190201619D01*
X130473428Y-190239714D01*
X130549619Y-190277809D01*
X130625809Y-190354000D01*
X130663904Y-190468285D01*
X130663904Y-190658761D01*
X130663904Y-189439714D02*
X130663904Y-189896857D01*
X130663904Y-189668285D02*
X129863904Y-189668285D01*
X129978190Y-189744476D01*
X130054380Y-189820666D01*
X130092476Y-189896857D01*
X110076023Y-113708904D02*
X110076023Y-114356523D01*
X110114119Y-114432714D01*
X110152214Y-114470809D01*
X110228404Y-114508904D01*
X110380785Y-114508904D01*
X110456976Y-114470809D01*
X110495071Y-114432714D01*
X110533166Y-114356523D01*
X110533166Y-113708904D01*
X111333166Y-114508904D02*
X110876023Y-114508904D01*
X111104595Y-114508904D02*
X111104595Y-113708904D01*
X111028404Y-113823190D01*
X110952214Y-113899380D01*
X110876023Y-113937476D01*
X112018880Y-113975571D02*
X112018880Y-114508904D01*
X111828404Y-113670809D02*
X111637928Y-114242238D01*
X112133166Y-114242238D01*
D11*
X78232142Y-125162571D02*
X78232142Y-126376857D01*
X78303571Y-126519714D01*
X78375000Y-126591142D01*
X78517857Y-126662571D01*
X78803571Y-126662571D01*
X78946428Y-126591142D01*
X79017857Y-126519714D01*
X79089285Y-126376857D01*
X79089285Y-125162571D01*
X80446428Y-125162571D02*
X80160714Y-125162571D01*
X80017857Y-125234000D01*
X79946428Y-125305428D01*
X79803571Y-125519714D01*
X79732142Y-125805428D01*
X79732142Y-126376857D01*
X79803571Y-126519714D01*
X79875000Y-126591142D01*
X80017857Y-126662571D01*
X80303571Y-126662571D01*
X80446428Y-126591142D01*
X80517857Y-126519714D01*
X80589285Y-126376857D01*
X80589285Y-126019714D01*
X80517857Y-125876857D01*
X80446428Y-125805428D01*
X80303571Y-125734000D01*
X80017857Y-125734000D01*
X79875000Y-125805428D01*
X79803571Y-125876857D01*
X79732142Y-126019714D01*
D14*
X85121714Y-125228285D02*
X85159809Y-125266380D01*
X85197904Y-125380666D01*
X85197904Y-125456857D01*
X85159809Y-125571142D01*
X85083619Y-125647333D01*
X85007428Y-125685428D01*
X84855047Y-125723523D01*
X84740761Y-125723523D01*
X84588380Y-125685428D01*
X84512190Y-125647333D01*
X84436000Y-125571142D01*
X84397904Y-125456857D01*
X84397904Y-125380666D01*
X84436000Y-125266380D01*
X84474095Y-125228285D01*
X85197904Y-124466380D02*
X85197904Y-124923523D01*
X85197904Y-124694952D02*
X84397904Y-124694952D01*
X84512190Y-124771142D01*
X84588380Y-124847333D01*
X84626476Y-124923523D01*
X84397904Y-123742571D02*
X84397904Y-124123523D01*
X84778857Y-124161619D01*
X84740761Y-124123523D01*
X84702666Y-124047333D01*
X84702666Y-123856857D01*
X84740761Y-123780666D01*
X84778857Y-123742571D01*
X84855047Y-123704476D01*
X85045523Y-123704476D01*
X85121714Y-123742571D01*
X85159809Y-123780666D01*
X85197904Y-123856857D01*
X85197904Y-124047333D01*
X85159809Y-124123523D01*
X85121714Y-124161619D01*
X90849523Y-186331904D02*
X90849523Y-185531904D01*
X91154285Y-185531904D01*
X91230476Y-185570000D01*
X91268571Y-185608095D01*
X91306666Y-185684285D01*
X91306666Y-185798571D01*
X91268571Y-185874761D01*
X91230476Y-185912857D01*
X91154285Y-185950952D01*
X90849523Y-185950952D01*
X92068571Y-186331904D02*
X91611428Y-186331904D01*
X91840000Y-186331904D02*
X91840000Y-185531904D01*
X91763809Y-185646190D01*
X91687619Y-185722380D01*
X91611428Y-185760476D01*
X117519523Y-186331904D02*
X117519523Y-185531904D01*
X117824285Y-185531904D01*
X117900476Y-185570000D01*
X117938571Y-185608095D01*
X117976666Y-185684285D01*
X117976666Y-185798571D01*
X117938571Y-185874761D01*
X117900476Y-185912857D01*
X117824285Y-185950952D01*
X117519523Y-185950952D01*
X118281428Y-185608095D02*
X118319523Y-185570000D01*
X118395714Y-185531904D01*
X118586190Y-185531904D01*
X118662380Y-185570000D01*
X118700476Y-185608095D01*
X118738571Y-185684285D01*
X118738571Y-185760476D01*
X118700476Y-185874761D01*
X118243333Y-186331904D01*
X118738571Y-186331904D01*
X74415714Y-158925714D02*
X74377619Y-158963809D01*
X74263333Y-159001904D01*
X74187142Y-159001904D01*
X74072857Y-158963809D01*
X73996666Y-158887619D01*
X73958571Y-158811428D01*
X73920476Y-158659047D01*
X73920476Y-158544761D01*
X73958571Y-158392380D01*
X73996666Y-158316190D01*
X74072857Y-158240000D01*
X74187142Y-158201904D01*
X74263333Y-158201904D01*
X74377619Y-158240000D01*
X74415714Y-158278095D01*
X75177619Y-159001904D02*
X74720476Y-159001904D01*
X74949047Y-159001904D02*
X74949047Y-158201904D01*
X74872857Y-158316190D01*
X74796666Y-158392380D01*
X74720476Y-158430476D01*
X75634761Y-158544761D02*
X75558571Y-158506666D01*
X75520476Y-158468571D01*
X75482380Y-158392380D01*
X75482380Y-158354285D01*
X75520476Y-158278095D01*
X75558571Y-158240000D01*
X75634761Y-158201904D01*
X75787142Y-158201904D01*
X75863333Y-158240000D01*
X75901428Y-158278095D01*
X75939523Y-158354285D01*
X75939523Y-158392380D01*
X75901428Y-158468571D01*
X75863333Y-158506666D01*
X75787142Y-158544761D01*
X75634761Y-158544761D01*
X75558571Y-158582857D01*
X75520476Y-158620952D01*
X75482380Y-158697142D01*
X75482380Y-158849523D01*
X75520476Y-158925714D01*
X75558571Y-158963809D01*
X75634761Y-159001904D01*
X75787142Y-159001904D01*
X75863333Y-158963809D01*
X75901428Y-158925714D01*
X75939523Y-158849523D01*
X75939523Y-158697142D01*
X75901428Y-158620952D01*
X75863333Y-158582857D01*
X75787142Y-158544761D01*
X83945714Y-149104285D02*
X83983809Y-149142380D01*
X84021904Y-149256666D01*
X84021904Y-149332857D01*
X83983809Y-149447142D01*
X83907619Y-149523333D01*
X83831428Y-149561428D01*
X83679047Y-149599523D01*
X83564761Y-149599523D01*
X83412380Y-149561428D01*
X83336190Y-149523333D01*
X83260000Y-149447142D01*
X83221904Y-149332857D01*
X83221904Y-149256666D01*
X83260000Y-149142380D01*
X83298095Y-149104285D01*
X83298095Y-148799523D02*
X83260000Y-148761428D01*
X83221904Y-148685238D01*
X83221904Y-148494761D01*
X83260000Y-148418571D01*
X83298095Y-148380476D01*
X83374285Y-148342380D01*
X83450476Y-148342380D01*
X83564761Y-148380476D01*
X84021904Y-148837619D01*
X84021904Y-148342380D01*
X84021904Y-147580476D02*
X84021904Y-148037619D01*
X84021904Y-147809047D02*
X83221904Y-147809047D01*
X83336190Y-147885238D01*
X83412380Y-147961428D01*
X83450476Y-148037619D01*
X61207714Y-148875714D02*
X61169619Y-148913809D01*
X61055333Y-148951904D01*
X60979142Y-148951904D01*
X60864857Y-148913809D01*
X60788666Y-148837619D01*
X60750571Y-148761428D01*
X60712476Y-148609047D01*
X60712476Y-148494761D01*
X60750571Y-148342380D01*
X60788666Y-148266190D01*
X60864857Y-148190000D01*
X60979142Y-148151904D01*
X61055333Y-148151904D01*
X61169619Y-148190000D01*
X61207714Y-148228095D01*
X61474380Y-148151904D02*
X61969619Y-148151904D01*
X61702952Y-148456666D01*
X61817238Y-148456666D01*
X61893428Y-148494761D01*
X61931523Y-148532857D01*
X61969619Y-148609047D01*
X61969619Y-148799523D01*
X61931523Y-148875714D01*
X61893428Y-148913809D01*
X61817238Y-148951904D01*
X61588666Y-148951904D01*
X61512476Y-148913809D01*
X61474380Y-148875714D01*
X62236285Y-148151904D02*
X62769619Y-148151904D01*
X62426761Y-148951904D01*
X79025714Y-178060285D02*
X79063809Y-178098380D01*
X79101904Y-178212666D01*
X79101904Y-178288857D01*
X79063809Y-178403142D01*
X78987619Y-178479333D01*
X78911428Y-178517428D01*
X78759047Y-178555523D01*
X78644761Y-178555523D01*
X78492380Y-178517428D01*
X78416190Y-178479333D01*
X78340000Y-178403142D01*
X78301904Y-178288857D01*
X78301904Y-178212666D01*
X78340000Y-178098380D01*
X78378095Y-178060285D01*
X78301904Y-177793619D02*
X78301904Y-177298380D01*
X78606666Y-177565047D01*
X78606666Y-177450761D01*
X78644761Y-177374571D01*
X78682857Y-177336476D01*
X78759047Y-177298380D01*
X78949523Y-177298380D01*
X79025714Y-177336476D01*
X79063809Y-177374571D01*
X79101904Y-177450761D01*
X79101904Y-177679333D01*
X79063809Y-177755523D01*
X79025714Y-177793619D01*
X78644761Y-176841238D02*
X78606666Y-176917428D01*
X78568571Y-176955523D01*
X78492380Y-176993619D01*
X78454285Y-176993619D01*
X78378095Y-176955523D01*
X78340000Y-176917428D01*
X78301904Y-176841238D01*
X78301904Y-176688857D01*
X78340000Y-176612666D01*
X78378095Y-176574571D01*
X78454285Y-176536476D01*
X78492380Y-176536476D01*
X78568571Y-176574571D01*
X78606666Y-176612666D01*
X78644761Y-176688857D01*
X78644761Y-176841238D01*
X78682857Y-176917428D01*
X78720952Y-176955523D01*
X78797142Y-176993619D01*
X78949523Y-176993619D01*
X79025714Y-176955523D01*
X79063809Y-176917428D01*
X79101904Y-176841238D01*
X79101904Y-176688857D01*
X79063809Y-176612666D01*
X79025714Y-176574571D01*
X78949523Y-176536476D01*
X78797142Y-176536476D01*
X78720952Y-176574571D01*
X78682857Y-176612666D01*
X78644761Y-176688857D01*
X68357714Y-163582285D02*
X68395809Y-163620380D01*
X68433904Y-163734666D01*
X68433904Y-163810857D01*
X68395809Y-163925142D01*
X68319619Y-164001333D01*
X68243428Y-164039428D01*
X68091047Y-164077523D01*
X67976761Y-164077523D01*
X67824380Y-164039428D01*
X67748190Y-164001333D01*
X67672000Y-163925142D01*
X67633904Y-163810857D01*
X67633904Y-163734666D01*
X67672000Y-163620380D01*
X67710095Y-163582285D01*
X67633904Y-162858476D02*
X67633904Y-163239428D01*
X68014857Y-163277523D01*
X67976761Y-163239428D01*
X67938666Y-163163238D01*
X67938666Y-162972761D01*
X67976761Y-162896571D01*
X68014857Y-162858476D01*
X68091047Y-162820380D01*
X68281523Y-162820380D01*
X68357714Y-162858476D01*
X68395809Y-162896571D01*
X68433904Y-162972761D01*
X68433904Y-163163238D01*
X68395809Y-163239428D01*
X68357714Y-163277523D01*
X67633904Y-162553714D02*
X67633904Y-162058476D01*
X67938666Y-162325142D01*
X67938666Y-162210857D01*
X67976761Y-162134666D01*
X68014857Y-162096571D01*
X68091047Y-162058476D01*
X68281523Y-162058476D01*
X68357714Y-162096571D01*
X68395809Y-162134666D01*
X68433904Y-162210857D01*
X68433904Y-162439428D01*
X68395809Y-162515619D01*
X68357714Y-162553714D01*
X58705714Y-161550285D02*
X58743809Y-161588380D01*
X58781904Y-161702666D01*
X58781904Y-161778857D01*
X58743809Y-161893142D01*
X58667619Y-161969333D01*
X58591428Y-162007428D01*
X58439047Y-162045523D01*
X58324761Y-162045523D01*
X58172380Y-162007428D01*
X58096190Y-161969333D01*
X58020000Y-161893142D01*
X57981904Y-161778857D01*
X57981904Y-161702666D01*
X58020000Y-161588380D01*
X58058095Y-161550285D01*
X57981904Y-160826476D02*
X57981904Y-161207428D01*
X58362857Y-161245523D01*
X58324761Y-161207428D01*
X58286666Y-161131238D01*
X58286666Y-160940761D01*
X58324761Y-160864571D01*
X58362857Y-160826476D01*
X58439047Y-160788380D01*
X58629523Y-160788380D01*
X58705714Y-160826476D01*
X58743809Y-160864571D01*
X58781904Y-160940761D01*
X58781904Y-161131238D01*
X58743809Y-161207428D01*
X58705714Y-161245523D01*
X58248571Y-160102666D02*
X58781904Y-160102666D01*
X57943809Y-160293142D02*
X58515238Y-160483619D01*
X58515238Y-159988380D01*
X56927714Y-160788285D02*
X56965809Y-160826380D01*
X57003904Y-160940666D01*
X57003904Y-161016857D01*
X56965809Y-161131142D01*
X56889619Y-161207333D01*
X56813428Y-161245428D01*
X56661047Y-161283523D01*
X56546761Y-161283523D01*
X56394380Y-161245428D01*
X56318190Y-161207333D01*
X56242000Y-161131142D01*
X56203904Y-161016857D01*
X56203904Y-160940666D01*
X56242000Y-160826380D01*
X56280095Y-160788285D01*
X56203904Y-160064476D02*
X56203904Y-160445428D01*
X56584857Y-160483523D01*
X56546761Y-160445428D01*
X56508666Y-160369238D01*
X56508666Y-160178761D01*
X56546761Y-160102571D01*
X56584857Y-160064476D01*
X56661047Y-160026380D01*
X56851523Y-160026380D01*
X56927714Y-160064476D01*
X56965809Y-160102571D01*
X57003904Y-160178761D01*
X57003904Y-160369238D01*
X56965809Y-160445428D01*
X56927714Y-160483523D01*
X56203904Y-159302571D02*
X56203904Y-159683523D01*
X56584857Y-159721619D01*
X56546761Y-159683523D01*
X56508666Y-159607333D01*
X56508666Y-159416857D01*
X56546761Y-159340666D01*
X56584857Y-159302571D01*
X56661047Y-159264476D01*
X56851523Y-159264476D01*
X56927714Y-159302571D01*
X56965809Y-159340666D01*
X57003904Y-159416857D01*
X57003904Y-159607333D01*
X56965809Y-159683523D01*
X56927714Y-159721619D01*
X64001714Y-171735714D02*
X63963619Y-171773809D01*
X63849333Y-171811904D01*
X63773142Y-171811904D01*
X63658857Y-171773809D01*
X63582666Y-171697619D01*
X63544571Y-171621428D01*
X63506476Y-171469047D01*
X63506476Y-171354761D01*
X63544571Y-171202380D01*
X63582666Y-171126190D01*
X63658857Y-171050000D01*
X63773142Y-171011904D01*
X63849333Y-171011904D01*
X63963619Y-171050000D01*
X64001714Y-171088095D01*
X64725523Y-171011904D02*
X64344571Y-171011904D01*
X64306476Y-171392857D01*
X64344571Y-171354761D01*
X64420761Y-171316666D01*
X64611238Y-171316666D01*
X64687428Y-171354761D01*
X64725523Y-171392857D01*
X64763619Y-171469047D01*
X64763619Y-171659523D01*
X64725523Y-171735714D01*
X64687428Y-171773809D01*
X64611238Y-171811904D01*
X64420761Y-171811904D01*
X64344571Y-171773809D01*
X64306476Y-171735714D01*
X65449333Y-171011904D02*
X65296952Y-171011904D01*
X65220761Y-171050000D01*
X65182666Y-171088095D01*
X65106476Y-171202380D01*
X65068380Y-171354761D01*
X65068380Y-171659523D01*
X65106476Y-171735714D01*
X65144571Y-171773809D01*
X65220761Y-171811904D01*
X65373142Y-171811904D01*
X65449333Y-171773809D01*
X65487428Y-171735714D01*
X65525523Y-171659523D01*
X65525523Y-171469047D01*
X65487428Y-171392857D01*
X65449333Y-171354761D01*
X65373142Y-171316666D01*
X65220761Y-171316666D01*
X65144571Y-171354761D01*
X65106476Y-171392857D01*
X65068380Y-171469047D01*
X61526214Y-178593714D02*
X61488119Y-178631809D01*
X61373833Y-178669904D01*
X61297642Y-178669904D01*
X61183357Y-178631809D01*
X61107166Y-178555619D01*
X61069071Y-178479428D01*
X61030976Y-178327047D01*
X61030976Y-178212761D01*
X61069071Y-178060380D01*
X61107166Y-177984190D01*
X61183357Y-177908000D01*
X61297642Y-177869904D01*
X61373833Y-177869904D01*
X61488119Y-177908000D01*
X61526214Y-177946095D01*
X62250023Y-177869904D02*
X61869071Y-177869904D01*
X61830976Y-178250857D01*
X61869071Y-178212761D01*
X61945261Y-178174666D01*
X62135738Y-178174666D01*
X62211928Y-178212761D01*
X62250023Y-178250857D01*
X62288119Y-178327047D01*
X62288119Y-178517523D01*
X62250023Y-178593714D01*
X62211928Y-178631809D01*
X62135738Y-178669904D01*
X61945261Y-178669904D01*
X61869071Y-178631809D01*
X61830976Y-178593714D01*
X62554785Y-177869904D02*
X63088119Y-177869904D01*
X62745261Y-178669904D01*
X70211904Y-163582285D02*
X69830952Y-163848952D01*
X70211904Y-164039428D02*
X69411904Y-164039428D01*
X69411904Y-163734666D01*
X69450000Y-163658476D01*
X69488095Y-163620380D01*
X69564285Y-163582285D01*
X69678571Y-163582285D01*
X69754761Y-163620380D01*
X69792857Y-163658476D01*
X69830952Y-163734666D01*
X69830952Y-164039428D01*
X69488095Y-163277523D02*
X69450000Y-163239428D01*
X69411904Y-163163238D01*
X69411904Y-162972761D01*
X69450000Y-162896571D01*
X69488095Y-162858476D01*
X69564285Y-162820380D01*
X69640476Y-162820380D01*
X69754761Y-162858476D01*
X70211904Y-163315619D01*
X70211904Y-162820380D01*
X69411904Y-162134666D02*
X69411904Y-162287047D01*
X69450000Y-162363238D01*
X69488095Y-162401333D01*
X69602380Y-162477523D01*
X69754761Y-162515619D01*
X70059523Y-162515619D01*
X70135714Y-162477523D01*
X70173809Y-162439428D01*
X70211904Y-162363238D01*
X70211904Y-162210857D01*
X70173809Y-162134666D01*
X70135714Y-162096571D01*
X70059523Y-162058476D01*
X69869047Y-162058476D01*
X69792857Y-162096571D01*
X69754761Y-162134666D01*
X69716666Y-162210857D01*
X69716666Y-162363238D01*
X69754761Y-162439428D01*
X69792857Y-162477523D01*
X69869047Y-162515619D01*
X58921714Y-170187904D02*
X58655047Y-169806952D01*
X58464571Y-170187904D02*
X58464571Y-169387904D01*
X58769333Y-169387904D01*
X58845523Y-169426000D01*
X58883619Y-169464095D01*
X58921714Y-169540285D01*
X58921714Y-169654571D01*
X58883619Y-169730761D01*
X58845523Y-169768857D01*
X58769333Y-169806952D01*
X58464571Y-169806952D01*
X59226476Y-169464095D02*
X59264571Y-169426000D01*
X59340761Y-169387904D01*
X59531238Y-169387904D01*
X59607428Y-169426000D01*
X59645523Y-169464095D01*
X59683619Y-169540285D01*
X59683619Y-169616476D01*
X59645523Y-169730761D01*
X59188380Y-170187904D01*
X59683619Y-170187904D01*
X59950285Y-169387904D02*
X60483619Y-169387904D01*
X60140761Y-170187904D01*
X62001523Y-167603904D02*
X62001523Y-168251523D01*
X62039619Y-168327714D01*
X62077714Y-168365809D01*
X62153904Y-168403904D01*
X62306285Y-168403904D01*
X62382476Y-168365809D01*
X62420571Y-168327714D01*
X62458666Y-168251523D01*
X62458666Y-167603904D01*
X62801523Y-167680095D02*
X62839619Y-167642000D01*
X62915809Y-167603904D01*
X63106285Y-167603904D01*
X63182476Y-167642000D01*
X63220571Y-167680095D01*
X63258666Y-167756285D01*
X63258666Y-167832476D01*
X63220571Y-167946761D01*
X62763428Y-168403904D01*
X63258666Y-168403904D01*
X63753904Y-167603904D02*
X63830095Y-167603904D01*
X63906285Y-167642000D01*
X63944380Y-167680095D01*
X63982476Y-167756285D01*
X64020571Y-167908666D01*
X64020571Y-168099142D01*
X63982476Y-168251523D01*
X63944380Y-168327714D01*
X63906285Y-168365809D01*
X63830095Y-168403904D01*
X63753904Y-168403904D01*
X63677714Y-168365809D01*
X63639619Y-168327714D01*
X63601523Y-168251523D01*
X63563428Y-168099142D01*
X63563428Y-167908666D01*
X63601523Y-167756285D01*
X63639619Y-167680095D01*
X63677714Y-167642000D01*
X63753904Y-167603904D01*
X69583333Y-182949904D02*
X69583333Y-183521333D01*
X69545238Y-183635619D01*
X69469047Y-183711809D01*
X69354761Y-183749904D01*
X69278571Y-183749904D01*
X70383333Y-183749904D02*
X69926190Y-183749904D01*
X70154761Y-183749904D02*
X70154761Y-182949904D01*
X70078571Y-183064190D01*
X70002380Y-183140380D01*
X69926190Y-183178476D01*
X94024523Y-180701904D02*
X94024523Y-179901904D01*
X94215000Y-179901904D01*
X94329285Y-179940000D01*
X94405476Y-180016190D01*
X94443571Y-180092380D01*
X94481666Y-180244761D01*
X94481666Y-180359047D01*
X94443571Y-180511428D01*
X94405476Y-180587619D01*
X94329285Y-180663809D01*
X94215000Y-180701904D01*
X94024523Y-180701904D01*
X95243571Y-180701904D02*
X94786428Y-180701904D01*
X95015000Y-180701904D02*
X95015000Y-179901904D01*
X94938809Y-180016190D01*
X94862619Y-180092380D01*
X94786428Y-180130476D01*
X97961523Y-180701904D02*
X97961523Y-179901904D01*
X98152000Y-179901904D01*
X98266285Y-179940000D01*
X98342476Y-180016190D01*
X98380571Y-180092380D01*
X98418666Y-180244761D01*
X98418666Y-180359047D01*
X98380571Y-180511428D01*
X98342476Y-180587619D01*
X98266285Y-180663809D01*
X98152000Y-180701904D01*
X97961523Y-180701904D01*
X98723428Y-179978095D02*
X98761523Y-179940000D01*
X98837714Y-179901904D01*
X99028190Y-179901904D01*
X99104380Y-179940000D01*
X99142476Y-179978095D01*
X99180571Y-180054285D01*
X99180571Y-180130476D01*
X99142476Y-180244761D01*
X98685333Y-180701904D01*
X99180571Y-180701904D01*
X105426666Y-136005714D02*
X105388571Y-136043809D01*
X105274285Y-136081904D01*
X105198095Y-136081904D01*
X105083809Y-136043809D01*
X105007619Y-135967619D01*
X104969523Y-135891428D01*
X104931428Y-135739047D01*
X104931428Y-135624761D01*
X104969523Y-135472380D01*
X105007619Y-135396190D01*
X105083809Y-135320000D01*
X105198095Y-135281904D01*
X105274285Y-135281904D01*
X105388571Y-135320000D01*
X105426666Y-135358095D01*
X106112380Y-135281904D02*
X105960000Y-135281904D01*
X105883809Y-135320000D01*
X105845714Y-135358095D01*
X105769523Y-135472380D01*
X105731428Y-135624761D01*
X105731428Y-135929523D01*
X105769523Y-136005714D01*
X105807619Y-136043809D01*
X105883809Y-136081904D01*
X106036190Y-136081904D01*
X106112380Y-136043809D01*
X106150476Y-136005714D01*
X106188571Y-135929523D01*
X106188571Y-135739047D01*
X106150476Y-135662857D01*
X106112380Y-135624761D01*
X106036190Y-135586666D01*
X105883809Y-135586666D01*
X105807619Y-135624761D01*
X105769523Y-135662857D01*
X105731428Y-135739047D01*
X105545714Y-134755714D02*
X105507619Y-134793809D01*
X105393333Y-134831904D01*
X105317142Y-134831904D01*
X105202857Y-134793809D01*
X105126666Y-134717619D01*
X105088571Y-134641428D01*
X105050476Y-134489047D01*
X105050476Y-134374761D01*
X105088571Y-134222380D01*
X105126666Y-134146190D01*
X105202857Y-134070000D01*
X105317142Y-134031904D01*
X105393333Y-134031904D01*
X105507619Y-134070000D01*
X105545714Y-134108095D01*
X106307619Y-134831904D02*
X105850476Y-134831904D01*
X106079047Y-134831904D02*
X106079047Y-134031904D01*
X106002857Y-134146190D01*
X105926666Y-134222380D01*
X105850476Y-134260476D01*
X106993333Y-134298571D02*
X106993333Y-134831904D01*
X106802857Y-133993809D02*
X106612380Y-134565238D01*
X107107619Y-134565238D01*
X102095714Y-144746285D02*
X102133809Y-144784380D01*
X102171904Y-144898666D01*
X102171904Y-144974857D01*
X102133809Y-145089142D01*
X102057619Y-145165333D01*
X101981428Y-145203428D01*
X101829047Y-145241523D01*
X101714761Y-145241523D01*
X101562380Y-145203428D01*
X101486190Y-145165333D01*
X101410000Y-145089142D01*
X101371904Y-144974857D01*
X101371904Y-144898666D01*
X101410000Y-144784380D01*
X101448095Y-144746285D01*
X102171904Y-143984380D02*
X102171904Y-144441523D01*
X102171904Y-144212952D02*
X101371904Y-144212952D01*
X101486190Y-144289142D01*
X101562380Y-144365333D01*
X101600476Y-144441523D01*
X102171904Y-143603428D02*
X102171904Y-143451047D01*
X102133809Y-143374857D01*
X102095714Y-143336761D01*
X101981428Y-143260571D01*
X101829047Y-143222476D01*
X101524285Y-143222476D01*
X101448095Y-143260571D01*
X101410000Y-143298666D01*
X101371904Y-143374857D01*
X101371904Y-143527238D01*
X101410000Y-143603428D01*
X101448095Y-143641523D01*
X101524285Y-143679619D01*
X101714761Y-143679619D01*
X101790952Y-143641523D01*
X101829047Y-143603428D01*
X101867142Y-143527238D01*
X101867142Y-143374857D01*
X101829047Y-143298666D01*
X101790952Y-143260571D01*
X101714761Y-143222476D01*
X131077904Y-177933333D02*
X130696952Y-178200000D01*
X131077904Y-178390476D02*
X130277904Y-178390476D01*
X130277904Y-178085714D01*
X130316000Y-178009523D01*
X130354095Y-177971428D01*
X130430285Y-177933333D01*
X130544571Y-177933333D01*
X130620761Y-177971428D01*
X130658857Y-178009523D01*
X130696952Y-178085714D01*
X130696952Y-178390476D01*
X131077904Y-177171428D02*
X131077904Y-177628571D01*
X131077904Y-177400000D02*
X130277904Y-177400000D01*
X130392190Y-177476190D01*
X130468380Y-177552380D01*
X130506476Y-177628571D01*
X100671904Y-135896285D02*
X100290952Y-136162952D01*
X100671904Y-136353428D02*
X99871904Y-136353428D01*
X99871904Y-136048666D01*
X99910000Y-135972476D01*
X99948095Y-135934380D01*
X100024285Y-135896285D01*
X100138571Y-135896285D01*
X100214761Y-135934380D01*
X100252857Y-135972476D01*
X100290952Y-136048666D01*
X100290952Y-136353428D01*
X99948095Y-135591523D02*
X99910000Y-135553428D01*
X99871904Y-135477238D01*
X99871904Y-135286761D01*
X99910000Y-135210571D01*
X99948095Y-135172476D01*
X100024285Y-135134380D01*
X100100476Y-135134380D01*
X100214761Y-135172476D01*
X100671904Y-135629619D01*
X100671904Y-135134380D01*
X100671904Y-134753428D02*
X100671904Y-134601047D01*
X100633809Y-134524857D01*
X100595714Y-134486761D01*
X100481428Y-134410571D01*
X100329047Y-134372476D01*
X100024285Y-134372476D01*
X99948095Y-134410571D01*
X99910000Y-134448666D01*
X99871904Y-134524857D01*
X99871904Y-134677238D01*
X99910000Y-134753428D01*
X99948095Y-134791523D01*
X100024285Y-134829619D01*
X100214761Y-134829619D01*
X100290952Y-134791523D01*
X100329047Y-134753428D01*
X100367142Y-134677238D01*
X100367142Y-134524857D01*
X100329047Y-134448666D01*
X100290952Y-134410571D01*
X100214761Y-134372476D01*
X105021904Y-139079523D02*
X105669523Y-139079523D01*
X105745714Y-139041428D01*
X105783809Y-139003333D01*
X105821904Y-138927142D01*
X105821904Y-138774761D01*
X105783809Y-138698571D01*
X105745714Y-138660476D01*
X105669523Y-138622380D01*
X105021904Y-138622380D01*
X105021904Y-137860476D02*
X105021904Y-138241428D01*
X105402857Y-138279523D01*
X105364761Y-138241428D01*
X105326666Y-138165238D01*
X105326666Y-137974761D01*
X105364761Y-137898571D01*
X105402857Y-137860476D01*
X105479047Y-137822380D01*
X105669523Y-137822380D01*
X105745714Y-137860476D01*
X105783809Y-137898571D01*
X105821904Y-137974761D01*
X105821904Y-138165238D01*
X105783809Y-138241428D01*
X105745714Y-138279523D01*
X105545714Y-142755714D02*
X105507619Y-142793809D01*
X105393333Y-142831904D01*
X105317142Y-142831904D01*
X105202857Y-142793809D01*
X105126666Y-142717619D01*
X105088571Y-142641428D01*
X105050476Y-142489047D01*
X105050476Y-142374761D01*
X105088571Y-142222380D01*
X105126666Y-142146190D01*
X105202857Y-142070000D01*
X105317142Y-142031904D01*
X105393333Y-142031904D01*
X105507619Y-142070000D01*
X105545714Y-142108095D01*
X105850476Y-142108095D02*
X105888571Y-142070000D01*
X105964761Y-142031904D01*
X106155238Y-142031904D01*
X106231428Y-142070000D01*
X106269523Y-142108095D01*
X106307619Y-142184285D01*
X106307619Y-142260476D01*
X106269523Y-142374761D01*
X105812380Y-142831904D01*
X106307619Y-142831904D01*
X106764761Y-142374761D02*
X106688571Y-142336666D01*
X106650476Y-142298571D01*
X106612380Y-142222380D01*
X106612380Y-142184285D01*
X106650476Y-142108095D01*
X106688571Y-142070000D01*
X106764761Y-142031904D01*
X106917142Y-142031904D01*
X106993333Y-142070000D01*
X107031428Y-142108095D01*
X107069523Y-142184285D01*
X107069523Y-142222380D01*
X107031428Y-142298571D01*
X106993333Y-142336666D01*
X106917142Y-142374761D01*
X106764761Y-142374761D01*
X106688571Y-142412857D01*
X106650476Y-142450952D01*
X106612380Y-142527142D01*
X106612380Y-142679523D01*
X106650476Y-142755714D01*
X106688571Y-142793809D01*
X106764761Y-142831904D01*
X106917142Y-142831904D01*
X106993333Y-142793809D01*
X107031428Y-142755714D01*
X107069523Y-142679523D01*
X107069523Y-142527142D01*
X107031428Y-142450952D01*
X106993333Y-142412857D01*
X106917142Y-142374761D01*
X143153904Y-174674285D02*
X142772952Y-174940952D01*
X143153904Y-175131428D02*
X142353904Y-175131428D01*
X142353904Y-174826666D01*
X142392000Y-174750476D01*
X142430095Y-174712380D01*
X142506285Y-174674285D01*
X142620571Y-174674285D01*
X142696761Y-174712380D01*
X142734857Y-174750476D01*
X142772952Y-174826666D01*
X142772952Y-175131428D01*
X142430095Y-174369523D02*
X142392000Y-174331428D01*
X142353904Y-174255238D01*
X142353904Y-174064761D01*
X142392000Y-173988571D01*
X142430095Y-173950476D01*
X142506285Y-173912380D01*
X142582476Y-173912380D01*
X142696761Y-173950476D01*
X143153904Y-174407619D01*
X143153904Y-173912380D01*
X142353904Y-173417142D02*
X142353904Y-173340952D01*
X142392000Y-173264761D01*
X142430095Y-173226666D01*
X142506285Y-173188571D01*
X142658666Y-173150476D01*
X142849142Y-173150476D01*
X143001523Y-173188571D01*
X143077714Y-173226666D01*
X143115809Y-173264761D01*
X143153904Y-173340952D01*
X143153904Y-173417142D01*
X143115809Y-173493333D01*
X143077714Y-173531428D01*
X143001523Y-173569523D01*
X142849142Y-173607619D01*
X142658666Y-173607619D01*
X142506285Y-173569523D01*
X142430095Y-173531428D01*
X142392000Y-173493333D01*
X142353904Y-173417142D01*
X95872380Y-144849904D02*
X96405714Y-145649904D01*
X96405714Y-144849904D02*
X95872380Y-145649904D01*
X97129523Y-145649904D02*
X96672380Y-145649904D01*
X96900952Y-145649904D02*
X96900952Y-144849904D01*
X96824761Y-144964190D01*
X96748571Y-145040380D01*
X96672380Y-145078476D01*
X115924214Y-111585285D02*
X115962309Y-111623380D01*
X116000404Y-111737666D01*
X116000404Y-111813857D01*
X115962309Y-111928142D01*
X115886119Y-112004333D01*
X115809928Y-112042428D01*
X115657547Y-112080523D01*
X115543261Y-112080523D01*
X115390880Y-112042428D01*
X115314690Y-112004333D01*
X115238500Y-111928142D01*
X115200404Y-111813857D01*
X115200404Y-111737666D01*
X115238500Y-111623380D01*
X115276595Y-111585285D01*
X115467071Y-110899571D02*
X116000404Y-110899571D01*
X115162309Y-111090047D02*
X115733738Y-111280523D01*
X115733738Y-110785285D01*
X115200404Y-110099571D02*
X115200404Y-110480523D01*
X115581357Y-110518619D01*
X115543261Y-110480523D01*
X115505166Y-110404333D01*
X115505166Y-110213857D01*
X115543261Y-110137666D01*
X115581357Y-110099571D01*
X115657547Y-110061476D01*
X115848023Y-110061476D01*
X115924214Y-110099571D01*
X115962309Y-110137666D01*
X116000404Y-110213857D01*
X116000404Y-110404333D01*
X115962309Y-110480523D01*
X115924214Y-110518619D01*
X130001714Y-164115714D02*
X129963619Y-164153809D01*
X129849333Y-164191904D01*
X129773142Y-164191904D01*
X129658857Y-164153809D01*
X129582666Y-164077619D01*
X129544571Y-164001428D01*
X129506476Y-163849047D01*
X129506476Y-163734761D01*
X129544571Y-163582380D01*
X129582666Y-163506190D01*
X129658857Y-163430000D01*
X129773142Y-163391904D01*
X129849333Y-163391904D01*
X129963619Y-163430000D01*
X130001714Y-163468095D01*
X130687428Y-163658571D02*
X130687428Y-164191904D01*
X130496952Y-163353809D02*
X130306476Y-163925238D01*
X130801714Y-163925238D01*
X131449333Y-163658571D02*
X131449333Y-164191904D01*
X131258857Y-163353809D02*
X131068380Y-163925238D01*
X131563619Y-163925238D01*
X115347714Y-172472285D02*
X115385809Y-172510380D01*
X115423904Y-172624666D01*
X115423904Y-172700857D01*
X115385809Y-172815142D01*
X115309619Y-172891333D01*
X115233428Y-172929428D01*
X115081047Y-172967523D01*
X114966761Y-172967523D01*
X114814380Y-172929428D01*
X114738190Y-172891333D01*
X114662000Y-172815142D01*
X114623904Y-172700857D01*
X114623904Y-172624666D01*
X114662000Y-172510380D01*
X114700095Y-172472285D01*
X115423904Y-171710380D02*
X115423904Y-172167523D01*
X115423904Y-171938952D02*
X114623904Y-171938952D01*
X114738190Y-172015142D01*
X114814380Y-172091333D01*
X114852476Y-172167523D01*
X114623904Y-171215142D02*
X114623904Y-171138952D01*
X114662000Y-171062761D01*
X114700095Y-171024666D01*
X114776285Y-170986571D01*
X114928666Y-170948476D01*
X115119142Y-170948476D01*
X115271523Y-170986571D01*
X115347714Y-171024666D01*
X115385809Y-171062761D01*
X115423904Y-171138952D01*
X115423904Y-171215142D01*
X115385809Y-171291333D01*
X115347714Y-171329428D01*
X115271523Y-171367523D01*
X115119142Y-171405619D01*
X114928666Y-171405619D01*
X114776285Y-171367523D01*
X114700095Y-171329428D01*
X114662000Y-171291333D01*
X114623904Y-171215142D01*
X113899904Y-172472285D02*
X113518952Y-172738952D01*
X113899904Y-172929428D02*
X113099904Y-172929428D01*
X113099904Y-172624666D01*
X113138000Y-172548476D01*
X113176095Y-172510380D01*
X113252285Y-172472285D01*
X113366571Y-172472285D01*
X113442761Y-172510380D01*
X113480857Y-172548476D01*
X113518952Y-172624666D01*
X113518952Y-172929428D01*
X113176095Y-172167523D02*
X113138000Y-172129428D01*
X113099904Y-172053238D01*
X113099904Y-171862761D01*
X113138000Y-171786571D01*
X113176095Y-171748476D01*
X113252285Y-171710380D01*
X113328476Y-171710380D01*
X113442761Y-171748476D01*
X113899904Y-172205619D01*
X113899904Y-171710380D01*
X113442761Y-171253238D02*
X113404666Y-171329428D01*
X113366571Y-171367523D01*
X113290380Y-171405619D01*
X113252285Y-171405619D01*
X113176095Y-171367523D01*
X113138000Y-171329428D01*
X113099904Y-171253238D01*
X113099904Y-171100857D01*
X113138000Y-171024666D01*
X113176095Y-170986571D01*
X113252285Y-170948476D01*
X113290380Y-170948476D01*
X113366571Y-170986571D01*
X113404666Y-171024666D01*
X113442761Y-171100857D01*
X113442761Y-171253238D01*
X113480857Y-171329428D01*
X113518952Y-171367523D01*
X113595142Y-171405619D01*
X113747523Y-171405619D01*
X113823714Y-171367523D01*
X113861809Y-171329428D01*
X113899904Y-171253238D01*
X113899904Y-171100857D01*
X113861809Y-171024666D01*
X113823714Y-170986571D01*
X113747523Y-170948476D01*
X113595142Y-170948476D01*
X113518952Y-170986571D01*
X113480857Y-171024666D01*
X113442761Y-171100857D01*
X130549714Y-147681904D02*
X130283047Y-147300952D01*
X130092571Y-147681904D02*
X130092571Y-146881904D01*
X130397333Y-146881904D01*
X130473523Y-146920000D01*
X130511619Y-146958095D01*
X130549714Y-147034285D01*
X130549714Y-147148571D01*
X130511619Y-147224761D01*
X130473523Y-147262857D01*
X130397333Y-147300952D01*
X130092571Y-147300952D01*
X130816380Y-146881904D02*
X131311619Y-146881904D01*
X131044952Y-147186666D01*
X131159238Y-147186666D01*
X131235428Y-147224761D01*
X131273523Y-147262857D01*
X131311619Y-147339047D01*
X131311619Y-147529523D01*
X131273523Y-147605714D01*
X131235428Y-147643809D01*
X131159238Y-147681904D01*
X130930666Y-147681904D01*
X130854476Y-147643809D01*
X130816380Y-147605714D01*
X131806857Y-146881904D02*
X131883047Y-146881904D01*
X131959238Y-146920000D01*
X131997333Y-146958095D01*
X132035428Y-147034285D01*
X132073523Y-147186666D01*
X132073523Y-147377142D01*
X132035428Y-147529523D01*
X131997333Y-147605714D01*
X131959238Y-147643809D01*
X131883047Y-147681904D01*
X131806857Y-147681904D01*
X131730666Y-147643809D01*
X131692571Y-147605714D01*
X131654476Y-147529523D01*
X131616380Y-147377142D01*
X131616380Y-147186666D01*
X131654476Y-147034285D01*
X131692571Y-146958095D01*
X131730666Y-146920000D01*
X131806857Y-146881904D01*
X130001714Y-165385714D02*
X129963619Y-165423809D01*
X129849333Y-165461904D01*
X129773142Y-165461904D01*
X129658857Y-165423809D01*
X129582666Y-165347619D01*
X129544571Y-165271428D01*
X129506476Y-165119047D01*
X129506476Y-165004761D01*
X129544571Y-164852380D01*
X129582666Y-164776190D01*
X129658857Y-164700000D01*
X129773142Y-164661904D01*
X129849333Y-164661904D01*
X129963619Y-164700000D01*
X130001714Y-164738095D01*
X130687428Y-164928571D02*
X130687428Y-165461904D01*
X130496952Y-164623809D02*
X130306476Y-165195238D01*
X130801714Y-165195238D01*
X131030285Y-164661904D02*
X131525523Y-164661904D01*
X131258857Y-164966666D01*
X131373142Y-164966666D01*
X131449333Y-165004761D01*
X131487428Y-165042857D01*
X131525523Y-165119047D01*
X131525523Y-165309523D01*
X131487428Y-165385714D01*
X131449333Y-165423809D01*
X131373142Y-165461904D01*
X131144571Y-165461904D01*
X131068380Y-165423809D01*
X131030285Y-165385714D01*
X76021654Y-163648285D02*
X75640702Y-163914952D01*
X76021654Y-164105428D02*
X75221654Y-164105428D01*
X75221654Y-163800666D01*
X75259750Y-163724476D01*
X75297845Y-163686380D01*
X75374035Y-163648285D01*
X75488321Y-163648285D01*
X75564511Y-163686380D01*
X75602607Y-163724476D01*
X75640702Y-163800666D01*
X75640702Y-164105428D01*
X75221654Y-163381619D02*
X75221654Y-162886380D01*
X75526416Y-163153047D01*
X75526416Y-163038761D01*
X75564511Y-162962571D01*
X75602607Y-162924476D01*
X75678797Y-162886380D01*
X75869273Y-162886380D01*
X75945464Y-162924476D01*
X75983559Y-162962571D01*
X76021654Y-163038761D01*
X76021654Y-163267333D01*
X75983559Y-163343523D01*
X75945464Y-163381619D01*
X75221654Y-162619714D02*
X75221654Y-162086380D01*
X76021654Y-162429238D01*
X130549714Y-145141904D02*
X130283047Y-144760952D01*
X130092571Y-145141904D02*
X130092571Y-144341904D01*
X130397333Y-144341904D01*
X130473523Y-144380000D01*
X130511619Y-144418095D01*
X130549714Y-144494285D01*
X130549714Y-144608571D01*
X130511619Y-144684761D01*
X130473523Y-144722857D01*
X130397333Y-144760952D01*
X130092571Y-144760952D01*
X130816380Y-144341904D02*
X131311619Y-144341904D01*
X131044952Y-144646666D01*
X131159238Y-144646666D01*
X131235428Y-144684761D01*
X131273523Y-144722857D01*
X131311619Y-144799047D01*
X131311619Y-144989523D01*
X131273523Y-145065714D01*
X131235428Y-145103809D01*
X131159238Y-145141904D01*
X130930666Y-145141904D01*
X130854476Y-145103809D01*
X130816380Y-145065714D01*
X131997333Y-144608571D02*
X131997333Y-145141904D01*
X131806857Y-144303809D02*
X131616380Y-144875238D01*
X132111619Y-144875238D01*
X87369714Y-171303904D02*
X87103047Y-170922952D01*
X86912571Y-171303904D02*
X86912571Y-170503904D01*
X87217333Y-170503904D01*
X87293523Y-170542000D01*
X87331619Y-170580095D01*
X87369714Y-170656285D01*
X87369714Y-170770571D01*
X87331619Y-170846761D01*
X87293523Y-170884857D01*
X87217333Y-170922952D01*
X86912571Y-170922952D01*
X88131619Y-171303904D02*
X87674476Y-171303904D01*
X87903047Y-171303904D02*
X87903047Y-170503904D01*
X87826857Y-170618190D01*
X87750666Y-170694380D01*
X87674476Y-170732476D01*
X88855428Y-170503904D02*
X88474476Y-170503904D01*
X88436380Y-170884857D01*
X88474476Y-170846761D01*
X88550666Y-170808666D01*
X88741142Y-170808666D01*
X88817333Y-170846761D01*
X88855428Y-170884857D01*
X88893523Y-170961047D01*
X88893523Y-171151523D01*
X88855428Y-171227714D01*
X88817333Y-171265809D01*
X88741142Y-171303904D01*
X88550666Y-171303904D01*
X88474476Y-171265809D01*
X88436380Y-171227714D01*
X83597714Y-171202285D02*
X83635809Y-171240380D01*
X83673904Y-171354666D01*
X83673904Y-171430857D01*
X83635809Y-171545142D01*
X83559619Y-171621333D01*
X83483428Y-171659428D01*
X83331047Y-171697523D01*
X83216761Y-171697523D01*
X83064380Y-171659428D01*
X82988190Y-171621333D01*
X82912000Y-171545142D01*
X82873904Y-171430857D01*
X82873904Y-171354666D01*
X82912000Y-171240380D01*
X82950095Y-171202285D01*
X82950095Y-170897523D02*
X82912000Y-170859428D01*
X82873904Y-170783238D01*
X82873904Y-170592761D01*
X82912000Y-170516571D01*
X82950095Y-170478476D01*
X83026285Y-170440380D01*
X83102476Y-170440380D01*
X83216761Y-170478476D01*
X83673904Y-170935619D01*
X83673904Y-170440380D01*
X82873904Y-169945142D02*
X82873904Y-169868952D01*
X82912000Y-169792761D01*
X82950095Y-169754666D01*
X83026285Y-169716571D01*
X83178666Y-169678476D01*
X83369142Y-169678476D01*
X83521523Y-169716571D01*
X83597714Y-169754666D01*
X83635809Y-169792761D01*
X83673904Y-169868952D01*
X83673904Y-169945142D01*
X83635809Y-170021333D01*
X83597714Y-170059428D01*
X83521523Y-170097523D01*
X83369142Y-170135619D01*
X83178666Y-170135619D01*
X83026285Y-170097523D01*
X82950095Y-170059428D01*
X82912000Y-170021333D01*
X82873904Y-169945142D01*
X87498666Y-170033904D02*
X87232000Y-169652952D01*
X87041523Y-170033904D02*
X87041523Y-169233904D01*
X87346285Y-169233904D01*
X87422476Y-169272000D01*
X87460571Y-169310095D01*
X87498666Y-169386285D01*
X87498666Y-169500571D01*
X87460571Y-169576761D01*
X87422476Y-169614857D01*
X87346285Y-169652952D01*
X87041523Y-169652952D01*
X87765333Y-169233904D02*
X88298666Y-169233904D01*
X87955809Y-170033904D01*
X71113714Y-178085714D02*
X71075619Y-178123809D01*
X70961333Y-178161904D01*
X70885142Y-178161904D01*
X70770857Y-178123809D01*
X70694666Y-178047619D01*
X70656571Y-177971428D01*
X70618476Y-177819047D01*
X70618476Y-177704761D01*
X70656571Y-177552380D01*
X70694666Y-177476190D01*
X70770857Y-177400000D01*
X70885142Y-177361904D01*
X70961333Y-177361904D01*
X71075619Y-177400000D01*
X71113714Y-177438095D01*
X71380380Y-177361904D02*
X71875619Y-177361904D01*
X71608952Y-177666666D01*
X71723238Y-177666666D01*
X71799428Y-177704761D01*
X71837523Y-177742857D01*
X71875619Y-177819047D01*
X71875619Y-178009523D01*
X71837523Y-178085714D01*
X71799428Y-178123809D01*
X71723238Y-178161904D01*
X71494666Y-178161904D01*
X71418476Y-178123809D01*
X71380380Y-178085714D01*
X72370857Y-177361904D02*
X72447047Y-177361904D01*
X72523238Y-177400000D01*
X72561333Y-177438095D01*
X72599428Y-177514285D01*
X72637523Y-177666666D01*
X72637523Y-177857142D01*
X72599428Y-178009523D01*
X72561333Y-178085714D01*
X72523238Y-178123809D01*
X72447047Y-178161904D01*
X72370857Y-178161904D01*
X72294666Y-178123809D01*
X72256571Y-178085714D01*
X72218476Y-178009523D01*
X72180380Y-177857142D01*
X72180380Y-177666666D01*
X72218476Y-177514285D01*
X72256571Y-177438095D01*
X72294666Y-177400000D01*
X72370857Y-177361904D01*
X87498666Y-173843904D02*
X87232000Y-173462952D01*
X87041523Y-173843904D02*
X87041523Y-173043904D01*
X87346285Y-173043904D01*
X87422476Y-173082000D01*
X87460571Y-173120095D01*
X87498666Y-173196285D01*
X87498666Y-173310571D01*
X87460571Y-173386761D01*
X87422476Y-173424857D01*
X87346285Y-173462952D01*
X87041523Y-173462952D01*
X88184380Y-173043904D02*
X88032000Y-173043904D01*
X87955809Y-173082000D01*
X87917714Y-173120095D01*
X87841523Y-173234380D01*
X87803428Y-173386761D01*
X87803428Y-173691523D01*
X87841523Y-173767714D01*
X87879619Y-173805809D01*
X87955809Y-173843904D01*
X88108190Y-173843904D01*
X88184380Y-173805809D01*
X88222476Y-173767714D01*
X88260571Y-173691523D01*
X88260571Y-173501047D01*
X88222476Y-173424857D01*
X88184380Y-173386761D01*
X88108190Y-173348666D01*
X87955809Y-173348666D01*
X87879619Y-173386761D01*
X87841523Y-173424857D01*
X87803428Y-173501047D01*
X87498666Y-172573904D02*
X87232000Y-172192952D01*
X87041523Y-172573904D02*
X87041523Y-171773904D01*
X87346285Y-171773904D01*
X87422476Y-171812000D01*
X87460571Y-171850095D01*
X87498666Y-171926285D01*
X87498666Y-172040571D01*
X87460571Y-172116761D01*
X87422476Y-172154857D01*
X87346285Y-172192952D01*
X87041523Y-172192952D01*
X87879619Y-172573904D02*
X88032000Y-172573904D01*
X88108190Y-172535809D01*
X88146285Y-172497714D01*
X88222476Y-172383428D01*
X88260571Y-172231047D01*
X88260571Y-171926285D01*
X88222476Y-171850095D01*
X88184380Y-171812000D01*
X88108190Y-171773904D01*
X87955809Y-171773904D01*
X87879619Y-171812000D01*
X87841523Y-171850095D01*
X87803428Y-171926285D01*
X87803428Y-172116761D01*
X87841523Y-172192952D01*
X87879619Y-172231047D01*
X87955809Y-172269142D01*
X88108190Y-172269142D01*
X88184380Y-172231047D01*
X88222476Y-172192952D01*
X88260571Y-172116761D01*
X69881714Y-178032285D02*
X69919809Y-178070380D01*
X69957904Y-178184666D01*
X69957904Y-178260857D01*
X69919809Y-178375142D01*
X69843619Y-178451333D01*
X69767428Y-178489428D01*
X69615047Y-178527523D01*
X69500761Y-178527523D01*
X69348380Y-178489428D01*
X69272190Y-178451333D01*
X69196000Y-178375142D01*
X69157904Y-178260857D01*
X69157904Y-178184666D01*
X69196000Y-178070380D01*
X69234095Y-178032285D01*
X69234095Y-177727523D02*
X69196000Y-177689428D01*
X69157904Y-177613238D01*
X69157904Y-177422761D01*
X69196000Y-177346571D01*
X69234095Y-177308476D01*
X69310285Y-177270380D01*
X69386476Y-177270380D01*
X69500761Y-177308476D01*
X69957904Y-177765619D01*
X69957904Y-177270380D01*
X69157904Y-176546571D02*
X69157904Y-176927523D01*
X69538857Y-176965619D01*
X69500761Y-176927523D01*
X69462666Y-176851333D01*
X69462666Y-176660857D01*
X69500761Y-176584666D01*
X69538857Y-176546571D01*
X69615047Y-176508476D01*
X69805523Y-176508476D01*
X69881714Y-176546571D01*
X69919809Y-176584666D01*
X69957904Y-176660857D01*
X69957904Y-176851333D01*
X69919809Y-176927523D01*
X69881714Y-176965619D01*
X125329904Y-172472285D02*
X124948952Y-172738952D01*
X125329904Y-172929428D02*
X124529904Y-172929428D01*
X124529904Y-172624666D01*
X124568000Y-172548476D01*
X124606095Y-172510380D01*
X124682285Y-172472285D01*
X124796571Y-172472285D01*
X124872761Y-172510380D01*
X124910857Y-172548476D01*
X124948952Y-172624666D01*
X124948952Y-172929428D01*
X125329904Y-171710380D02*
X125329904Y-172167523D01*
X125329904Y-171938952D02*
X124529904Y-171938952D01*
X124644190Y-172015142D01*
X124720380Y-172091333D01*
X124758476Y-172167523D01*
X124872761Y-171253238D02*
X124834666Y-171329428D01*
X124796571Y-171367523D01*
X124720380Y-171405619D01*
X124682285Y-171405619D01*
X124606095Y-171367523D01*
X124568000Y-171329428D01*
X124529904Y-171253238D01*
X124529904Y-171100857D01*
X124568000Y-171024666D01*
X124606095Y-170986571D01*
X124682285Y-170948476D01*
X124720380Y-170948476D01*
X124796571Y-170986571D01*
X124834666Y-171024666D01*
X124872761Y-171100857D01*
X124872761Y-171253238D01*
X124910857Y-171329428D01*
X124948952Y-171367523D01*
X125025142Y-171405619D01*
X125177523Y-171405619D01*
X125253714Y-171367523D01*
X125291809Y-171329428D01*
X125329904Y-171253238D01*
X125329904Y-171100857D01*
X125291809Y-171024666D01*
X125253714Y-170986571D01*
X125177523Y-170948476D01*
X125025142Y-170948476D01*
X124948952Y-170986571D01*
X124910857Y-171024666D01*
X124872761Y-171100857D01*
X121519904Y-172472285D02*
X121138952Y-172738952D01*
X121519904Y-172929428D02*
X120719904Y-172929428D01*
X120719904Y-172624666D01*
X120758000Y-172548476D01*
X120796095Y-172510380D01*
X120872285Y-172472285D01*
X120986571Y-172472285D01*
X121062761Y-172510380D01*
X121100857Y-172548476D01*
X121138952Y-172624666D01*
X121138952Y-172929428D01*
X121519904Y-171710380D02*
X121519904Y-172167523D01*
X121519904Y-171938952D02*
X120719904Y-171938952D01*
X120834190Y-172015142D01*
X120910380Y-172091333D01*
X120948476Y-172167523D01*
X120719904Y-171443714D02*
X120719904Y-170910380D01*
X121519904Y-171253238D01*
X117709904Y-172472285D02*
X117328952Y-172738952D01*
X117709904Y-172929428D02*
X116909904Y-172929428D01*
X116909904Y-172624666D01*
X116948000Y-172548476D01*
X116986095Y-172510380D01*
X117062285Y-172472285D01*
X117176571Y-172472285D01*
X117252761Y-172510380D01*
X117290857Y-172548476D01*
X117328952Y-172624666D01*
X117328952Y-172929428D01*
X117709904Y-171710380D02*
X117709904Y-172167523D01*
X117709904Y-171938952D02*
X116909904Y-171938952D01*
X117024190Y-172015142D01*
X117100380Y-172091333D01*
X117138476Y-172167523D01*
X117176571Y-171024666D02*
X117709904Y-171024666D01*
X116871809Y-171215142D02*
X117443238Y-171405619D01*
X117443238Y-170910380D01*
X111537714Y-172599333D02*
X111575809Y-172637428D01*
X111613904Y-172751714D01*
X111613904Y-172827904D01*
X111575809Y-172942190D01*
X111499619Y-173018380D01*
X111423428Y-173056476D01*
X111271047Y-173094571D01*
X111156761Y-173094571D01*
X111004380Y-173056476D01*
X110928190Y-173018380D01*
X110852000Y-172942190D01*
X110813904Y-172827904D01*
X110813904Y-172751714D01*
X110852000Y-172637428D01*
X110890095Y-172599333D01*
X111156761Y-172142190D02*
X111118666Y-172218380D01*
X111080571Y-172256476D01*
X111004380Y-172294571D01*
X110966285Y-172294571D01*
X110890095Y-172256476D01*
X110852000Y-172218380D01*
X110813904Y-172142190D01*
X110813904Y-171989809D01*
X110852000Y-171913619D01*
X110890095Y-171875523D01*
X110966285Y-171837428D01*
X111004380Y-171837428D01*
X111080571Y-171875523D01*
X111118666Y-171913619D01*
X111156761Y-171989809D01*
X111156761Y-172142190D01*
X111194857Y-172218380D01*
X111232952Y-172256476D01*
X111309142Y-172294571D01*
X111461523Y-172294571D01*
X111537714Y-172256476D01*
X111575809Y-172218380D01*
X111613904Y-172142190D01*
X111613904Y-171989809D01*
X111575809Y-171913619D01*
X111537714Y-171875523D01*
X111461523Y-171837428D01*
X111309142Y-171837428D01*
X111232952Y-171875523D01*
X111194857Y-171913619D01*
X111156761Y-171989809D01*
X60298380Y-153638095D02*
X61107904Y-153638095D01*
X61203142Y-153590476D01*
X61250761Y-153542857D01*
X61298380Y-153447619D01*
X61298380Y-153257142D01*
X61250761Y-153161904D01*
X61203142Y-153114285D01*
X61107904Y-153066666D01*
X60298380Y-153066666D01*
X61298380Y-152066666D02*
X61298380Y-152638095D01*
X61298380Y-152352380D02*
X60298380Y-152352380D01*
X60441238Y-152447619D01*
X60536476Y-152542857D01*
X60584095Y-152638095D01*
X60298380Y-151447619D02*
X60298380Y-151352380D01*
X60346000Y-151257142D01*
X60393619Y-151209523D01*
X60488857Y-151161904D01*
X60679333Y-151114285D01*
X60917428Y-151114285D01*
X61107904Y-151161904D01*
X61203142Y-151209523D01*
X61250761Y-151257142D01*
X61298380Y-151352380D01*
X61298380Y-151447619D01*
X61250761Y-151542857D01*
X61203142Y-151590476D01*
X61107904Y-151638095D01*
X60917428Y-151685714D01*
X60679333Y-151685714D01*
X60488857Y-151638095D01*
X60393619Y-151590476D01*
X60346000Y-151542857D01*
X60298380Y-151447619D01*
X126777714Y-172472285D02*
X126815809Y-172510380D01*
X126853904Y-172624666D01*
X126853904Y-172700857D01*
X126815809Y-172815142D01*
X126739619Y-172891333D01*
X126663428Y-172929428D01*
X126511047Y-172967523D01*
X126396761Y-172967523D01*
X126244380Y-172929428D01*
X126168190Y-172891333D01*
X126092000Y-172815142D01*
X126053904Y-172700857D01*
X126053904Y-172624666D01*
X126092000Y-172510380D01*
X126130095Y-172472285D01*
X126130095Y-172167523D02*
X126092000Y-172129428D01*
X126053904Y-172053238D01*
X126053904Y-171862761D01*
X126092000Y-171786571D01*
X126130095Y-171748476D01*
X126206285Y-171710380D01*
X126282476Y-171710380D01*
X126396761Y-171748476D01*
X126853904Y-172205619D01*
X126853904Y-171710380D01*
X126320571Y-171024666D02*
X126853904Y-171024666D01*
X126015809Y-171215142D02*
X126587238Y-171405619D01*
X126587238Y-170910380D01*
X122967714Y-172472285D02*
X123005809Y-172510380D01*
X123043904Y-172624666D01*
X123043904Y-172700857D01*
X123005809Y-172815142D01*
X122929619Y-172891333D01*
X122853428Y-172929428D01*
X122701047Y-172967523D01*
X122586761Y-172967523D01*
X122434380Y-172929428D01*
X122358190Y-172891333D01*
X122282000Y-172815142D01*
X122243904Y-172700857D01*
X122243904Y-172624666D01*
X122282000Y-172510380D01*
X122320095Y-172472285D01*
X122320095Y-172167523D02*
X122282000Y-172129428D01*
X122243904Y-172053238D01*
X122243904Y-171862761D01*
X122282000Y-171786571D01*
X122320095Y-171748476D01*
X122396285Y-171710380D01*
X122472476Y-171710380D01*
X122586761Y-171748476D01*
X123043904Y-172205619D01*
X123043904Y-171710380D01*
X122320095Y-171405619D02*
X122282000Y-171367523D01*
X122243904Y-171291333D01*
X122243904Y-171100857D01*
X122282000Y-171024666D01*
X122320095Y-170986571D01*
X122396285Y-170948476D01*
X122472476Y-170948476D01*
X122586761Y-170986571D01*
X123043904Y-171443714D01*
X123043904Y-170948476D01*
X110089904Y-172472285D02*
X109708952Y-172738952D01*
X110089904Y-172929428D02*
X109289904Y-172929428D01*
X109289904Y-172624666D01*
X109328000Y-172548476D01*
X109366095Y-172510380D01*
X109442285Y-172472285D01*
X109556571Y-172472285D01*
X109632761Y-172510380D01*
X109670857Y-172548476D01*
X109708952Y-172624666D01*
X109708952Y-172929428D01*
X110089904Y-171710380D02*
X110089904Y-172167523D01*
X110089904Y-171938952D02*
X109289904Y-171938952D01*
X109404190Y-172015142D01*
X109480380Y-172091333D01*
X109518476Y-172167523D01*
X109289904Y-171443714D02*
X109289904Y-170948476D01*
X109594666Y-171215142D01*
X109594666Y-171100857D01*
X109632761Y-171024666D01*
X109670857Y-170986571D01*
X109747047Y-170948476D01*
X109937523Y-170948476D01*
X110013714Y-170986571D01*
X110051809Y-171024666D01*
X110089904Y-171100857D01*
X110089904Y-171329428D01*
X110051809Y-171405619D01*
X110013714Y-171443714D01*
X119157714Y-172472285D02*
X119195809Y-172510380D01*
X119233904Y-172624666D01*
X119233904Y-172700857D01*
X119195809Y-172815142D01*
X119119619Y-172891333D01*
X119043428Y-172929428D01*
X118891047Y-172967523D01*
X118776761Y-172967523D01*
X118624380Y-172929428D01*
X118548190Y-172891333D01*
X118472000Y-172815142D01*
X118433904Y-172700857D01*
X118433904Y-172624666D01*
X118472000Y-172510380D01*
X118510095Y-172472285D01*
X119233904Y-171710380D02*
X119233904Y-172167523D01*
X119233904Y-171938952D02*
X118433904Y-171938952D01*
X118548190Y-172015142D01*
X118624380Y-172091333D01*
X118662476Y-172167523D01*
X119233904Y-170948476D02*
X119233904Y-171405619D01*
X119233904Y-171177047D02*
X118433904Y-171177047D01*
X118548190Y-171253238D01*
X118624380Y-171329428D01*
X118662476Y-171405619D01*
D11*
X136826857Y-114494571D02*
X136826857Y-115708857D01*
X136898285Y-115851714D01*
X136969714Y-115923142D01*
X137112571Y-115994571D01*
X137398285Y-115994571D01*
X137541142Y-115923142D01*
X137612571Y-115851714D01*
X137684000Y-115708857D01*
X137684000Y-114494571D01*
X139184000Y-115994571D02*
X138326857Y-115994571D01*
X138755428Y-115994571D02*
X138755428Y-114494571D01*
X138612571Y-114708857D01*
X138469714Y-114851714D01*
X138326857Y-114923142D01*
X139684000Y-114494571D02*
X140612571Y-114494571D01*
X140112571Y-115066000D01*
X140326857Y-115066000D01*
X140469714Y-115137428D01*
X140541142Y-115208857D01*
X140612571Y-115351714D01*
X140612571Y-115708857D01*
X140541142Y-115851714D01*
X140469714Y-115923142D01*
X140326857Y-115994571D01*
X139898285Y-115994571D01*
X139755428Y-115923142D01*
X139684000Y-115851714D01*
D14*
X147313714Y-114585714D02*
X147275619Y-114623809D01*
X147161333Y-114661904D01*
X147085142Y-114661904D01*
X146970857Y-114623809D01*
X146894666Y-114547619D01*
X146856571Y-114471428D01*
X146818476Y-114319047D01*
X146818476Y-114204761D01*
X146856571Y-114052380D01*
X146894666Y-113976190D01*
X146970857Y-113900000D01*
X147085142Y-113861904D01*
X147161333Y-113861904D01*
X147275619Y-113900000D01*
X147313714Y-113938095D01*
X147999428Y-114128571D02*
X147999428Y-114661904D01*
X147808952Y-113823809D02*
X147618476Y-114395238D01*
X148113714Y-114395238D01*
X148380380Y-113938095D02*
X148418476Y-113900000D01*
X148494666Y-113861904D01*
X148685142Y-113861904D01*
X148761333Y-113900000D01*
X148799428Y-113938095D01*
X148837523Y-114014285D01*
X148837523Y-114090476D01*
X148799428Y-114204761D01*
X148342285Y-114661904D01*
X148837523Y-114661904D01*
X147313714Y-115855714D02*
X147275619Y-115893809D01*
X147161333Y-115931904D01*
X147085142Y-115931904D01*
X146970857Y-115893809D01*
X146894666Y-115817619D01*
X146856571Y-115741428D01*
X146818476Y-115589047D01*
X146818476Y-115474761D01*
X146856571Y-115322380D01*
X146894666Y-115246190D01*
X146970857Y-115170000D01*
X147085142Y-115131904D01*
X147161333Y-115131904D01*
X147275619Y-115170000D01*
X147313714Y-115208095D01*
X147999428Y-115398571D02*
X147999428Y-115931904D01*
X147808952Y-115093809D02*
X147618476Y-115665238D01*
X148113714Y-115665238D01*
X148837523Y-115931904D02*
X148380380Y-115931904D01*
X148608952Y-115931904D02*
X148608952Y-115131904D01*
X148532761Y-115246190D01*
X148456571Y-115322380D01*
X148380380Y-115360476D01*
D11*
X52959142Y-114494571D02*
X52959142Y-115708857D01*
X53030571Y-115851714D01*
X53102000Y-115923142D01*
X53244857Y-115994571D01*
X53530571Y-115994571D01*
X53673428Y-115923142D01*
X53744857Y-115851714D01*
X53816285Y-115708857D01*
X53816285Y-114494571D01*
X54744857Y-115137428D02*
X54602000Y-115066000D01*
X54530571Y-114994571D01*
X54459142Y-114851714D01*
X54459142Y-114780285D01*
X54530571Y-114637428D01*
X54602000Y-114566000D01*
X54744857Y-114494571D01*
X55030571Y-114494571D01*
X55173428Y-114566000D01*
X55244857Y-114637428D01*
X55316285Y-114780285D01*
X55316285Y-114851714D01*
X55244857Y-114994571D01*
X55173428Y-115066000D01*
X55030571Y-115137428D01*
X54744857Y-115137428D01*
X54602000Y-115208857D01*
X54530571Y-115280285D01*
X54459142Y-115423142D01*
X54459142Y-115708857D01*
X54530571Y-115851714D01*
X54602000Y-115923142D01*
X54744857Y-115994571D01*
X55030571Y-115994571D01*
X55173428Y-115923142D01*
X55244857Y-115851714D01*
X55316285Y-115708857D01*
X55316285Y-115423142D01*
X55244857Y-115280285D01*
X55173428Y-115208857D01*
X55030571Y-115137428D01*
D14*
X141763714Y-174917333D02*
X141801809Y-174955428D01*
X141839904Y-175069714D01*
X141839904Y-175145904D01*
X141801809Y-175260190D01*
X141725619Y-175336380D01*
X141649428Y-175374476D01*
X141497047Y-175412571D01*
X141382761Y-175412571D01*
X141230380Y-175374476D01*
X141154190Y-175336380D01*
X141078000Y-175260190D01*
X141039904Y-175145904D01*
X141039904Y-175069714D01*
X141078000Y-174955428D01*
X141116095Y-174917333D01*
X141116095Y-174612571D02*
X141078000Y-174574476D01*
X141039904Y-174498285D01*
X141039904Y-174307809D01*
X141078000Y-174231619D01*
X141116095Y-174193523D01*
X141192285Y-174155428D01*
X141268476Y-174155428D01*
X141382761Y-174193523D01*
X141839904Y-174650666D01*
X141839904Y-174155428D01*
X100505714Y-141103333D02*
X100543809Y-141141428D01*
X100581904Y-141255714D01*
X100581904Y-141331904D01*
X100543809Y-141446190D01*
X100467619Y-141522380D01*
X100391428Y-141560476D01*
X100239047Y-141598571D01*
X100124761Y-141598571D01*
X99972380Y-141560476D01*
X99896190Y-141522380D01*
X99820000Y-141446190D01*
X99781904Y-141331904D01*
X99781904Y-141255714D01*
X99820000Y-141141428D01*
X99858095Y-141103333D01*
X100581904Y-140722380D02*
X100581904Y-140570000D01*
X100543809Y-140493809D01*
X100505714Y-140455714D01*
X100391428Y-140379523D01*
X100239047Y-140341428D01*
X99934285Y-140341428D01*
X99858095Y-140379523D01*
X99820000Y-140417619D01*
X99781904Y-140493809D01*
X99781904Y-140646190D01*
X99820000Y-140722380D01*
X99858095Y-140760476D01*
X99934285Y-140798571D01*
X100124761Y-140798571D01*
X100200952Y-140760476D01*
X100239047Y-140722380D01*
X100277142Y-140646190D01*
X100277142Y-140493809D01*
X100239047Y-140417619D01*
X100200952Y-140379523D01*
X100124761Y-140341428D01*
X135319904Y-174829333D02*
X134938952Y-175096000D01*
X135319904Y-175286476D02*
X134519904Y-175286476D01*
X134519904Y-174981714D01*
X134558000Y-174905523D01*
X134596095Y-174867428D01*
X134672285Y-174829333D01*
X134786571Y-174829333D01*
X134862761Y-174867428D01*
X134900857Y-174905523D01*
X134938952Y-174981714D01*
X134938952Y-175286476D01*
X134786571Y-174143619D02*
X135319904Y-174143619D01*
X134481809Y-174334095D02*
X135053238Y-174524571D01*
X135053238Y-174029333D01*
X136429714Y-174945333D02*
X136467809Y-174983428D01*
X136505904Y-175097714D01*
X136505904Y-175173904D01*
X136467809Y-175288190D01*
X136391619Y-175364380D01*
X136315428Y-175402476D01*
X136163047Y-175440571D01*
X136048761Y-175440571D01*
X135896380Y-175402476D01*
X135820190Y-175364380D01*
X135744000Y-175288190D01*
X135705904Y-175173904D01*
X135705904Y-175097714D01*
X135744000Y-174983428D01*
X135782095Y-174945333D01*
X136505904Y-174183428D02*
X136505904Y-174640571D01*
X136505904Y-174412000D02*
X135705904Y-174412000D01*
X135820190Y-174488190D01*
X135896380Y-174564380D01*
X135934476Y-174640571D01*
X130676666Y-185451714D02*
X130638571Y-185489809D01*
X130524285Y-185527904D01*
X130448095Y-185527904D01*
X130333809Y-185489809D01*
X130257619Y-185413619D01*
X130219523Y-185337428D01*
X130181428Y-185185047D01*
X130181428Y-185070761D01*
X130219523Y-184918380D01*
X130257619Y-184842190D01*
X130333809Y-184766000D01*
X130448095Y-184727904D01*
X130524285Y-184727904D01*
X130638571Y-184766000D01*
X130676666Y-184804095D01*
X131362380Y-184994571D02*
X131362380Y-185527904D01*
X131171904Y-184689809D02*
X130981428Y-185261238D01*
X131476666Y-185261238D01*
X72129714Y-112045714D02*
X72091619Y-112083809D01*
X71977333Y-112121904D01*
X71901142Y-112121904D01*
X71786857Y-112083809D01*
X71710666Y-112007619D01*
X71672571Y-111931428D01*
X71634476Y-111779047D01*
X71634476Y-111664761D01*
X71672571Y-111512380D01*
X71710666Y-111436190D01*
X71786857Y-111360000D01*
X71901142Y-111321904D01*
X71977333Y-111321904D01*
X72091619Y-111360000D01*
X72129714Y-111398095D01*
X72815428Y-111588571D02*
X72815428Y-112121904D01*
X72624952Y-111283809D02*
X72434476Y-111855238D01*
X72929714Y-111855238D01*
X73577333Y-111321904D02*
X73424952Y-111321904D01*
X73348761Y-111360000D01*
X73310666Y-111398095D01*
X73234476Y-111512380D01*
X73196380Y-111664761D01*
X73196380Y-111969523D01*
X73234476Y-112045714D01*
X73272571Y-112083809D01*
X73348761Y-112121904D01*
X73501142Y-112121904D01*
X73577333Y-112083809D01*
X73615428Y-112045714D01*
X73653523Y-111969523D01*
X73653523Y-111779047D01*
X73615428Y-111702857D01*
X73577333Y-111664761D01*
X73501142Y-111626666D01*
X73348761Y-111626666D01*
X73272571Y-111664761D01*
X73234476Y-111702857D01*
X73196380Y-111779047D01*
X82403904Y-171329333D02*
X82022952Y-171596000D01*
X82403904Y-171786476D02*
X81603904Y-171786476D01*
X81603904Y-171481714D01*
X81642000Y-171405523D01*
X81680095Y-171367428D01*
X81756285Y-171329333D01*
X81870571Y-171329333D01*
X81946761Y-171367428D01*
X81984857Y-171405523D01*
X82022952Y-171481714D01*
X82022952Y-171786476D01*
X81680095Y-171024571D02*
X81642000Y-170986476D01*
X81603904Y-170910285D01*
X81603904Y-170719809D01*
X81642000Y-170643619D01*
X81680095Y-170605523D01*
X81756285Y-170567428D01*
X81832476Y-170567428D01*
X81946761Y-170605523D01*
X82403904Y-171062666D01*
X82403904Y-170567428D01*
X90087523Y-180701904D02*
X90087523Y-179901904D01*
X90278000Y-179901904D01*
X90392285Y-179940000D01*
X90468476Y-180016190D01*
X90506571Y-180092380D01*
X90544666Y-180244761D01*
X90544666Y-180359047D01*
X90506571Y-180511428D01*
X90468476Y-180587619D01*
X90392285Y-180663809D01*
X90278000Y-180701904D01*
X90087523Y-180701904D01*
X91230380Y-179901904D02*
X91078000Y-179901904D01*
X91001809Y-179940000D01*
X90963714Y-179978095D01*
X90887523Y-180092380D01*
X90849428Y-180244761D01*
X90849428Y-180549523D01*
X90887523Y-180625714D01*
X90925619Y-180663809D01*
X91001809Y-180701904D01*
X91154190Y-180701904D01*
X91230380Y-180663809D01*
X91268476Y-180625714D01*
X91306571Y-180549523D01*
X91306571Y-180359047D01*
X91268476Y-180282857D01*
X91230380Y-180244761D01*
X91154190Y-180206666D01*
X91001809Y-180206666D01*
X90925619Y-180244761D01*
X90887523Y-180282857D01*
X90849428Y-180359047D01*
X105657714Y-120911904D02*
X105391047Y-120530952D01*
X105200571Y-120911904D02*
X105200571Y-120111904D01*
X105505333Y-120111904D01*
X105581523Y-120150000D01*
X105619619Y-120188095D01*
X105657714Y-120264285D01*
X105657714Y-120378571D01*
X105619619Y-120454761D01*
X105581523Y-120492857D01*
X105505333Y-120530952D01*
X105200571Y-120530952D01*
X105924380Y-120111904D02*
X106419619Y-120111904D01*
X106152952Y-120416666D01*
X106267238Y-120416666D01*
X106343428Y-120454761D01*
X106381523Y-120492857D01*
X106419619Y-120569047D01*
X106419619Y-120759523D01*
X106381523Y-120835714D01*
X106343428Y-120873809D01*
X106267238Y-120911904D01*
X106038666Y-120911904D01*
X105962476Y-120873809D01*
X105924380Y-120835714D01*
X107143428Y-120111904D02*
X106762476Y-120111904D01*
X106724380Y-120492857D01*
X106762476Y-120454761D01*
X106838666Y-120416666D01*
X107029142Y-120416666D01*
X107105333Y-120454761D01*
X107143428Y-120492857D01*
X107181523Y-120569047D01*
X107181523Y-120759523D01*
X107143428Y-120835714D01*
X107105333Y-120873809D01*
X107029142Y-120911904D01*
X106838666Y-120911904D01*
X106762476Y-120873809D01*
X106724380Y-120835714D01*
X100361714Y-102622285D02*
X100399809Y-102660380D01*
X100437904Y-102774666D01*
X100437904Y-102850857D01*
X100399809Y-102965142D01*
X100323619Y-103041333D01*
X100247428Y-103079428D01*
X100095047Y-103117523D01*
X99980761Y-103117523D01*
X99828380Y-103079428D01*
X99752190Y-103041333D01*
X99676000Y-102965142D01*
X99637904Y-102850857D01*
X99637904Y-102774666D01*
X99676000Y-102660380D01*
X99714095Y-102622285D01*
X99637904Y-102355619D02*
X99637904Y-101860380D01*
X99942666Y-102127047D01*
X99942666Y-102012761D01*
X99980761Y-101936571D01*
X100018857Y-101898476D01*
X100095047Y-101860380D01*
X100285523Y-101860380D01*
X100361714Y-101898476D01*
X100399809Y-101936571D01*
X100437904Y-102012761D01*
X100437904Y-102241333D01*
X100399809Y-102317523D01*
X100361714Y-102355619D01*
X99714095Y-101555619D02*
X99676000Y-101517523D01*
X99637904Y-101441333D01*
X99637904Y-101250857D01*
X99676000Y-101174666D01*
X99714095Y-101136571D01*
X99790285Y-101098476D01*
X99866476Y-101098476D01*
X99980761Y-101136571D01*
X100437904Y-101593714D01*
X100437904Y-101098476D01*
X117519523Y-180701904D02*
X117519523Y-179901904D01*
X117710000Y-179901904D01*
X117824285Y-179940000D01*
X117900476Y-180016190D01*
X117938571Y-180092380D01*
X117976666Y-180244761D01*
X117976666Y-180359047D01*
X117938571Y-180511428D01*
X117900476Y-180587619D01*
X117824285Y-180663809D01*
X117710000Y-180701904D01*
X117519523Y-180701904D01*
X118243333Y-179901904D02*
X118776666Y-179901904D01*
X118433809Y-180701904D01*
X84272380Y-177172857D02*
X83796190Y-177506190D01*
X84272380Y-177744285D02*
X83272380Y-177744285D01*
X83272380Y-177363333D01*
X83320000Y-177268095D01*
X83367619Y-177220476D01*
X83462857Y-177172857D01*
X83605714Y-177172857D01*
X83700952Y-177220476D01*
X83748571Y-177268095D01*
X83796190Y-177363333D01*
X83796190Y-177744285D01*
X84272380Y-176220476D02*
X84272380Y-176791904D01*
X84272380Y-176506190D02*
X83272380Y-176506190D01*
X83415238Y-176601428D01*
X83510476Y-176696666D01*
X83558095Y-176791904D01*
X83272380Y-175363333D02*
X83272380Y-175553809D01*
X83320000Y-175649047D01*
X83367619Y-175696666D01*
X83510476Y-175791904D01*
X83700952Y-175839523D01*
X84081904Y-175839523D01*
X84177142Y-175791904D01*
X84224761Y-175744285D01*
X84272380Y-175649047D01*
X84272380Y-175458571D01*
X84224761Y-175363333D01*
X84177142Y-175315714D01*
X84081904Y-175268095D01*
X83843809Y-175268095D01*
X83748571Y-175315714D01*
X83700952Y-175363333D01*
X83653333Y-175458571D01*
X83653333Y-175649047D01*
X83700952Y-175744285D01*
X83748571Y-175791904D01*
X83843809Y-175839523D01*
X78633273Y-160295904D02*
X78633273Y-160943523D01*
X78671369Y-161019714D01*
X78709464Y-161057809D01*
X78785654Y-161095904D01*
X78938035Y-161095904D01*
X79014226Y-161057809D01*
X79052321Y-161019714D01*
X79090416Y-160943523D01*
X79090416Y-160295904D01*
X79890416Y-161095904D02*
X79433273Y-161095904D01*
X79661845Y-161095904D02*
X79661845Y-160295904D01*
X79585654Y-160410190D01*
X79509464Y-160486380D01*
X79433273Y-160524476D01*
X80157083Y-160295904D02*
X80690416Y-160295904D01*
X80347559Y-161095904D01*
X81133904Y-171329333D02*
X80752952Y-171596000D01*
X81133904Y-171786476D02*
X80333904Y-171786476D01*
X80333904Y-171481714D01*
X80372000Y-171405523D01*
X80410095Y-171367428D01*
X80486285Y-171329333D01*
X80600571Y-171329333D01*
X80676761Y-171367428D01*
X80714857Y-171405523D01*
X80752952Y-171481714D01*
X80752952Y-171786476D01*
X80333904Y-171062666D02*
X80333904Y-170567428D01*
X80638666Y-170834095D01*
X80638666Y-170719809D01*
X80676761Y-170643619D01*
X80714857Y-170605523D01*
X80791047Y-170567428D01*
X80981523Y-170567428D01*
X81057714Y-170605523D01*
X81095809Y-170643619D01*
X81133904Y-170719809D01*
X81133904Y-170948380D01*
X81095809Y-171024571D01*
X81057714Y-171062666D01*
X118649714Y-146310285D02*
X118687809Y-146348380D01*
X118725904Y-146462666D01*
X118725904Y-146538857D01*
X118687809Y-146653142D01*
X118611619Y-146729333D01*
X118535428Y-146767428D01*
X118383047Y-146805523D01*
X118268761Y-146805523D01*
X118116380Y-146767428D01*
X118040190Y-146729333D01*
X117964000Y-146653142D01*
X117925904Y-146538857D01*
X117925904Y-146462666D01*
X117964000Y-146348380D01*
X118002095Y-146310285D01*
X118002095Y-146005523D02*
X117964000Y-145967428D01*
X117925904Y-145891238D01*
X117925904Y-145700761D01*
X117964000Y-145624571D01*
X118002095Y-145586476D01*
X118078285Y-145548380D01*
X118154476Y-145548380D01*
X118268761Y-145586476D01*
X118725904Y-146043619D01*
X118725904Y-145548380D01*
X117925904Y-144862666D02*
X117925904Y-145015047D01*
X117964000Y-145091238D01*
X118002095Y-145129333D01*
X118116380Y-145205523D01*
X118268761Y-145243619D01*
X118573523Y-145243619D01*
X118649714Y-145205523D01*
X118687809Y-145167428D01*
X118725904Y-145091238D01*
X118725904Y-144938857D01*
X118687809Y-144862666D01*
X118649714Y-144824571D01*
X118573523Y-144786476D01*
X118383047Y-144786476D01*
X118306857Y-144824571D01*
X118268761Y-144862666D01*
X118230666Y-144938857D01*
X118230666Y-145091238D01*
X118268761Y-145167428D01*
X118306857Y-145205523D01*
X118383047Y-145243619D01*
X138281523Y-179353404D02*
X138281523Y-178553404D01*
X138472000Y-178553404D01*
X138586285Y-178591500D01*
X138662476Y-178667690D01*
X138700571Y-178743880D01*
X138738666Y-178896261D01*
X138738666Y-179010547D01*
X138700571Y-179162928D01*
X138662476Y-179239119D01*
X138586285Y-179315309D01*
X138472000Y-179353404D01*
X138281523Y-179353404D01*
X139424380Y-178820071D02*
X139424380Y-179353404D01*
X139233904Y-178515309D02*
X139043428Y-179086738D01*
X139538666Y-179086738D01*
D11*
X89582857Y-92904571D02*
X89582857Y-94118857D01*
X89654285Y-94261714D01*
X89725714Y-94333142D01*
X89868571Y-94404571D01*
X90154285Y-94404571D01*
X90297142Y-94333142D01*
X90368571Y-94261714D01*
X90440000Y-94118857D01*
X90440000Y-92904571D01*
X91940000Y-94404571D02*
X91082857Y-94404571D01*
X91511428Y-94404571D02*
X91511428Y-92904571D01*
X91368571Y-93118857D01*
X91225714Y-93261714D01*
X91082857Y-93333142D01*
X93368571Y-94404571D02*
X92511428Y-94404571D01*
X92940000Y-94404571D02*
X92940000Y-92904571D01*
X92797142Y-93118857D01*
X92654285Y-93261714D01*
X92511428Y-93333142D01*
D14*
X109518571Y-180701904D02*
X109518571Y-179901904D01*
X109709047Y-179901904D01*
X109823333Y-179940000D01*
X109899523Y-180016190D01*
X109937619Y-180092380D01*
X109975714Y-180244761D01*
X109975714Y-180359047D01*
X109937619Y-180511428D01*
X109899523Y-180587619D01*
X109823333Y-180663809D01*
X109709047Y-180701904D01*
X109518571Y-180701904D01*
X110737619Y-180701904D02*
X110280476Y-180701904D01*
X110509047Y-180701904D02*
X110509047Y-179901904D01*
X110432857Y-180016190D01*
X110356666Y-180092380D01*
X110280476Y-180130476D01*
X111232857Y-179901904D02*
X111309047Y-179901904D01*
X111385238Y-179940000D01*
X111423333Y-179978095D01*
X111461428Y-180054285D01*
X111499523Y-180206666D01*
X111499523Y-180397142D01*
X111461428Y-180549523D01*
X111423333Y-180625714D01*
X111385238Y-180663809D01*
X111309047Y-180701904D01*
X111232857Y-180701904D01*
X111156666Y-180663809D01*
X111118571Y-180625714D01*
X111080476Y-180549523D01*
X111042380Y-180397142D01*
X111042380Y-180206666D01*
X111080476Y-180054285D01*
X111118571Y-179978095D01*
X111156666Y-179940000D01*
X111232857Y-179901904D01*
X113079904Y-134729523D02*
X113727523Y-134729523D01*
X113803714Y-134691428D01*
X113841809Y-134653333D01*
X113879904Y-134577142D01*
X113879904Y-134424761D01*
X113841809Y-134348571D01*
X113803714Y-134310476D01*
X113727523Y-134272380D01*
X113079904Y-134272380D01*
X113079904Y-133967619D02*
X113079904Y-133472380D01*
X113384666Y-133739047D01*
X113384666Y-133624761D01*
X113422761Y-133548571D01*
X113460857Y-133510476D01*
X113537047Y-133472380D01*
X113727523Y-133472380D01*
X113803714Y-133510476D01*
X113841809Y-133548571D01*
X113879904Y-133624761D01*
X113879904Y-133853333D01*
X113841809Y-133929523D01*
X113803714Y-133967619D01*
X105657714Y-118371904D02*
X105391047Y-117990952D01*
X105200571Y-118371904D02*
X105200571Y-117571904D01*
X105505333Y-117571904D01*
X105581523Y-117610000D01*
X105619619Y-117648095D01*
X105657714Y-117724285D01*
X105657714Y-117838571D01*
X105619619Y-117914761D01*
X105581523Y-117952857D01*
X105505333Y-117990952D01*
X105200571Y-117990952D01*
X105924380Y-117571904D02*
X106419619Y-117571904D01*
X106152952Y-117876666D01*
X106267238Y-117876666D01*
X106343428Y-117914761D01*
X106381523Y-117952857D01*
X106419619Y-118029047D01*
X106419619Y-118219523D01*
X106381523Y-118295714D01*
X106343428Y-118333809D01*
X106267238Y-118371904D01*
X106038666Y-118371904D01*
X105962476Y-118333809D01*
X105924380Y-118295714D01*
X107105333Y-117571904D02*
X106952952Y-117571904D01*
X106876761Y-117610000D01*
X106838666Y-117648095D01*
X106762476Y-117762380D01*
X106724380Y-117914761D01*
X106724380Y-118219523D01*
X106762476Y-118295714D01*
X106800571Y-118333809D01*
X106876761Y-118371904D01*
X107029142Y-118371904D01*
X107105333Y-118333809D01*
X107143428Y-118295714D01*
X107181523Y-118219523D01*
X107181523Y-118029047D01*
X107143428Y-117952857D01*
X107105333Y-117914761D01*
X107029142Y-117876666D01*
X106876761Y-117876666D01*
X106800571Y-117914761D01*
X106762476Y-117952857D01*
X106724380Y-118029047D01*
X136137714Y-101377714D02*
X136099619Y-101415809D01*
X135985333Y-101453904D01*
X135909142Y-101453904D01*
X135794857Y-101415809D01*
X135718666Y-101339619D01*
X135680571Y-101263428D01*
X135642476Y-101111047D01*
X135642476Y-100996761D01*
X135680571Y-100844380D01*
X135718666Y-100768190D01*
X135794857Y-100692000D01*
X135909142Y-100653904D01*
X135985333Y-100653904D01*
X136099619Y-100692000D01*
X136137714Y-100730095D01*
X136404380Y-100653904D02*
X136899619Y-100653904D01*
X136632952Y-100958666D01*
X136747238Y-100958666D01*
X136823428Y-100996761D01*
X136861523Y-101034857D01*
X136899619Y-101111047D01*
X136899619Y-101301523D01*
X136861523Y-101377714D01*
X136823428Y-101415809D01*
X136747238Y-101453904D01*
X136518666Y-101453904D01*
X136442476Y-101415809D01*
X136404380Y-101377714D01*
X137585333Y-100653904D02*
X137432952Y-100653904D01*
X137356761Y-100692000D01*
X137318666Y-100730095D01*
X137242476Y-100844380D01*
X137204380Y-100996761D01*
X137204380Y-101301523D01*
X137242476Y-101377714D01*
X137280571Y-101415809D01*
X137356761Y-101453904D01*
X137509142Y-101453904D01*
X137585333Y-101415809D01*
X137623428Y-101377714D01*
X137661523Y-101301523D01*
X137661523Y-101111047D01*
X137623428Y-101034857D01*
X137585333Y-100996761D01*
X137509142Y-100958666D01*
X137356761Y-100958666D01*
X137280571Y-100996761D01*
X137242476Y-101034857D01*
X137204380Y-101111047D01*
X136652095Y-152224380D02*
X136652095Y-153033904D01*
X136699714Y-153129142D01*
X136747333Y-153176761D01*
X136842571Y-153224380D01*
X137033047Y-153224380D01*
X137128285Y-153176761D01*
X137175904Y-153129142D01*
X137223523Y-153033904D01*
X137223523Y-152224380D01*
X137652095Y-152319619D02*
X137699714Y-152272000D01*
X137794952Y-152224380D01*
X138033047Y-152224380D01*
X138128285Y-152272000D01*
X138175904Y-152319619D01*
X138223523Y-152414857D01*
X138223523Y-152510095D01*
X138175904Y-152652952D01*
X137604476Y-153224380D01*
X138223523Y-153224380D01*
X113328571Y-180701904D02*
X113328571Y-179901904D01*
X113519047Y-179901904D01*
X113633333Y-179940000D01*
X113709523Y-180016190D01*
X113747619Y-180092380D01*
X113785714Y-180244761D01*
X113785714Y-180359047D01*
X113747619Y-180511428D01*
X113709523Y-180587619D01*
X113633333Y-180663809D01*
X113519047Y-180701904D01*
X113328571Y-180701904D01*
X114547619Y-180701904D02*
X114090476Y-180701904D01*
X114319047Y-180701904D02*
X114319047Y-179901904D01*
X114242857Y-180016190D01*
X114166666Y-180092380D01*
X114090476Y-180130476D01*
X115309523Y-180701904D02*
X114852380Y-180701904D01*
X115080952Y-180701904D02*
X115080952Y-179901904D01*
X115004761Y-180016190D01*
X114928571Y-180092380D01*
X114852380Y-180130476D01*
X100591904Y-143984285D02*
X100210952Y-144250952D01*
X100591904Y-144441428D02*
X99791904Y-144441428D01*
X99791904Y-144136666D01*
X99830000Y-144060476D01*
X99868095Y-144022380D01*
X99944285Y-143984285D01*
X100058571Y-143984285D01*
X100134761Y-144022380D01*
X100172857Y-144060476D01*
X100210952Y-144136666D01*
X100210952Y-144441428D01*
X99868095Y-143679523D02*
X99830000Y-143641428D01*
X99791904Y-143565238D01*
X99791904Y-143374761D01*
X99830000Y-143298571D01*
X99868095Y-143260476D01*
X99944285Y-143222380D01*
X100020476Y-143222380D01*
X100134761Y-143260476D01*
X100591904Y-143717619D01*
X100591904Y-143222380D01*
X100591904Y-142460476D02*
X100591904Y-142917619D01*
X100591904Y-142689047D02*
X99791904Y-142689047D01*
X99906190Y-142765238D01*
X99982380Y-142841428D01*
X100020476Y-142917619D01*
X101771523Y-180701904D02*
X101771523Y-179901904D01*
X101962000Y-179901904D01*
X102076285Y-179940000D01*
X102152476Y-180016190D01*
X102190571Y-180092380D01*
X102228666Y-180244761D01*
X102228666Y-180359047D01*
X102190571Y-180511428D01*
X102152476Y-180587619D01*
X102076285Y-180663809D01*
X101962000Y-180701904D01*
X101771523Y-180701904D01*
X102952476Y-179901904D02*
X102571523Y-179901904D01*
X102533428Y-180282857D01*
X102571523Y-180244761D01*
X102647714Y-180206666D01*
X102838190Y-180206666D01*
X102914380Y-180244761D01*
X102952476Y-180282857D01*
X102990571Y-180359047D01*
X102990571Y-180549523D01*
X102952476Y-180625714D01*
X102914380Y-180663809D01*
X102838190Y-180701904D01*
X102647714Y-180701904D01*
X102571523Y-180663809D01*
X102533428Y-180625714D01*
X79109464Y-167119714D02*
X79071369Y-167157809D01*
X78957083Y-167195904D01*
X78880892Y-167195904D01*
X78766607Y-167157809D01*
X78690416Y-167081619D01*
X78652321Y-167005428D01*
X78614226Y-166853047D01*
X78614226Y-166738761D01*
X78652321Y-166586380D01*
X78690416Y-166510190D01*
X78766607Y-166434000D01*
X78880892Y-166395904D01*
X78957083Y-166395904D01*
X79071369Y-166434000D01*
X79109464Y-166472095D01*
X79795178Y-166662571D02*
X79795178Y-167195904D01*
X79604702Y-166357809D02*
X79414226Y-166929238D01*
X79909464Y-166929238D01*
X80328511Y-166738761D02*
X80252321Y-166700666D01*
X80214226Y-166662571D01*
X80176130Y-166586380D01*
X80176130Y-166548285D01*
X80214226Y-166472095D01*
X80252321Y-166434000D01*
X80328511Y-166395904D01*
X80480892Y-166395904D01*
X80557083Y-166434000D01*
X80595178Y-166472095D01*
X80633273Y-166548285D01*
X80633273Y-166586380D01*
X80595178Y-166662571D01*
X80557083Y-166700666D01*
X80480892Y-166738761D01*
X80328511Y-166738761D01*
X80252321Y-166776857D01*
X80214226Y-166814952D01*
X80176130Y-166891142D01*
X80176130Y-167043523D01*
X80214226Y-167119714D01*
X80252321Y-167157809D01*
X80328511Y-167195904D01*
X80480892Y-167195904D01*
X80557083Y-167157809D01*
X80595178Y-167119714D01*
X80633273Y-167043523D01*
X80633273Y-166891142D01*
X80595178Y-166814952D01*
X80557083Y-166776857D01*
X80480892Y-166738761D01*
X91865904Y-142246285D02*
X91484952Y-142512952D01*
X91865904Y-142703428D02*
X91065904Y-142703428D01*
X91065904Y-142398666D01*
X91104000Y-142322476D01*
X91142095Y-142284380D01*
X91218285Y-142246285D01*
X91332571Y-142246285D01*
X91408761Y-142284380D01*
X91446857Y-142322476D01*
X91484952Y-142398666D01*
X91484952Y-142703428D01*
X91142095Y-141941523D02*
X91104000Y-141903428D01*
X91065904Y-141827238D01*
X91065904Y-141636761D01*
X91104000Y-141560571D01*
X91142095Y-141522476D01*
X91218285Y-141484380D01*
X91294476Y-141484380D01*
X91408761Y-141522476D01*
X91865904Y-141979619D01*
X91865904Y-141484380D01*
X91142095Y-141179619D02*
X91104000Y-141141523D01*
X91065904Y-141065333D01*
X91065904Y-140874857D01*
X91104000Y-140798666D01*
X91142095Y-140760571D01*
X91218285Y-140722476D01*
X91294476Y-140722476D01*
X91408761Y-140760571D01*
X91865904Y-141217714D01*
X91865904Y-140722476D01*
X121329523Y-180701904D02*
X121329523Y-179901904D01*
X121520000Y-179901904D01*
X121634285Y-179940000D01*
X121710476Y-180016190D01*
X121748571Y-180092380D01*
X121786666Y-180244761D01*
X121786666Y-180359047D01*
X121748571Y-180511428D01*
X121710476Y-180587619D01*
X121634285Y-180663809D01*
X121520000Y-180701904D01*
X121329523Y-180701904D01*
X122243809Y-180244761D02*
X122167619Y-180206666D01*
X122129523Y-180168571D01*
X122091428Y-180092380D01*
X122091428Y-180054285D01*
X122129523Y-179978095D01*
X122167619Y-179940000D01*
X122243809Y-179901904D01*
X122396190Y-179901904D01*
X122472380Y-179940000D01*
X122510476Y-179978095D01*
X122548571Y-180054285D01*
X122548571Y-180092380D01*
X122510476Y-180168571D01*
X122472380Y-180206666D01*
X122396190Y-180244761D01*
X122243809Y-180244761D01*
X122167619Y-180282857D01*
X122129523Y-180320952D01*
X122091428Y-180397142D01*
X122091428Y-180549523D01*
X122129523Y-180625714D01*
X122167619Y-180663809D01*
X122243809Y-180701904D01*
X122396190Y-180701904D01*
X122472380Y-180663809D01*
X122510476Y-180625714D01*
X122548571Y-180549523D01*
X122548571Y-180397142D01*
X122510476Y-180320952D01*
X122472380Y-180282857D01*
X122396190Y-180244761D01*
X79787714Y-171329333D02*
X79825809Y-171367428D01*
X79863904Y-171481714D01*
X79863904Y-171557904D01*
X79825809Y-171672190D01*
X79749619Y-171748380D01*
X79673428Y-171786476D01*
X79521047Y-171824571D01*
X79406761Y-171824571D01*
X79254380Y-171786476D01*
X79178190Y-171748380D01*
X79102000Y-171672190D01*
X79063904Y-171557904D01*
X79063904Y-171481714D01*
X79102000Y-171367428D01*
X79140095Y-171329333D01*
X79063904Y-170605523D02*
X79063904Y-170986476D01*
X79444857Y-171024571D01*
X79406761Y-170986476D01*
X79368666Y-170910285D01*
X79368666Y-170719809D01*
X79406761Y-170643619D01*
X79444857Y-170605523D01*
X79521047Y-170567428D01*
X79711523Y-170567428D01*
X79787714Y-170605523D01*
X79825809Y-170643619D01*
X79863904Y-170719809D01*
X79863904Y-170910285D01*
X79825809Y-170986476D01*
X79787714Y-171024571D01*
X138569523Y-184551904D02*
X138569523Y-183751904D01*
X138760000Y-183751904D01*
X138874285Y-183790000D01*
X138950476Y-183866190D01*
X138988571Y-183942380D01*
X139026666Y-184094761D01*
X139026666Y-184209047D01*
X138988571Y-184361428D01*
X138950476Y-184437619D01*
X138874285Y-184513809D01*
X138760000Y-184551904D01*
X138569523Y-184551904D01*
X139293333Y-183751904D02*
X139788571Y-183751904D01*
X139521904Y-184056666D01*
X139636190Y-184056666D01*
X139712380Y-184094761D01*
X139750476Y-184132857D01*
X139788571Y-184209047D01*
X139788571Y-184399523D01*
X139750476Y-184475714D01*
X139712380Y-184513809D01*
X139636190Y-184551904D01*
X139407619Y-184551904D01*
X139331428Y-184513809D01*
X139293333Y-184475714D01*
X95319523Y-135131904D02*
X95319523Y-135779523D01*
X95357619Y-135855714D01*
X95395714Y-135893809D01*
X95471904Y-135931904D01*
X95624285Y-135931904D01*
X95700476Y-135893809D01*
X95738571Y-135855714D01*
X95776666Y-135779523D01*
X95776666Y-135131904D01*
X96576666Y-135931904D02*
X96119523Y-135931904D01*
X96348095Y-135931904D02*
X96348095Y-135131904D01*
X96271904Y-135246190D01*
X96195714Y-135322380D01*
X96119523Y-135360476D01*
X97300476Y-135131904D02*
X96919523Y-135131904D01*
X96881428Y-135512857D01*
X96919523Y-135474761D01*
X96995714Y-135436666D01*
X97186190Y-135436666D01*
X97262380Y-135474761D01*
X97300476Y-135512857D01*
X97338571Y-135589047D01*
X97338571Y-135779523D01*
X97300476Y-135855714D01*
X97262380Y-135893809D01*
X97186190Y-135931904D01*
X96995714Y-135931904D01*
X96919523Y-135893809D01*
X96881428Y-135855714D01*
X73406095Y-170246380D02*
X73406095Y-171055904D01*
X73453714Y-171151142D01*
X73501333Y-171198761D01*
X73596571Y-171246380D01*
X73787047Y-171246380D01*
X73882285Y-171198761D01*
X73929904Y-171151142D01*
X73977523Y-171055904D01*
X73977523Y-170246380D01*
X74977523Y-171246380D02*
X74406095Y-171246380D01*
X74691809Y-171246380D02*
X74691809Y-170246380D01*
X74596571Y-170389238D01*
X74501333Y-170484476D01*
X74406095Y-170532095D01*
X101337714Y-112553714D02*
X101299619Y-112591809D01*
X101185333Y-112629904D01*
X101109142Y-112629904D01*
X100994857Y-112591809D01*
X100918666Y-112515619D01*
X100880571Y-112439428D01*
X100842476Y-112287047D01*
X100842476Y-112172761D01*
X100880571Y-112020380D01*
X100918666Y-111944190D01*
X100994857Y-111868000D01*
X101109142Y-111829904D01*
X101185333Y-111829904D01*
X101299619Y-111868000D01*
X101337714Y-111906095D01*
X101642476Y-111906095D02*
X101680571Y-111868000D01*
X101756761Y-111829904D01*
X101947238Y-111829904D01*
X102023428Y-111868000D01*
X102061523Y-111906095D01*
X102099619Y-111982285D01*
X102099619Y-112058476D01*
X102061523Y-112172761D01*
X101604380Y-112629904D01*
X102099619Y-112629904D01*
X102366285Y-111829904D02*
X102899619Y-111829904D01*
X102556761Y-112629904D01*
X80295714Y-178060285D02*
X80333809Y-178098380D01*
X80371904Y-178212666D01*
X80371904Y-178288857D01*
X80333809Y-178403142D01*
X80257619Y-178479333D01*
X80181428Y-178517428D01*
X80029047Y-178555523D01*
X79914761Y-178555523D01*
X79762380Y-178517428D01*
X79686190Y-178479333D01*
X79610000Y-178403142D01*
X79571904Y-178288857D01*
X79571904Y-178212666D01*
X79610000Y-178098380D01*
X79648095Y-178060285D01*
X79571904Y-177793619D02*
X79571904Y-177298380D01*
X79876666Y-177565047D01*
X79876666Y-177450761D01*
X79914761Y-177374571D01*
X79952857Y-177336476D01*
X80029047Y-177298380D01*
X80219523Y-177298380D01*
X80295714Y-177336476D01*
X80333809Y-177374571D01*
X80371904Y-177450761D01*
X80371904Y-177679333D01*
X80333809Y-177755523D01*
X80295714Y-177793619D01*
X79571904Y-176574571D02*
X79571904Y-176955523D01*
X79952857Y-176993619D01*
X79914761Y-176955523D01*
X79876666Y-176879333D01*
X79876666Y-176688857D01*
X79914761Y-176612666D01*
X79952857Y-176574571D01*
X80029047Y-176536476D01*
X80219523Y-176536476D01*
X80295714Y-176574571D01*
X80333809Y-176612666D01*
X80371904Y-176688857D01*
X80371904Y-176879333D01*
X80333809Y-176955523D01*
X80295714Y-176993619D01*
X125139523Y-180701904D02*
X125139523Y-179901904D01*
X125330000Y-179901904D01*
X125444285Y-179940000D01*
X125520476Y-180016190D01*
X125558571Y-180092380D01*
X125596666Y-180244761D01*
X125596666Y-180359047D01*
X125558571Y-180511428D01*
X125520476Y-180587619D01*
X125444285Y-180663809D01*
X125330000Y-180701904D01*
X125139523Y-180701904D01*
X125977619Y-180701904D02*
X126130000Y-180701904D01*
X126206190Y-180663809D01*
X126244285Y-180625714D01*
X126320476Y-180511428D01*
X126358571Y-180359047D01*
X126358571Y-180054285D01*
X126320476Y-179978095D01*
X126282380Y-179940000D01*
X126206190Y-179901904D01*
X126053809Y-179901904D01*
X125977619Y-179940000D01*
X125939523Y-179978095D01*
X125901428Y-180054285D01*
X125901428Y-180244761D01*
X125939523Y-180320952D01*
X125977619Y-180359047D01*
X126053809Y-180397142D01*
X126206190Y-180397142D01*
X126282380Y-180359047D01*
X126320476Y-180320952D01*
X126358571Y-180244761D01*
X105545714Y-141505714D02*
X105507619Y-141543809D01*
X105393333Y-141581904D01*
X105317142Y-141581904D01*
X105202857Y-141543809D01*
X105126666Y-141467619D01*
X105088571Y-141391428D01*
X105050476Y-141239047D01*
X105050476Y-141124761D01*
X105088571Y-140972380D01*
X105126666Y-140896190D01*
X105202857Y-140820000D01*
X105317142Y-140781904D01*
X105393333Y-140781904D01*
X105507619Y-140820000D01*
X105545714Y-140858095D01*
X105812380Y-140781904D02*
X106307619Y-140781904D01*
X106040952Y-141086666D01*
X106155238Y-141086666D01*
X106231428Y-141124761D01*
X106269523Y-141162857D01*
X106307619Y-141239047D01*
X106307619Y-141429523D01*
X106269523Y-141505714D01*
X106231428Y-141543809D01*
X106155238Y-141581904D01*
X105926666Y-141581904D01*
X105850476Y-141543809D01*
X105812380Y-141505714D01*
X106574285Y-140781904D02*
X107069523Y-140781904D01*
X106802857Y-141086666D01*
X106917142Y-141086666D01*
X106993333Y-141124761D01*
X107031428Y-141162857D01*
X107069523Y-141239047D01*
X107069523Y-141429523D01*
X107031428Y-141505714D01*
X106993333Y-141543809D01*
X106917142Y-141581904D01*
X106688571Y-141581904D01*
X106612380Y-141543809D01*
X106574285Y-141505714D01*
X100595714Y-138984285D02*
X100633809Y-139022380D01*
X100671904Y-139136666D01*
X100671904Y-139212857D01*
X100633809Y-139327142D01*
X100557619Y-139403333D01*
X100481428Y-139441428D01*
X100329047Y-139479523D01*
X100214761Y-139479523D01*
X100062380Y-139441428D01*
X99986190Y-139403333D01*
X99910000Y-139327142D01*
X99871904Y-139212857D01*
X99871904Y-139136666D01*
X99910000Y-139022380D01*
X99948095Y-138984285D01*
X99871904Y-138717619D02*
X99871904Y-138222380D01*
X100176666Y-138489047D01*
X100176666Y-138374761D01*
X100214761Y-138298571D01*
X100252857Y-138260476D01*
X100329047Y-138222380D01*
X100519523Y-138222380D01*
X100595714Y-138260476D01*
X100633809Y-138298571D01*
X100671904Y-138374761D01*
X100671904Y-138603333D01*
X100633809Y-138679523D01*
X100595714Y-138717619D01*
X100138571Y-137536666D02*
X100671904Y-137536666D01*
X99833809Y-137727142D02*
X100405238Y-137917619D01*
X100405238Y-137422380D01*
X101337714Y-111359904D02*
X101071047Y-110978952D01*
X100880571Y-111359904D02*
X100880571Y-110559904D01*
X101185333Y-110559904D01*
X101261523Y-110598000D01*
X101299619Y-110636095D01*
X101337714Y-110712285D01*
X101337714Y-110826571D01*
X101299619Y-110902761D01*
X101261523Y-110940857D01*
X101185333Y-110978952D01*
X100880571Y-110978952D01*
X102099619Y-111359904D02*
X101642476Y-111359904D01*
X101871047Y-111359904D02*
X101871047Y-110559904D01*
X101794857Y-110674190D01*
X101718666Y-110750380D01*
X101642476Y-110788476D01*
X102594857Y-110559904D02*
X102671047Y-110559904D01*
X102747238Y-110598000D01*
X102785333Y-110636095D01*
X102823428Y-110712285D01*
X102861523Y-110864666D01*
X102861523Y-111055142D01*
X102823428Y-111207523D01*
X102785333Y-111283714D01*
X102747238Y-111321809D01*
X102671047Y-111359904D01*
X102594857Y-111359904D01*
X102518666Y-111321809D01*
X102480571Y-111283714D01*
X102442476Y-111207523D01*
X102404380Y-111055142D01*
X102404380Y-110864666D01*
X102442476Y-110712285D01*
X102480571Y-110636095D01*
X102518666Y-110598000D01*
X102594857Y-110559904D01*
X62223714Y-156825904D02*
X61957047Y-156444952D01*
X61766571Y-156825904D02*
X61766571Y-156025904D01*
X62071333Y-156025904D01*
X62147523Y-156064000D01*
X62185619Y-156102095D01*
X62223714Y-156178285D01*
X62223714Y-156292571D01*
X62185619Y-156368761D01*
X62147523Y-156406857D01*
X62071333Y-156444952D01*
X61766571Y-156444952D01*
X62985619Y-156825904D02*
X62528476Y-156825904D01*
X62757047Y-156825904D02*
X62757047Y-156025904D01*
X62680857Y-156140190D01*
X62604666Y-156216380D01*
X62528476Y-156254476D01*
X63366571Y-156825904D02*
X63518952Y-156825904D01*
X63595142Y-156787809D01*
X63633238Y-156749714D01*
X63709428Y-156635428D01*
X63747523Y-156483047D01*
X63747523Y-156178285D01*
X63709428Y-156102095D01*
X63671333Y-156064000D01*
X63595142Y-156025904D01*
X63442761Y-156025904D01*
X63366571Y-156064000D01*
X63328476Y-156102095D01*
X63290380Y-156178285D01*
X63290380Y-156368761D01*
X63328476Y-156444952D01*
X63366571Y-156483047D01*
X63442761Y-156521142D01*
X63595142Y-156521142D01*
X63671333Y-156483047D01*
X63709428Y-156444952D01*
X63747523Y-156368761D01*
X130676666Y-187737714D02*
X130638571Y-187775809D01*
X130524285Y-187813904D01*
X130448095Y-187813904D01*
X130333809Y-187775809D01*
X130257619Y-187699619D01*
X130219523Y-187623428D01*
X130181428Y-187471047D01*
X130181428Y-187356761D01*
X130219523Y-187204380D01*
X130257619Y-187128190D01*
X130333809Y-187052000D01*
X130448095Y-187013904D01*
X130524285Y-187013904D01*
X130638571Y-187052000D01*
X130676666Y-187090095D01*
X130943333Y-187013904D02*
X131438571Y-187013904D01*
X131171904Y-187318666D01*
X131286190Y-187318666D01*
X131362380Y-187356761D01*
X131400476Y-187394857D01*
X131438571Y-187471047D01*
X131438571Y-187661523D01*
X131400476Y-187737714D01*
X131362380Y-187775809D01*
X131286190Y-187813904D01*
X131057619Y-187813904D01*
X130981428Y-187775809D01*
X130943333Y-187737714D01*
D10*
X95610000Y-174390164D02*
X95610000Y-174605836D01*
X94890000Y-174390164D02*
X94890000Y-174605836D01*
X98954000Y-174390164D02*
X98954000Y-174605836D01*
X99674000Y-174390164D02*
X99674000Y-174605836D01*
X103484000Y-174390164D02*
X103484000Y-174605836D01*
X102764000Y-174390164D02*
X102764000Y-174605836D01*
X135221000Y-103678000D02*
X122116000Y-103678000D01*
X133916000Y-95458000D02*
X122116000Y-95458000D01*
X132869553Y-99568000D02*
G75*
G03*
X132869553Y-99568000I-353553J0D01*
G01*
X74783836Y-116480000D02*
X74568164Y-116480000D01*
X74783836Y-117200000D02*
X74568164Y-117200000D01*
X74783836Y-115930000D02*
X74568164Y-115930000D01*
X74783836Y-115210000D02*
X74568164Y-115210000D01*
X94106000Y-174651641D02*
X94106000Y-174344359D01*
X93346000Y-174651641D02*
X93346000Y-174344359D01*
X98170000Y-174651641D02*
X98170000Y-174344359D01*
X97410000Y-174651641D02*
X97410000Y-174344359D01*
X101220000Y-174651641D02*
X101220000Y-174344359D01*
X101980000Y-174651641D02*
X101980000Y-174344359D01*
X61829836Y-115210000D02*
X61614164Y-115210000D01*
X61829836Y-115930000D02*
X61614164Y-115930000D01*
X78126000Y-155047836D02*
X78126000Y-154832164D01*
X78846000Y-155047836D02*
X78846000Y-154832164D01*
X74630000Y-153255000D02*
X74630000Y-140150000D01*
X82850000Y-151950000D02*
X82850000Y-140150000D01*
X79093553Y-150550000D02*
G75*
G03*
X79093553Y-150550000I-353553J0D01*
G01*
X141077836Y-152548000D02*
X140862164Y-152548000D01*
X141077836Y-153268000D02*
X140862164Y-153268000D01*
X91800000Y-174390164D02*
X91800000Y-174605836D01*
X91080000Y-174390164D02*
X91080000Y-174605836D01*
X89536000Y-174651641D02*
X89536000Y-174344359D01*
X90296000Y-174651641D02*
X90296000Y-174344359D01*
X132660000Y-197345000D02*
X132660000Y-195945000D01*
X132660000Y-193695000D02*
X132660000Y-191945000D01*
X141660000Y-193695000D02*
X141660000Y-191945000D01*
X141660000Y-197345000D02*
X141660000Y-195945000D01*
X129567000Y-193256000D02*
X129567000Y-195541000D01*
X131037000Y-195541000D02*
X131037000Y-193256000D01*
X129567000Y-195541000D02*
X131037000Y-195541000D01*
X111066500Y-107856000D02*
X113266500Y-107856000D01*
X111066500Y-113326000D02*
X113266500Y-113326000D01*
X111066500Y-107856000D02*
X107466500Y-107856000D01*
X111066500Y-113326000D02*
X108866500Y-113326000D01*
X76615000Y-134520000D02*
X76615000Y-134245000D01*
X76615000Y-127100000D02*
X76615000Y-127375000D01*
X79375000Y-134520000D02*
X76615000Y-134520000D01*
X79375000Y-127100000D02*
X76615000Y-127100000D01*
X82135000Y-127100000D02*
X82135000Y-127375000D01*
X79375000Y-127100000D02*
X82135000Y-127100000D01*
X79375000Y-134520000D02*
X82135000Y-134520000D01*
X82135000Y-134520000D02*
X82135000Y-134245000D01*
X76615000Y-127375000D02*
X74925000Y-127375000D01*
X85196000Y-127146164D02*
X85196000Y-127361836D01*
X84476000Y-127146164D02*
X84476000Y-127361836D01*
X82380000Y-192710000D02*
X82380000Y-188460000D01*
X99480000Y-188460000D02*
X99480000Y-190060000D01*
X100500000Y-188460000D02*
X99480000Y-188460000D01*
X83400000Y-190060000D02*
X84680000Y-190060000D01*
X84680000Y-190060000D02*
X84680000Y-187170000D01*
X99480000Y-190060000D02*
X98200000Y-190060000D01*
X100500000Y-192710000D02*
X100500000Y-188460000D01*
X82380000Y-188460000D02*
X83400000Y-188460000D01*
X83400000Y-188460000D02*
X83400000Y-190060000D01*
X84100000Y-196280000D02*
X98780000Y-196280000D01*
X126150000Y-190060000D02*
X124870000Y-190060000D01*
X127170000Y-188460000D02*
X126150000Y-188460000D01*
X110070000Y-188460000D02*
X110070000Y-190060000D01*
X111350000Y-190060000D02*
X111350000Y-187170000D01*
X109050000Y-192710000D02*
X109050000Y-188460000D01*
X110070000Y-190060000D02*
X111350000Y-190060000D01*
X127170000Y-192710000D02*
X127170000Y-188460000D01*
X126150000Y-188460000D02*
X126150000Y-190060000D01*
X110770000Y-196280000D02*
X125450000Y-196280000D01*
X109050000Y-188460000D02*
X110070000Y-188460000D01*
X75037836Y-157120000D02*
X74822164Y-157120000D01*
X75037836Y-157840000D02*
X74822164Y-157840000D01*
X84580000Y-148730580D02*
X84580000Y-148449420D01*
X85600000Y-148730580D02*
X85600000Y-148449420D01*
X61614164Y-149500000D02*
X61829836Y-149500000D01*
X61614164Y-150220000D02*
X61829836Y-150220000D01*
X78380000Y-175152164D02*
X78380000Y-175367836D01*
X79100000Y-175152164D02*
X79100000Y-175367836D01*
X67966000Y-165715836D02*
X67966000Y-165500164D01*
X68686000Y-165715836D02*
X68686000Y-165500164D01*
X58780000Y-163468164D02*
X58780000Y-163683836D01*
X58060000Y-163468164D02*
X58060000Y-163683836D01*
X57377000Y-163837252D02*
X57377000Y-163314748D01*
X55907000Y-163837252D02*
X55907000Y-163314748D01*
X62148336Y-171810000D02*
X61932664Y-171810000D01*
X62148336Y-171090000D02*
X61932664Y-171090000D01*
X58390500Y-177266000D02*
X66450500Y-177266000D01*
X66450500Y-172746000D02*
X58390500Y-172746000D01*
X66450500Y-177266000D02*
X66450500Y-172746000D01*
X70230000Y-165454359D02*
X70230000Y-165761641D01*
X69470000Y-165454359D02*
X69470000Y-165761641D01*
X59589641Y-168276000D02*
X59282359Y-168276000D01*
X59589641Y-169036000D02*
X59282359Y-169036000D01*
X62992000Y-167202000D02*
X60792000Y-167202000D01*
X62992000Y-161982000D02*
X60792000Y-161982000D01*
X62992000Y-161982000D02*
X65192000Y-161982000D01*
X62992000Y-167202000D02*
X66592000Y-167202000D01*
X99500000Y-189460000D02*
X98580000Y-189460000D01*
X84580000Y-189460000D02*
X84580000Y-188245000D01*
X98580000Y-187860000D02*
X98580000Y-189460000D01*
X85140000Y-191820000D02*
X84140000Y-191820000D01*
X98580000Y-189460000D02*
X98300000Y-189460000D01*
X97740000Y-191820000D02*
X98740000Y-191820000D01*
X84300000Y-189460000D02*
X84300000Y-187860000D01*
X99500000Y-187860000D02*
X98580000Y-187860000D01*
X85940000Y-191320000D02*
X96940000Y-191320000D01*
X85940000Y-195680000D02*
X85940000Y-191320000D01*
X83380000Y-187860000D02*
X83380000Y-195680000D01*
X96940000Y-191320000D02*
X96940000Y-195680000D01*
X85140000Y-193420000D02*
X85140000Y-191820000D01*
X84140000Y-193420000D02*
X85140000Y-193420000D01*
X98740000Y-191820000D02*
X98740000Y-193420000D01*
X99500000Y-195680000D02*
X99500000Y-187860000D01*
X98740000Y-193420000D02*
X97740000Y-193420000D01*
X84300000Y-187860000D02*
X83380000Y-187860000D01*
X83380000Y-195680000D02*
X99500000Y-195680000D01*
X83380000Y-189460000D02*
X84300000Y-189460000D01*
X97740000Y-193420000D02*
X97740000Y-191820000D01*
X85140000Y-193420000D02*
X85140000Y-195680000D01*
X84140000Y-191820000D02*
X84140000Y-193420000D01*
X84580000Y-189460000D02*
X84300000Y-189460000D01*
X84640000Y-193420000D02*
X84640000Y-195680000D01*
X111810000Y-191820000D02*
X110810000Y-191820000D01*
X126170000Y-195680000D02*
X126170000Y-187860000D01*
X126170000Y-187860000D02*
X125250000Y-187860000D01*
X125410000Y-193420000D02*
X124410000Y-193420000D01*
X124410000Y-191820000D02*
X125410000Y-191820000D01*
X110970000Y-189460000D02*
X110970000Y-187860000D01*
X125250000Y-187860000D02*
X125250000Y-189460000D01*
X110050000Y-195680000D02*
X126170000Y-195680000D01*
X124410000Y-193420000D02*
X124410000Y-191820000D01*
X110970000Y-187860000D02*
X110050000Y-187860000D01*
X110810000Y-191820000D02*
X110810000Y-193420000D01*
X111810000Y-193420000D02*
X111810000Y-195680000D01*
X125410000Y-191820000D02*
X125410000Y-193420000D01*
X110050000Y-187860000D02*
X110050000Y-195680000D01*
X111250000Y-189460000D02*
X111250000Y-188245000D01*
X126170000Y-189460000D02*
X125250000Y-189460000D01*
X110050000Y-189460000D02*
X110970000Y-189460000D01*
X123610000Y-191320000D02*
X123610000Y-195680000D01*
X110810000Y-193420000D02*
X111810000Y-193420000D01*
X112610000Y-195680000D02*
X112610000Y-191320000D01*
X125250000Y-189460000D02*
X124970000Y-189460000D01*
X111250000Y-189460000D02*
X110970000Y-189460000D01*
X112610000Y-191320000D02*
X123610000Y-191320000D01*
X111810000Y-193420000D02*
X111810000Y-191820000D01*
X111310000Y-193420000D02*
X111310000Y-195680000D01*
X96048000Y-177800000D02*
X96048000Y-176125000D01*
X92928000Y-177800000D02*
X92928000Y-177150000D01*
X96048000Y-177800000D02*
X96048000Y-178450000D01*
X92928000Y-177800000D02*
X92928000Y-178450000D01*
X100112000Y-177800000D02*
X100112000Y-178450000D01*
X96992000Y-177800000D02*
X96992000Y-178450000D01*
X100112000Y-177800000D02*
X100112000Y-176125000D01*
X96992000Y-177800000D02*
X96992000Y-177150000D01*
X103452164Y-136080000D02*
X103667836Y-136080000D01*
X103452164Y-135360000D02*
X103667836Y-135360000D01*
X103452164Y-134110000D02*
X103667836Y-134110000D01*
X103452164Y-134830000D02*
X103667836Y-134830000D01*
X101450000Y-141839836D02*
X101450000Y-141624164D01*
X102170000Y-141839836D02*
X102170000Y-141624164D01*
X128763500Y-177562742D02*
X128763500Y-178037258D01*
X129808500Y-177562742D02*
X129808500Y-178037258D01*
X99440000Y-135535641D02*
X99440000Y-135228359D01*
X98680000Y-135535641D02*
X98680000Y-135228359D01*
X101500000Y-138470000D02*
X101500000Y-139270000D01*
X104620000Y-138470000D02*
X104620000Y-136670000D01*
X101500000Y-138470000D02*
X101500000Y-137670000D01*
X104620000Y-138470000D02*
X104620000Y-139270000D01*
X103452164Y-142110000D02*
X103667836Y-142110000D01*
X103452164Y-142830000D02*
X103667836Y-142830000D01*
X142368000Y-176937641D02*
X142368000Y-176630359D01*
X143128000Y-176937641D02*
X143128000Y-176630359D01*
X95000000Y-142220000D02*
X95000000Y-144020000D01*
X95000000Y-142220000D02*
X95000000Y-141420000D01*
X98120000Y-142220000D02*
X98120000Y-141420000D01*
X98120000Y-142220000D02*
X98120000Y-143020000D01*
X115998500Y-108666836D02*
X115998500Y-108451164D01*
X115278500Y-108666836D02*
X115278500Y-108451164D01*
X128123836Y-164190000D02*
X127908164Y-164190000D01*
X128123836Y-163470000D02*
X127908164Y-163470000D01*
X114702000Y-174390164D02*
X114702000Y-174605836D01*
X115422000Y-174390164D02*
X115422000Y-174605836D01*
X113158000Y-174651641D02*
X113158000Y-174344359D01*
X113918000Y-174651641D02*
X113918000Y-174344359D01*
X128677641Y-147700000D02*
X128370359Y-147700000D01*
X128677641Y-146940000D02*
X128370359Y-146940000D01*
X128123836Y-165460000D02*
X127908164Y-165460000D01*
X128123836Y-164740000D02*
X127908164Y-164740000D01*
X76449750Y-163287641D02*
X76449750Y-162980359D01*
X77209750Y-163287641D02*
X77209750Y-162980359D01*
X128677641Y-145160000D02*
X128370359Y-145160000D01*
X128677641Y-144400000D02*
X128370359Y-144400000D01*
X85753641Y-171320000D02*
X85446359Y-171320000D01*
X85753641Y-170560000D02*
X85446359Y-170560000D01*
X82952000Y-173081836D02*
X82952000Y-172866164D01*
X83672000Y-173081836D02*
X83672000Y-172866164D01*
X85446359Y-169292000D02*
X85753641Y-169292000D01*
X85446359Y-170052000D02*
X85753641Y-170052000D01*
X74060164Y-178160000D02*
X74275836Y-178160000D01*
X74060164Y-177440000D02*
X74275836Y-177440000D01*
X85446359Y-173862000D02*
X85753641Y-173862000D01*
X85446359Y-173102000D02*
X85753641Y-173102000D01*
X85753641Y-171832000D02*
X85446359Y-171832000D01*
X85753641Y-172592000D02*
X85446359Y-172592000D01*
X69956000Y-174898164D02*
X69956000Y-175113836D01*
X69236000Y-174898164D02*
X69236000Y-175113836D01*
X124588000Y-174651641D02*
X124588000Y-174344359D01*
X125348000Y-174651641D02*
X125348000Y-174344359D01*
X121538000Y-174651641D02*
X121538000Y-174344359D01*
X120778000Y-174651641D02*
X120778000Y-174344359D01*
X116968000Y-174651641D02*
X116968000Y-174344359D01*
X117728000Y-174651641D02*
X117728000Y-174344359D01*
X110892000Y-174390164D02*
X110892000Y-174605836D01*
X111612000Y-174390164D02*
X111612000Y-174605836D01*
X64806000Y-152400000D02*
X64806000Y-153200000D01*
X64806000Y-152400000D02*
X64806000Y-151600000D01*
X61686000Y-152400000D02*
X61686000Y-151600000D01*
X61686000Y-152400000D02*
X61686000Y-154200000D01*
X126852000Y-174390164D02*
X126852000Y-174605836D01*
X126132000Y-174390164D02*
X126132000Y-174605836D01*
X122322000Y-174390164D02*
X122322000Y-174605836D01*
X123042000Y-174390164D02*
X123042000Y-174605836D01*
X110108000Y-174651641D02*
X110108000Y-174344359D01*
X109348000Y-174651641D02*
X109348000Y-174344359D01*
X118512000Y-174390164D02*
X118512000Y-174605836D01*
X119232000Y-174390164D02*
X119232000Y-174605836D01*
X152600000Y-137160000D02*
X152600000Y-116625000D01*
X143510000Y-116205000D02*
X142875000Y-114935000D01*
X134420000Y-118745000D02*
X134420000Y-137160000D01*
X142875000Y-114935000D02*
X144145000Y-114935000D01*
X134420000Y-118745000D02*
X136525000Y-116625000D01*
X136525000Y-116625000D02*
X152600000Y-116625000D01*
X144145000Y-114935000D02*
X143510000Y-116205000D01*
X134420000Y-137160000D02*
X152600000Y-137160000D01*
X145423836Y-114660000D02*
X145208164Y-114660000D01*
X145423836Y-113940000D02*
X145208164Y-113940000D01*
X145395836Y-115210000D02*
X145180164Y-115210000D01*
X145395836Y-115930000D02*
X145180164Y-115930000D01*
X52705000Y-116625000D02*
X68780000Y-116625000D01*
X50600000Y-118745000D02*
X52705000Y-116625000D01*
X60325000Y-114935000D02*
X59690000Y-116205000D01*
X50600000Y-118745000D02*
X50600000Y-137160000D01*
X59690000Y-116205000D02*
X59055000Y-114935000D01*
X59055000Y-114935000D02*
X60325000Y-114935000D01*
X50600000Y-137160000D02*
X68780000Y-137160000D01*
X68780000Y-137160000D02*
X68780000Y-116625000D01*
X141838000Y-176891836D02*
X141838000Y-176676164D01*
X141118000Y-176891836D02*
X141118000Y-176676164D01*
X98700000Y-140862164D02*
X98700000Y-141077836D01*
X99420000Y-140862164D02*
X99420000Y-141077836D01*
X135254000Y-176965641D02*
X135254000Y-176658359D01*
X134494000Y-176965641D02*
X134494000Y-176658359D01*
X136504000Y-176919836D02*
X136504000Y-176704164D01*
X135784000Y-176919836D02*
X135784000Y-176704164D01*
X133865252Y-184431000D02*
X133342748Y-184431000D01*
X133865252Y-185901000D02*
X133342748Y-185901000D01*
X71044000Y-114727000D02*
X74954000Y-114727000D01*
X74954000Y-112857000D02*
X71044000Y-112857000D01*
X74954000Y-114727000D02*
X74954000Y-112857000D01*
X81662000Y-173127641D02*
X81662000Y-172820359D01*
X82422000Y-173127641D02*
X82422000Y-172820359D01*
X92238000Y-177800000D02*
X92238000Y-178450000D01*
X89118000Y-177800000D02*
X89118000Y-177150000D01*
X89118000Y-177800000D02*
X89118000Y-178450000D01*
X92238000Y-177800000D02*
X92238000Y-176125000D01*
X106325641Y-119000000D02*
X106018359Y-119000000D01*
X106325641Y-119760000D02*
X106018359Y-119760000D01*
X98446000Y-102000164D02*
X98446000Y-102215836D01*
X99166000Y-102000164D02*
X99166000Y-102215836D01*
X119670000Y-177800000D02*
X119670000Y-178450000D01*
X116550000Y-177800000D02*
X116550000Y-177150000D01*
X116550000Y-177800000D02*
X116550000Y-178450000D01*
X119670000Y-177800000D02*
X119670000Y-176125000D01*
X81773500Y-176767258D02*
X81773500Y-176292742D01*
X82818500Y-176767258D02*
X82818500Y-176292742D01*
X79623750Y-161574000D02*
X77948750Y-161574000D01*
X79623750Y-164694000D02*
X80273750Y-164694000D01*
X79623750Y-161574000D02*
X80273750Y-161574000D01*
X79623750Y-164694000D02*
X78973750Y-164694000D01*
X80392000Y-172820359D02*
X80392000Y-173127641D01*
X81152000Y-172820359D02*
X81152000Y-173127641D01*
X118004000Y-143363836D02*
X118004000Y-143148164D01*
X118724000Y-143363836D02*
X118724000Y-143148164D01*
X137312000Y-176451500D02*
X137312000Y-178126500D01*
X140432000Y-176451500D02*
X140432000Y-177101500D01*
X137312000Y-176451500D02*
X137312000Y-175801500D01*
X140432000Y-176451500D02*
X140432000Y-175801500D01*
D14*
X86265000Y-96425000D02*
X86940000Y-96425000D01*
X86265000Y-97000000D02*
X84990000Y-97000000D01*
X96615000Y-106775000D02*
X95940000Y-106775000D01*
X96615000Y-106775000D02*
X96615000Y-106100000D01*
X96615000Y-96425000D02*
X96615000Y-97100000D01*
X86265000Y-96425000D02*
X86265000Y-97000000D01*
X96615000Y-96425000D02*
X95940000Y-96425000D01*
X86265000Y-106775000D02*
X86940000Y-106775000D01*
X86265000Y-106775000D02*
X86265000Y-106100000D01*
D10*
X112050000Y-177800000D02*
X112050000Y-178450000D01*
X108930000Y-177800000D02*
X108930000Y-177150000D01*
X112050000Y-177800000D02*
X112050000Y-176125000D01*
X108930000Y-177800000D02*
X108930000Y-178450000D01*
X122728000Y-140520000D02*
X122728000Y-128720000D01*
X114508000Y-141825000D02*
X114508000Y-128720000D01*
X118971553Y-139120000D02*
G75*
G03*
X118971553Y-139120000I-353553J0D01*
G01*
X106325641Y-117220000D02*
X106018359Y-117220000D01*
X106325641Y-116460000D02*
X106018359Y-116460000D01*
X136759836Y-100182000D02*
X136544164Y-100182000D01*
X136759836Y-99462000D02*
X136544164Y-99462000D01*
X137414000Y-153587000D02*
X139614000Y-153587000D01*
X137414000Y-153587000D02*
X133814000Y-153587000D01*
X137414000Y-160357000D02*
X139614000Y-160357000D01*
X137414000Y-160357000D02*
X135214000Y-160357000D01*
X112740000Y-177800000D02*
X112740000Y-177150000D01*
X112740000Y-177800000D02*
X112740000Y-178450000D01*
X115860000Y-177800000D02*
X115860000Y-176125000D01*
X115860000Y-177800000D02*
X115860000Y-178450000D01*
X98680000Y-143316359D02*
X98680000Y-143623641D01*
X99440000Y-143316359D02*
X99440000Y-143623641D01*
X103922000Y-177800000D02*
X103922000Y-176125000D01*
X103922000Y-177800000D02*
X103922000Y-178450000D01*
X100802000Y-177800000D02*
X100802000Y-178450000D01*
X100802000Y-177800000D02*
X100802000Y-177150000D01*
X79731586Y-165314000D02*
X79515914Y-165314000D01*
X79731586Y-166034000D02*
X79515914Y-166034000D01*
X92330000Y-141616359D02*
X92330000Y-141923641D01*
X93090000Y-141616359D02*
X93090000Y-141923641D01*
X123480000Y-177800000D02*
X123480000Y-178450000D01*
X123480000Y-177800000D02*
X123480000Y-176125000D01*
X120360000Y-177800000D02*
X120360000Y-177150000D01*
X120360000Y-177800000D02*
X120360000Y-178450000D01*
X138110000Y-97028000D02*
G75*
G03*
X138110000Y-97028000I-950000J0D01*
G01*
X79862000Y-172866164D02*
X79862000Y-173081836D01*
X79142000Y-172866164D02*
X79142000Y-173081836D01*
X135760000Y-185040000D02*
X135760000Y-188340000D01*
X135760000Y-188340000D02*
X141160000Y-188340000D01*
X135760000Y-185040000D02*
X141160000Y-185040000D01*
X96310000Y-139530000D02*
X97110000Y-139530000D01*
X96310000Y-136410000D02*
X97110000Y-136410000D01*
X96310000Y-139530000D02*
X95510000Y-139530000D01*
X96310000Y-136410000D02*
X94510000Y-136410000D01*
X74168000Y-176854000D02*
X76368000Y-176854000D01*
X74168000Y-171634000D02*
X70568000Y-171634000D01*
X74168000Y-171634000D02*
X76368000Y-171634000D01*
X74168000Y-176854000D02*
X71968000Y-176854000D01*
X104286164Y-111908000D02*
X104501836Y-111908000D01*
X104286164Y-112628000D02*
X104501836Y-112628000D01*
X80370000Y-175152164D02*
X80370000Y-175367836D01*
X79650000Y-175152164D02*
X79650000Y-175367836D01*
X127290000Y-177800000D02*
X127290000Y-176125000D01*
X124170000Y-177800000D02*
X124170000Y-178450000D01*
X124170000Y-177800000D02*
X124170000Y-177150000D01*
X127290000Y-177800000D02*
X127290000Y-178450000D01*
X103452164Y-141580000D02*
X103667836Y-141580000D01*
X103452164Y-140860000D02*
X103667836Y-140860000D01*
X119568000Y-105918000D02*
G75*
G03*
X119568000Y-105918000I-950000J0D01*
G01*
X99420000Y-138577836D02*
X99420000Y-138362164D01*
X98700000Y-138577836D02*
X98700000Y-138362164D01*
X104547641Y-110618000D02*
X104240359Y-110618000D01*
X104547641Y-111378000D02*
X104240359Y-111378000D01*
X62584359Y-155574000D02*
X62891641Y-155574000D01*
X62584359Y-154814000D02*
X62891641Y-154814000D01*
X133865252Y-186717000D02*
X133342748Y-186717000D01*
X133865252Y-188187000D02*
X133342748Y-188187000D01*
X104074000Y-116078000D02*
G75*
G03*
X104074000Y-116078000I-950000J0D01*
G01*
M02*
