G04 #@! TF.GenerationSoftware,KiCad,Pcbnew,(6.0.5)*
G04 #@! TF.CreationDate,2022-06-14T22:04:29-04:00*
G04 #@! TF.ProjectId,ingameNES,696e6761-6d65-44e4-9553-2e6b69636164,1*
G04 #@! TF.SameCoordinates,Original*
G04 #@! TF.FileFunction,Legend,Bot*
G04 #@! TF.FilePolarity,Positive*
%FSLAX46Y46*%
G04 Gerber Fmt 4.6, Leading zero omitted, Abs format (unit mm)*
G04 Created by KiCad (PCBNEW (6.0.5)) date 2022-06-14 22:04:29*
%MOMM*%
%LPD*%
G01*
G04 APERTURE LIST*
%ADD10C,0.250000*%
%ADD11C,0.120000*%
G04 APERTURE END LIST*
D10*
X81430571Y-168826571D02*
X81430571Y-167326571D01*
X80859142Y-167326571D01*
X80716285Y-167398000D01*
X80644857Y-167469428D01*
X80573428Y-167612285D01*
X80573428Y-167826571D01*
X80644857Y-167969428D01*
X80716285Y-168040857D01*
X80859142Y-168112285D01*
X81430571Y-168112285D01*
X79930571Y-168826571D02*
X79930571Y-167326571D01*
X79359142Y-167326571D01*
X79216285Y-167398000D01*
X79144857Y-167469428D01*
X79073428Y-167612285D01*
X79073428Y-167826571D01*
X79144857Y-167969428D01*
X79216285Y-168040857D01*
X79359142Y-168112285D01*
X79930571Y-168112285D01*
X78430571Y-167326571D02*
X78430571Y-168540857D01*
X78359142Y-168683714D01*
X78287714Y-168755142D01*
X78144857Y-168826571D01*
X77859142Y-168826571D01*
X77716285Y-168755142D01*
X77644857Y-168683714D01*
X77573428Y-168540857D01*
X77573428Y-167326571D01*
X119181428Y-168429714D02*
X119252857Y-168501142D01*
X119467142Y-168572571D01*
X119610000Y-168572571D01*
X119824285Y-168501142D01*
X119967142Y-168358285D01*
X120038571Y-168215428D01*
X120110000Y-167929714D01*
X120110000Y-167715428D01*
X120038571Y-167429714D01*
X119967142Y-167286857D01*
X119824285Y-167144000D01*
X119610000Y-167072571D01*
X119467142Y-167072571D01*
X119252857Y-167144000D01*
X119181428Y-167215428D01*
X118538571Y-168572571D02*
X118538571Y-167072571D01*
X117967142Y-167072571D01*
X117824285Y-167144000D01*
X117752857Y-167215428D01*
X117681428Y-167358285D01*
X117681428Y-167572571D01*
X117752857Y-167715428D01*
X117824285Y-167786857D01*
X117967142Y-167858285D01*
X118538571Y-167858285D01*
X117038571Y-167072571D02*
X117038571Y-168286857D01*
X116967142Y-168429714D01*
X116895714Y-168501142D01*
X116752857Y-168572571D01*
X116467142Y-168572571D01*
X116324285Y-168501142D01*
X116252857Y-168429714D01*
X116181428Y-168286857D01*
X116181428Y-167072571D01*
X120221142Y-113224571D02*
X120221142Y-114438857D01*
X120149714Y-114581714D01*
X120078285Y-114653142D01*
X119935428Y-114724571D01*
X119649714Y-114724571D01*
X119506857Y-114653142D01*
X119435428Y-114581714D01*
X119364000Y-114438857D01*
X119364000Y-113224571D01*
X117864000Y-114724571D02*
X118721142Y-114724571D01*
X118292571Y-114724571D02*
X118292571Y-113224571D01*
X118435428Y-113438857D01*
X118578285Y-113581714D01*
X118721142Y-113653142D01*
X117292571Y-113367428D02*
X117221142Y-113296000D01*
X117078285Y-113224571D01*
X116721142Y-113224571D01*
X116578285Y-113296000D01*
X116506857Y-113367428D01*
X116435428Y-113510285D01*
X116435428Y-113653142D01*
X116506857Y-113867428D01*
X117364000Y-114724571D01*
X116435428Y-114724571D01*
X81152857Y-113478571D02*
X81152857Y-114692857D01*
X81081428Y-114835714D01*
X81010000Y-114907142D01*
X80867142Y-114978571D01*
X80581428Y-114978571D01*
X80438571Y-114907142D01*
X80367142Y-114835714D01*
X80295714Y-114692857D01*
X80295714Y-113478571D01*
X78938571Y-113978571D02*
X78938571Y-114978571D01*
X79295714Y-113407142D02*
X79652857Y-114478571D01*
X78724285Y-114478571D01*
D11*
X111650000Y-115504996D02*
X124570000Y-115504996D01*
X111650000Y-166424996D02*
X111650000Y-115504996D01*
X117110000Y-166424996D02*
X111650000Y-166424996D01*
X124570000Y-166424996D02*
X119110000Y-166424996D01*
X124570000Y-115504996D02*
X124570000Y-166424996D01*
X119110000Y-166424996D02*
G75*
G03*
X117110000Y-166424996I-1000000J0D01*
G01*
X73550000Y-166430000D02*
X73550000Y-115510000D01*
X73550000Y-115510000D02*
X79010000Y-115510000D01*
X86470000Y-166430000D02*
X73550000Y-166430000D01*
X81010000Y-115510000D02*
X86470000Y-115510000D01*
X86470000Y-115510000D02*
X86470000Y-166430000D01*
X79010000Y-115510000D02*
G75*
G03*
X81010000Y-115510000I1000000J0D01*
G01*
M02*
