G04 #@! TF.GenerationSoftware,KiCad,Pcbnew,(6.0.5)*
G04 #@! TF.CreationDate,2022-06-14T22:04:30-04:00*
G04 #@! TF.ProjectId,ingameNES,696e6761-6d65-44e4-9553-2e6b69636164,1*
G04 #@! TF.SameCoordinates,Original*
G04 #@! TF.FileFunction,Profile,NP*
%FSLAX46Y46*%
G04 Gerber Fmt 4.6, Leading zero omitted, Abs format (unit mm)*
G04 Created by KiCad (PCBNEW (6.0.5)) date 2022-06-14 22:04:30*
%MOMM*%
%LPD*%
G01*
G04 APERTURE LIST*
G04 #@! TA.AperFunction,Profile*
%ADD10C,0.150000*%
G04 #@! TD*
G04 #@! TA.AperFunction,Profile*
%ADD11C,0.120000*%
G04 #@! TD*
G04 #@! TA.AperFunction,Profile*
%ADD12C,0.050000*%
G04 #@! TD*
G04 #@! TA.AperFunction,Profile*
%ADD13C,0.100000*%
G04 #@! TD*
G04 APERTURE END LIST*
D10*
X54850000Y-182500000D02*
X54850000Y-181000000D01*
X51600000Y-181000000D02*
X51600000Y-161500000D01*
X73150000Y-197250000D02*
X142700000Y-197250000D01*
D11*
X142700000Y-197250000D02*
X148350000Y-197250000D01*
D12*
X51600000Y-153000000D02*
X47600000Y-153000000D01*
X151600000Y-155500000D02*
X155600000Y-155500000D01*
D10*
X149850000Y-158000000D02*
X149850000Y-164000000D01*
X151600000Y-181000000D02*
X148350000Y-181000000D01*
X56600000Y-155500000D02*
X56600000Y-153000000D01*
X51600000Y-161500000D02*
X53350000Y-161500000D01*
X54850000Y-181000000D02*
X51600000Y-181000000D01*
X146600000Y-158000000D02*
X149850000Y-158000000D01*
X148350000Y-181000000D02*
X148350000Y-182500000D01*
X54850000Y-197250000D02*
X54850000Y-182500000D01*
X151600000Y-164000000D02*
X151600000Y-181000000D01*
X151600000Y-155500000D02*
X146600000Y-155500000D01*
X53350000Y-161500000D02*
X53350000Y-155500000D01*
X66550000Y-197250000D02*
X54850000Y-197250000D01*
X155600000Y-88900000D02*
X155600000Y-155500000D01*
X53350000Y-155500000D02*
X56600000Y-155500000D01*
X56600000Y-153000000D02*
X51600000Y-153000000D01*
D11*
X47600000Y-88900000D02*
X155600000Y-88900000D01*
D10*
X148350000Y-182500000D02*
X148350000Y-197250000D01*
X146600000Y-155500000D02*
X146600000Y-158000000D01*
X149850000Y-164000000D02*
X151600000Y-164000000D01*
D12*
X47600000Y-88900000D02*
X47600000Y-153000000D01*
D13*
X67550000Y-184750000D02*
X72150000Y-184750000D01*
X73150000Y-190380000D02*
X73150000Y-197250000D01*
X73450000Y-190380000D02*
X73150000Y-190380000D01*
X66550000Y-197250000D02*
X66550000Y-190380000D01*
X66550000Y-190380000D02*
X66250000Y-190380000D01*
X66250000Y-189080000D02*
X66550000Y-189080000D01*
X66550000Y-189080000D02*
X66550000Y-184750000D01*
X73150000Y-184750000D02*
X73150000Y-189080000D01*
X73150000Y-189080000D02*
X73450000Y-189080000D01*
X65600000Y-189730000D02*
G75*
G03*
X66250000Y-190380000I650000J0D01*
G01*
X73150000Y-184750000D02*
G75*
G03*
X72150000Y-184750000I-500000J0D01*
G01*
X67550000Y-184750000D02*
G75*
G03*
X66550000Y-184750000I-500000J0D01*
G01*
X66250000Y-189080000D02*
G75*
G03*
X65600000Y-189730000I0J-650000D01*
G01*
X74100000Y-189730000D02*
G75*
G03*
X73450000Y-189080000I-650000J0D01*
G01*
X73450000Y-190380000D02*
G75*
G03*
X74100000Y-189730000I0J650000D01*
G01*
M02*
