M48
; DRILL file {KiCad (6.0.5)} date Tue Jun 14 22:04:35 2022
; FORMAT={-:-/ absolute / metric / decimal}
; #@! TF.CreationDate,2022-06-14T22:04:35-04:00
; #@! TF.GenerationSoftware,Kicad,Pcbnew,(6.0.5)
; #@! TF.FileFunction,Plated,1,2,PTH
FMAT,2
METRIC
; #@! TA.AperFunction,Plated,PTH,ViaDrill
T1C0.305
; #@! TA.AperFunction,Plated,PTH,ComponentDrill
T2C0.500
; #@! TA.AperFunction,Plated,PTH,ComponentDrill
T3C0.750
; #@! TA.AperFunction,Plated,PTH,ComponentDrill
T4C0.800
%
G90
G05
T1
X48.514Y-136.144
X49.022Y-90.424
X49.022Y-96.266
X49.022Y-102.616
X49.022Y-140.208
X49.022Y-143.764
X49.022Y-147.574
X49.022Y-151.638
X52.832Y-162.56
X52.832Y-165.1
X52.832Y-171.958
X52.832Y-179.578
X54.61Y-90.424
X54.61Y-156.972
X54.864Y-108.204
X55.118Y-151.638
X55.118Y-162.56
X55.88Y-107.188
X55.88Y-113.538
X56.388Y-189.484
X56.388Y-195.072
X56.642Y-122.682
X56.642Y-127.0
X56.642Y-130.81
X56.642Y-167.386
X56.642Y-182.626
X57.15Y-107.696
X57.15Y-113.538
X57.912Y-153.924
X57.912Y-156.464
X58.166Y-150.622
X58.42Y-104.648
X58.42Y-131.826
X58.42Y-135.89
X58.42Y-161.544
X58.928Y-148.082
X59.0Y-113.538
X59.182Y-172.212
X59.436Y-169.926
X59.69Y-115.824
X59.69Y-122.682
X59.69Y-127.0
X59.69Y-130.81
X60.198Y-186.182
X60.452Y-180.848
X60.706Y-147.828
X60.706Y-192.024
X60.96Y-90.424
X61.214Y-114.554
X61.468Y-161.544
X61.722Y-163.322
X61.976Y-167.386
X61.976Y-195.072
X62.484Y-114.3
X62.484Y-116.84
X62.738Y-122.682
X62.738Y-126.746
X62.738Y-130.81
X62.992Y-169.672
X63.246Y-138.938
X63.246Y-183.388
X63.5Y-107.442
X63.5Y-113.538
X63.5Y-163.576
X63.5Y-165.608
X63.5Y-178.054
X63.5Y-188.976
X63.754Y-148.844
X63.754Y-194.056
X64.516Y-138.938
X64.516Y-172.212
X64.77Y-99.568
X64.77Y-107.95
X65.024Y-180.848
X65.532Y-153.924
X65.786Y-157.226
X65.786Y-167.894
X66.04Y-103.124
X66.04Y-113.792
X66.548Y-151.638
X66.802Y-90.424
X66.802Y-99.822
X66.802Y-114.554
X66.802Y-138.938
X66.802Y-146.558
X66.802Y-177.546
X67.056Y-140.716
X67.31Y-129.54
X67.564Y-120.904
X67.564Y-113.538
X67.564Y-127.0
X67.818Y-138.938
X67.818Y-162.56
X67.818Y-164.084
X68.072Y-150.114
X68.326Y-114.554
X68.326Y-121.666
X68.326Y-174.498
X68.515Y-140.963
X68.515Y-143.51
X68.58Y-144.78
X68.58Y-172.974
X68.58Y-139.7
X69.342Y-101.854
X69.596Y-113.792
X69.85Y-124.206
X69.85Y-146.315
X69.85Y-148.844
X69.85Y-167.132
X69.85Y-171.958
X70.358Y-107.95
X70.866Y-115.57
X71.12Y-90.424
X71.882Y-97.028
X71.882Y-101.6
X72.39Y-170.942
X72.898Y-107.95
X73.518Y-174.894
X73.914Y-101.6
X74.168Y-97.028
X74.422Y-159.004
X74.676Y-119.126
X74.676Y-173.228
X75.184Y-174.752
X75.438Y-124.714
X75.438Y-126.238
X75.438Y-134.62
X75.438Y-156.464
X75.692Y-108.204
X75.692Y-113.792
X75.692Y-182.118
X75.946Y-147.32
X75.946Y-185.166
X75.946Y-194.056
X76.2Y-118.618
X76.2Y-190.246
X76.454Y-115.57
X76.454Y-121.158
X76.454Y-155.194
X76.708Y-116.84
X76.708Y-195.834
X76.962Y-170.942
X77.216Y-97.028
X77.216Y-147.574
X77.216Y-179.832
X77.724Y-92.71
X77.724Y-101.6
X77.978Y-171.45
X77.978Y-188.214
X78.232Y-143.256
X78.486Y-183.896
X78.75Y-149.0
X78.994Y-141.478
X78.994Y-144.018
X78.994Y-145.034
X78.994Y-146.05
X78.994Y-156.972
X79.756Y-155.448
X79.756Y-178.562
X79.756Y-181.61
X80.518Y-195.834
X80.772Y-177.038
X81.026Y-175.26
X81.148Y-165.674
X81.788Y-135.89
X82.037Y-163.134
X82.55Y-92.71
X82.55Y-135.128
X82.804Y-97.028
X83.058Y-124.46
X83.058Y-126.238
X83.058Y-180.848
X83.312Y-135.89
X83.566Y-174.498
X83.82Y-101.6
X84.074Y-177.8
X84.582Y-124.46
X85.09Y-168.656
X85.09Y-175.006
X85.598Y-130.302
X85.852Y-129.286
X86.106Y-128.27
X86.36Y-195.834
X87.63Y-110.236
X87.884Y-98.044
X87.884Y-101.6
X88.646Y-104.648
X88.75Y-105.75
X88.9Y-110.744
X89.408Y-178.308
X89.408Y-185.674
X89.916Y-102.87
X89.916Y-103.886
X89.916Y-110.998
X90.17Y-101.854
X90.17Y-138.938
X90.424Y-97.79
X90.621Y-111.76
X90.678Y-93.98
X90.678Y-149.098
X90.932Y-100.838
X90.932Y-181.864
X90.932Y-195.834
X91.44Y-139.7
X91.694Y-112.014
X91.948Y-157.226
X92.456Y-101.6
X92.456Y-112.776
X92.456Y-175.006
X92.964Y-151.638
X92.964Y-178.308
X92.964Y-181.102
X93.218Y-103.124
X93.218Y-112.014
X93.726Y-137.922
X93.726Y-150.876
X94.234Y-104.394
X94.234Y-112.776
X94.488Y-122.174
X94.488Y-150.114
X94.488Y-161.29
X94.742Y-134.366
X94.996Y-182.626
X95.25Y-104.648
X95.25Y-112.014
X95.25Y-130.81
X95.25Y-149.352
X95.504Y-145.034
X96.012Y-122.174
X96.266Y-195.834
X96.52Y-132.08
X96.52Y-166.624
X96.52Y-175.26
X96.774Y-96.52
X97.028Y-111.76
X97.028Y-113.284
X97.028Y-178.562
X97.536Y-135.128
X97.79Y-183.896
X98.044Y-150.876
X98.552Y-139.954
X98.552Y-147.066
X99.06Y-163.83
X99.314Y-153.67
X99.822Y-95.758
X99.822Y-114.046
X99.822Y-139.7
X99.822Y-186.436
X100.076Y-101.6
X100.33Y-136.652
X100.33Y-175.006
X100.584Y-178.562
X100.584Y-181.61
X101.092Y-102.616
X101.092Y-106.68
X101.346Y-93.472
X101.346Y-95.758
X101.346Y-143.764
X101.6Y-105.156
X101.854Y-119.634
X101.854Y-134.366
X101.854Y-135.636
X102.362Y-94.234
X102.362Y-96.52
X102.362Y-102.616
X102.362Y-111.76
X102.616Y-113.03
X103.124Y-109.982
X103.124Y-143.764
X103.124Y-195.834
X103.632Y-94.234
X103.632Y-96.52
X104.14Y-188.722
X104.394Y-175.006
X104.648Y-119.38
X104.75Y-109.25
X104.902Y-94.234
X104.902Y-96.52
X104.902Y-182.626
X105.664Y-117.856
X105.664Y-147.066
X105.918Y-94.234
X105.918Y-97.282
X105.918Y-100.076
X105.918Y-186.944
X106.172Y-133.604
X106.25Y-108.5
X106.426Y-196.088
X106.68Y-176.53
X106.934Y-150.876
X106.934Y-153.67
X106.934Y-163.83
X106.934Y-166.878
X107.188Y-90.932
X107.696Y-114.046
X107.696Y-141.478
X107.696Y-157.48
X107.95Y-133.604
X108.204Y-123.19
X108.204Y-161.29
X108.458Y-125.984
X108.712Y-136.906
X108.966Y-148.59
X109.22Y-96.52
X109.22Y-178.308
X109.5Y-103.25
X110.236Y-93.98
X110.744Y-184.658
X110.998Y-108.712
X111.506Y-94.742
X111.506Y-106.858
X111.76Y-112.268
X112.014Y-90.932
X112.268Y-175.006
X112.522Y-105.664
X112.522Y-127.254
X112.522Y-138.176
X112.522Y-181.102
X112.522Y-95.25
X113.03Y-178.308
X113.284Y-195.834
X113.538Y-94.742
X113.538Y-107.188
X113.538Y-180.34
X114.554Y-95.25
X114.554Y-105.664
X114.554Y-149.606
X114.554Y-165.354
X114.808Y-137.668
X114.808Y-139.192
X115.062Y-180.34
X115.316Y-142.748
X115.57Y-94.742
X115.57Y-104.14
X115.57Y-131.064
X116.078Y-123.952
X116.078Y-151.13
X116.078Y-175.006
X116.078Y-181.102
X116.332Y-132.334
X116.332Y-137.922
X116.586Y-95.25
X116.586Y-105.41
X116.586Y-130.302
X116.654Y-108.051
X116.654Y-109.067
X116.84Y-116.84
X116.84Y-178.308
X117.348Y-90.678
X117.348Y-104.14
X117.348Y-138.43
X117.348Y-142.748
X117.348Y-143.764
X117.348Y-195.834
X117.602Y-131.318
X117.602Y-160.528
X118.11Y-121.92
X118.364Y-134.366
X118.618Y-130.81
X118.618Y-138.43
X119.126Y-126.492
X119.126Y-180.594
X119.634Y-108.458
X119.73Y-131.318
X119.888Y-175.006
X120.65Y-178.308
X120.65Y-180.594
X120.904Y-116.332
X120.904Y-133.35
X121.158Y-118.11
X121.158Y-119.126
X121.158Y-120.142
X121.158Y-132.334
X121.158Y-153.162
X121.412Y-113.03
X121.92Y-130.556
X121.92Y-195.834
X122.682Y-104.648
X122.682Y-106.68
X123.19Y-119.38
X123.19Y-179.578
X123.444Y-99.314
X123.5Y-113.0
X123.698Y-115.316
X123.698Y-117.094
X123.698Y-180.594
X123.952Y-175.006
X124.46Y-178.308
X124.968Y-112.014
X125.476Y-168.402
X127.0Y-182.372
X127.0Y-190.5
X127.254Y-115.062
X127.254Y-138.43
X127.508Y-140.716
X127.508Y-175.006
X127.762Y-137.16
X128.016Y-119.38
X128.778Y-121.92
X128.778Y-175.768
X129.032Y-148.59
X129.286Y-143.002
X129.54Y-124.46
X129.54Y-162.56
X129.794Y-136.398
X129.794Y-164.846
X130.048Y-137.922
X130.302Y-127.0
X130.302Y-161.036
X130.556Y-157.226
X130.81Y-150.368
X131.064Y-129.569
X131.318Y-186.182
X131.318Y-188.722
X131.572Y-166.37
X131.572Y-170.688
X131.826Y-132.08
X131.826Y-140.97
X131.826Y-154.94
X131.826Y-174.498
X132.08Y-145.542
X132.08Y-183.134
X132.334Y-100.838
X132.334Y-162.56
X132.588Y-158.496
X132.842Y-160.274
X133.096Y-183.134
X133.35Y-141.224
X133.604Y-166.116
X134.112Y-132.842
X134.874Y-127.0
X134.874Y-128.27
X134.874Y-129.54
X134.874Y-149.606
X134.874Y-152.908
X134.874Y-175.006
X134.874Y-130.81
X135.636Y-162.56
X135.636Y-173.228
X135.89Y-105.41
X135.89Y-124.46
X135.89Y-161.036
X135.89Y-125.73
X136.144Y-103.632
X136.144Y-175.006
X136.398Y-107.95
X136.398Y-123.19
X136.652Y-98.806
X136.652Y-141.224
X136.906Y-101.854
X137.414Y-107.95
X137.414Y-118.872
X137.414Y-120.65
X138.176Y-99.822
X138.176Y-110.998
X138.684Y-117.856
X139.192Y-173.99
X139.7Y-115.57
X139.7Y-149.606
X139.954Y-131.318
X139.954Y-141.224
X140.208Y-111.252
X140.208Y-122.428
X140.208Y-107.188
X140.462Y-129.286
X140.462Y-164.338
X140.462Y-183.388
X140.462Y-184.404
X140.462Y-188.976
X140.97Y-106.172
X140.97Y-110.49
X140.97Y-114.046
X141.478Y-161.798
X141.478Y-175.006
X141.478Y-184.404
X141.732Y-107.188
X141.732Y-112.268
X141.986Y-125.73
X141.986Y-160.274
X141.986Y-188.976
X142.24Y-122.428
X142.24Y-131.318
X142.24Y-135.636
X142.24Y-151.13
X142.24Y-156.718
X142.24Y-157.988
X142.494Y-106.172
X142.748Y-154.94
X142.748Y-171.958
X142.748Y-175.006
X143.002Y-153.924
X143.256Y-152.4
X143.51Y-131.572
X143.51Y-141.224
X143.764Y-104.75
X144.25Y-110.49
X144.25Y-113.25
X144.78Y-131.572
X144.78Y-141.224
X145.034Y-107.188
X145.25Y-110.5
X145.796Y-128.27
X146.05Y-191.516
X146.304Y-187.198
X146.304Y-195.072
X146.558Y-122.174
X146.812Y-114.808
X146.812Y-117.348
X146.812Y-131.572
X146.812Y-182.626
X147.066Y-124.46
X147.066Y-125.73
X147.066Y-127.0
X147.32Y-89.916
X147.828Y-170.18
X148.082Y-162.56
X148.336Y-153.162
X148.59Y-159.258
X149.352Y-98.298
X149.352Y-104.14
X149.86Y-174.752
X150.114Y-165.354
X150.5Y-133.5
X150.75Y-129.75
X152.146Y-132.08
X152.4Y-110.744
X152.908Y-131.572
X153.25Y-126.5
X153.67Y-141.732
X153.67Y-153.162
X153.924Y-102.362
X153.924Y-147.828
X154.178Y-133.858
X154.432Y-89.916
X154.432Y-95.25
X154.432Y-100.076
X154.686Y-131.064
T3
X85.44Y-189.32
X87.44Y-189.32
X89.44Y-189.32
X91.44Y-189.32
X93.44Y-189.32
X95.44Y-189.32
X97.44Y-189.32
X112.11Y-189.32
X114.11Y-189.32
X116.11Y-189.32
X118.11Y-189.32
X120.11Y-189.32
X122.11Y-189.32
X124.11Y-189.32
T4
X72.39Y-116.84
X72.39Y-119.38
X72.39Y-121.92
X72.39Y-124.46
X72.39Y-127.0
X72.39Y-129.54
X72.39Y-132.08
X72.39Y-134.62
X72.39Y-137.16
X72.39Y-139.7
X72.39Y-142.24
X72.39Y-144.78
X72.39Y-147.32
X72.39Y-149.86
X72.39Y-152.4
X72.39Y-154.94
X72.39Y-157.48
X72.39Y-160.02
X72.39Y-162.56
X72.39Y-165.1
X87.63Y-116.84
X87.63Y-119.38
X87.63Y-121.92
X87.63Y-124.46
X87.63Y-127.0
X87.63Y-129.54
X87.63Y-132.08
X87.63Y-134.62
X87.63Y-137.16
X87.63Y-139.7
X87.63Y-142.24
X87.63Y-144.78
X87.63Y-147.32
X87.63Y-149.86
X87.63Y-152.4
X87.63Y-154.94
X87.63Y-157.48
X87.63Y-160.02
X87.63Y-162.56
X87.63Y-165.1
X110.49Y-116.835
X110.49Y-119.375
X110.49Y-121.915
X110.49Y-124.455
X110.49Y-126.995
X110.49Y-129.535
X110.49Y-132.075
X110.49Y-134.615
X110.49Y-137.155
X110.49Y-139.695
X110.49Y-142.235
X110.49Y-144.775
X110.49Y-147.315
X110.49Y-149.855
X110.49Y-152.395
X110.49Y-154.935
X110.49Y-157.475
X110.49Y-160.015
X110.49Y-162.555
X110.49Y-165.095
X125.73Y-116.835
X125.73Y-119.375
X125.73Y-121.915
X125.73Y-124.455
X125.73Y-126.995
X125.73Y-129.535
X125.73Y-132.075
X125.73Y-134.615
X125.73Y-137.155
X125.73Y-139.695
X125.73Y-142.235
X125.73Y-144.775
X125.73Y-147.315
X125.73Y-149.855
X125.73Y-152.395
X125.73Y-154.935
X125.73Y-157.475
X125.73Y-160.015
X125.73Y-162.555
X125.73Y-165.095
T2
G00X132.84Y-190.595
M15
G01X132.84Y-191.295
M16
G05
G00X132.84Y-194.395
M15
G01X132.84Y-195.095
M16
G05
G00X141.48Y-190.595
M15
G01X141.48Y-191.295
M16
G05
G00X141.48Y-194.395
M15
G01X141.48Y-195.095
M16
G05
T0
M30
