G04 #@! TF.GenerationSoftware,KiCad,Pcbnew,(6.0.5)*
G04 #@! TF.CreationDate,2022-06-14T22:04:30-04:00*
G04 #@! TF.ProjectId,ingameNES,696e6761-6d65-44e4-9553-2e6b69636164,1*
G04 #@! TF.SameCoordinates,Original*
G04 #@! TF.FileFunction,Soldermask,Bot*
G04 #@! TF.FilePolarity,Negative*
%FSLAX46Y46*%
G04 Gerber Fmt 4.6, Leading zero omitted, Abs format (unit mm)*
G04 Created by KiCad (PCBNEW (6.0.5)) date 2022-06-14 22:04:30*
%MOMM*%
%LPD*%
G01*
G04 APERTURE LIST*
G04 Aperture macros list*
%AMRoundRect*
0 Rectangle with rounded corners*
0 $1 Rounding radius*
0 $2 $3 $4 $5 $6 $7 $8 $9 X,Y pos of 4 corners*
0 Add a 4 corners polygon primitive as box body*
4,1,4,$2,$3,$4,$5,$6,$7,$8,$9,$2,$3,0*
0 Add four circle primitives for the rounded corners*
1,1,$1+$1,$2,$3*
1,1,$1+$1,$4,$5*
1,1,$1+$1,$6,$7*
1,1,$1+$1,$8,$9*
0 Add four rect primitives between the rounded corners*
20,1,$1+$1,$2,$3,$4,$5,0*
20,1,$1+$1,$4,$5,$6,$7,0*
20,1,$1+$1,$6,$7,$8,$9,0*
20,1,$1+$1,$8,$9,$2,$3,0*%
G04 Aperture macros list end*
%ADD10O,1.102000X1.802000*%
%ADD11C,6.502000*%
%ADD12RoundRect,0.301000X-0.350000X-0.625000X0.350000X-0.625000X0.350000X0.625000X-0.350000X0.625000X0*%
%ADD13O,1.302000X1.852000*%
%ADD14C,2.102000*%
%ADD15C,3.602000*%
%ADD16RoundRect,0.051000X-0.800000X-0.800000X0.800000X-0.800000X0.800000X0.800000X-0.800000X0.800000X0*%
%ADD17O,1.702000X1.702000*%
%ADD18RoundRect,0.051000X0.800000X0.800000X-0.800000X0.800000X-0.800000X-0.800000X0.800000X-0.800000X0*%
G04 APERTURE END LIST*
D10*
X141480000Y-190945000D03*
X141480000Y-194745000D03*
X132840000Y-190945000D03*
X132840000Y-194745000D03*
D11*
X101562000Y-126975000D03*
D12*
X85440000Y-189320000D03*
D13*
X87440000Y-189320000D03*
X89440000Y-189320000D03*
X91440000Y-189320000D03*
X93440000Y-189320000D03*
X95440000Y-189320000D03*
X97440000Y-189320000D03*
D12*
X112110000Y-189320000D03*
D13*
X114110000Y-189320000D03*
X116110000Y-189320000D03*
X118110000Y-189320000D03*
X120110000Y-189320000D03*
X122110000Y-189320000D03*
X124110000Y-189320000D03*
D14*
X151130000Y-135890000D03*
X151130000Y-118110000D03*
D15*
X96562000Y-117475000D03*
D14*
X67310000Y-135890000D03*
X67310000Y-118110000D03*
D16*
X110490000Y-165094996D03*
D17*
X110490000Y-162554996D03*
X110490000Y-160014996D03*
X110490000Y-157474996D03*
X110490000Y-154934996D03*
X110490000Y-152394996D03*
X110490000Y-149854996D03*
X110490000Y-147314996D03*
X110490000Y-144774996D03*
X110490000Y-142234996D03*
X110490000Y-139694996D03*
X110490000Y-137154996D03*
X110490000Y-134614996D03*
X110490000Y-132074996D03*
X110490000Y-129534996D03*
X110490000Y-126994996D03*
X110490000Y-124454996D03*
X110490000Y-121914996D03*
X110490000Y-119374996D03*
X110490000Y-116834996D03*
X125730000Y-116834996D03*
X125730000Y-119374996D03*
X125730000Y-121914996D03*
X125730000Y-124454996D03*
X125730000Y-126994996D03*
X125730000Y-129534996D03*
X125730000Y-132074996D03*
X125730000Y-134614996D03*
X125730000Y-137154996D03*
X125730000Y-139694996D03*
X125730000Y-142234996D03*
X125730000Y-144774996D03*
X125730000Y-147314996D03*
X125730000Y-149854996D03*
X125730000Y-152394996D03*
X125730000Y-154934996D03*
X125730000Y-157474996D03*
X125730000Y-160014996D03*
X125730000Y-162554996D03*
X125730000Y-165094996D03*
D18*
X87630000Y-116840000D03*
D17*
X87630000Y-119380000D03*
X87630000Y-121920000D03*
X87630000Y-124460000D03*
X87630000Y-127000000D03*
X87630000Y-129540000D03*
X87630000Y-132080000D03*
X87630000Y-134620000D03*
X87630000Y-137160000D03*
X87630000Y-139700000D03*
X87630000Y-142240000D03*
X87630000Y-144780000D03*
X87630000Y-147320000D03*
X87630000Y-149860000D03*
X87630000Y-152400000D03*
X87630000Y-154940000D03*
X87630000Y-157480000D03*
X87630000Y-160020000D03*
X87630000Y-162560000D03*
X87630000Y-165100000D03*
X72390000Y-165100000D03*
X72390000Y-162560000D03*
X72390000Y-160020000D03*
X72390000Y-157480000D03*
X72390000Y-154940000D03*
X72390000Y-152400000D03*
X72390000Y-149860000D03*
X72390000Y-147320000D03*
X72390000Y-144780000D03*
X72390000Y-142240000D03*
X72390000Y-139700000D03*
X72390000Y-137160000D03*
X72390000Y-134620000D03*
X72390000Y-132080000D03*
X72390000Y-129540000D03*
X72390000Y-127000000D03*
X72390000Y-124460000D03*
X72390000Y-121920000D03*
X72390000Y-119380000D03*
X72390000Y-116840000D03*
M02*
