%TF.GenerationSoftware,KiCad,Pcbnew,(6.0.7)*%
%TF.CreationDate,2022-07-29T13:47:02-04:00*%
%TF.ProjectId,ingameNES,696e6761-6d65-44e4-9553-2e6b69636164,1*%
%TF.SameCoordinates,Original*%
%TF.FileFunction,Profile,NP*%
%FSLAX46Y46*%
G04 Gerber Fmt 4.6, Leading zero omitted, Abs format (unit mm)*
G04 Created by KiCad (PCBNEW (6.0.7)) date 2022-07-29 13:47:02*
%MOMM*%
%LPD*%
G01*
G04 APERTURE LIST*
%TA.AperFunction,Profile*%
%ADD10C,0.150000*%
%TD*%
%TA.AperFunction,Profile*%
%ADD11C,0.050000*%
%TD*%
%TA.AperFunction,Profile*%
%ADD12C,0.120000*%
%TD*%
%TA.AperFunction,Profile*%
%ADD13C,0.100000*%
%TD*%
G04 APERTURE END LIST*
D10*
X54850000Y-182500000D02*
X54850000Y-181000000D01*
X51600000Y-181000000D02*
X51600000Y-161500000D01*
D11*
X51600000Y-153000000D02*
X46600000Y-153000000D01*
X151600000Y-155500000D02*
X156500000Y-155500000D01*
D10*
X149850000Y-158000000D02*
X149850000Y-164000000D01*
X151600000Y-181000000D02*
X148350000Y-181000000D01*
X56600000Y-155500000D02*
X56600000Y-153000000D01*
X51600000Y-161500000D02*
X53350000Y-161500000D01*
D12*
X78300000Y-197250000D02*
X148350000Y-197250000D01*
D10*
X54850000Y-181000000D02*
X51600000Y-181000000D01*
X146600000Y-158000000D02*
X149850000Y-158000000D01*
X148350000Y-181000000D02*
X148350000Y-182500000D01*
X54850000Y-197250000D02*
X54850000Y-182500000D01*
X151600000Y-164000000D02*
X151600000Y-181000000D01*
X151600000Y-155500000D02*
X146600000Y-155500000D01*
X53350000Y-161500000D02*
X53350000Y-155500000D01*
X59500000Y-197250000D02*
X54850000Y-197250000D01*
X156500000Y-88900000D02*
X156500000Y-155500000D01*
X53350000Y-155500000D02*
X56600000Y-155500000D01*
X56600000Y-153000000D02*
X51600000Y-153000000D01*
D12*
X46600000Y-88900000D02*
X156500000Y-88900000D01*
X65500000Y-197250000D02*
X71700000Y-197250000D01*
D10*
X148350000Y-182500000D02*
X148350000Y-197250000D01*
X146600000Y-155500000D02*
X146600000Y-158000000D01*
X149850000Y-164000000D02*
X151600000Y-164000000D01*
D11*
X46600000Y-88900000D02*
X46600000Y-153000000D01*
D13*
X72700000Y-184750000D02*
X77300000Y-184750000D01*
X78300000Y-190380000D02*
X78300000Y-197250000D01*
X78600000Y-190380000D02*
X78300000Y-190380000D01*
X71700000Y-197250000D02*
X71700000Y-190380000D01*
X71700000Y-190380000D02*
X71400000Y-190380000D01*
X71400000Y-189080000D02*
X71700000Y-189080000D01*
X71700000Y-189080000D02*
X71700000Y-184750000D01*
X78300000Y-184750000D02*
X78300000Y-189080000D01*
X78300000Y-189080000D02*
X78600000Y-189080000D01*
X70750000Y-189730000D02*
G75*
G03*
X71400000Y-190380000I650000J0D01*
G01*
X78300000Y-184750000D02*
G75*
G03*
X77300000Y-184750000I-500000J0D01*
G01*
X72700000Y-184750000D02*
G75*
G03*
X71700000Y-184750000I-500000J0D01*
G01*
X71400000Y-189080000D02*
G75*
G03*
X70750000Y-189730000I0J-650000D01*
G01*
X79250000Y-189730000D02*
G75*
G03*
X78600000Y-189080000I-650000J0D01*
G01*
X78600000Y-190380000D02*
G75*
G03*
X79250000Y-189730000I0J650000D01*
G01*
D12*
X60600000Y-197250000D02*
X59500000Y-197250000D01*
X64400000Y-197250000D02*
X65500000Y-197250000D01*
X63700000Y-196300000D02*
X61300000Y-196300000D01*
X60600000Y-197000000D02*
X60600000Y-197250000D01*
X64400000Y-197250000D02*
X64400000Y-197000000D01*
X64400000Y-197000000D02*
G75*
G03*
X63700000Y-196300000I-400100J299900D01*
G01*
X61300000Y-196300000D02*
G75*
G03*
X60600000Y-197000000I-300000J-400000D01*
G01*
M02*
